<svg width="105" height="100" viewBox="0 0 105 100" fill="none" xmlns="http://www.w3.org/2000/svg">
<path d="M53.1751 100C80.8432 100 103.24 77.6045 103.24 50C103.24 22.3677 80.8153 0 53.1751 0C25.5349 0 3.11035 22.3677 3.11035 49.9721C3.11035 77.6045 25.5349 100 53.1751 100Z" fill="url(#paint0_linear_1229_16355)" fill-opacity="0.2"/>
<path d="M11.8701 0.983896C12.0715 0.130368 13.28 0.130368 13.4814 0.983896L14.1611 3.82062C14.2367 4.12186 14.4632 4.3478 14.7654 4.42311L17.6103 5.10091C18.4663 5.30174 18.4663 6.50672 17.6103 6.70755L14.7654 7.38535C14.4632 7.46066 14.2367 7.68659 14.1611 7.98784L13.4814 10.8246C13.28 11.6781 12.0715 11.6781 11.8701 10.8246L11.1903 7.98784C11.1148 7.68659 10.8882 7.46066 10.5861 7.38535L7.74112 6.70755C6.88512 6.50672 6.88512 5.30174 7.74112 5.10091L10.5861 4.42311C10.8882 4.3478 11.1148 4.12186 11.1903 3.82062L11.8701 0.983896Z" fill="#E94222"/>
<path fill-rule="evenodd" clip-rule="evenodd" d="M50.9622 4.54988C51.799 4.54988 52.4962 3.8535 52.4962 3.01785C52.4962 2.18219 51.799 1.48581 50.9622 1.48581C50.1255 1.48581 49.4282 2.18219 49.4282 3.01785C49.4282 3.8535 50.0976 4.54988 50.9622 4.54988ZM50.9622 5.69194C52.4405 5.69194 53.6398 4.49417 53.6398 3.01785C53.6398 1.54152 52.4405 0.34375 50.9622 0.34375C49.484 0.34375 48.2847 1.54152 48.2847 3.01785C48.2847 4.49417 49.484 5.69194 50.9622 5.69194Z" fill="#E94222"/>
<path d="M99.2257 46.8549C99.0862 46.2978 99.6162 45.7685 100.174 45.9356L103.995 47.022C104.553 47.1891 104.748 47.8855 104.33 48.3033L101.485 51.061C101.067 51.4788 100.369 51.2838 100.202 50.6989L99.2257 46.8549Z" fill="#E94222"/>
<path fill-rule="evenodd" clip-rule="evenodd" d="M102.031 23.7594C102.868 23.7594 103.565 23.063 103.565 22.2273C103.565 21.3917 102.868 20.6953 102.031 20.6953C101.194 20.6953 100.497 21.3917 100.497 22.2273C100.497 23.063 101.194 23.7594 102.031 23.7594ZM102.031 24.9014C103.509 24.9014 104.709 23.7036 104.709 22.2273C104.709 20.751 103.509 19.5532 102.031 19.5532C100.553 19.5532 99.3535 20.751 99.3535 22.2273C99.3535 23.7036 100.553 24.9014 102.031 24.9014Z" fill="#E94222"/>
<path fill-rule="evenodd" clip-rule="evenodd" d="M2.96906 29.15C3.8058 29.15 4.50308 28.4536 4.50308 27.6179C4.50308 26.7823 3.8058 26.0859 2.96906 26.0859C2.13233 26.0859 1.43505 26.7823 1.43505 27.6179C1.43505 28.4536 2.10444 29.15 2.96906 29.15ZM2.96906 30.292C4.4473 30.292 5.64662 29.0943 5.64662 27.6179C5.64662 26.1416 4.4473 24.9438 2.96906 24.9438C1.49083 24.9438 0.291504 26.1416 0.291504 27.6179C0.291504 29.0943 1.49083 30.292 2.96906 30.292Z" fill="#E94222"/>
<path fill-rule="evenodd" clip-rule="evenodd" d="M50.9874 21.3413C43.5237 21.3413 37.4731 27.3918 37.4731 34.8555C37.4731 42.3191 43.5237 48.3695 50.9874 48.3695C58.4511 48.3695 64.5015 42.3191 64.5015 34.8555C64.5015 27.3918 58.4511 21.3413 50.9874 21.3413Z" fill="#E94222"/>
<path fill-rule="evenodd" clip-rule="evenodd" d="M72.9714 50.3638C71.7204 48.9465 69.884 48.0479 67.8401 48.0479H62.9284C59.1496 48.0479 56.0864 51.1113 56.0864 54.8901V72.0806C56.0864 75.8597 59.1496 78.9229 62.9284 78.9229H67.8401C69.884 78.9229 71.7204 78.0243 72.9714 76.607C73.677 75.8077 73.6008 74.5876 72.8015 73.882C72.002 73.1764 70.7821 73.2526 70.0765 74.0519C69.5275 74.6741 68.7303 75.0617 67.8401 75.0617H62.9284C61.2823 75.0617 59.9476 73.7271 59.9476 72.0806V54.8901C59.9476 53.2437 61.2823 51.909 62.9284 51.909H67.8401C68.7303 51.909 69.5275 52.2967 70.0765 52.9189C70.7821 53.7181 72.002 53.7943 72.8015 53.0888C73.6008 52.3832 73.677 51.1631 72.9714 50.3638Z" fill="#E94222"/>
<path fill-rule="evenodd" clip-rule="evenodd" d="M80.2927 62.1202C81.0467 62.8741 81.0467 64.0963 80.2927 64.8503L75.1445 69.9985C74.3905 70.7525 73.1681 70.7525 72.4141 69.9985C71.6601 69.2446 71.6601 68.0224 72.4141 67.2684L77.5624 62.1202C78.3163 61.3662 79.5388 61.3662 80.2927 62.1202Z" fill="#E94222"/>
<path fill-rule="evenodd" clip-rule="evenodd" d="M80.2927 64.8501C81.0467 64.0961 81.0467 62.8739 80.2927 62.12L75.1445 56.9717C74.3905 56.2178 73.1681 56.2178 72.4141 56.9717C71.6601 57.7257 71.6601 58.9479 72.4141 59.7018L77.5624 64.8501C78.3163 65.604 79.5388 65.604 80.2927 64.8501Z" fill="#E94222"/>
<path fill-rule="evenodd" clip-rule="evenodd" d="M62.8394 63.4853C62.8394 62.4191 63.7035 61.5547 64.7699 61.5547H77.6406C78.7068 61.5547 79.5712 62.4191 79.5712 63.4853C79.5712 64.5515 78.7068 65.4159 77.6406 65.4159H64.7699C63.7035 65.4159 62.8394 64.5515 62.8394 63.4853Z" fill="#E94222"/>
<path d="M52.2645 53.9686C52.2385 54.2724 52.2253 54.5797 52.2253 54.8902V72.0807C52.2253 74.0005 52.7306 75.8021 53.6156 77.36H30.1644C27.6765 77.36 25.6597 75.3431 25.6597 72.8552V63.4033C25.6597 61.8251 26.5307 60.3759 27.9243 59.6353C35.5197 55.5991 43.9177 53.7102 52.2645 53.9686Z" fill="#E94222"/>
<defs>
<linearGradient id="paint0_linear_1229_16355" x1="103.24" y1="1.09613e-05" x2="7.61247" y2="104.134" gradientUnits="userSpaceOnUse">
<stop offset="0.0001" stop-color="#FF6648"/>
<stop offset="1" stop-color="#D62300"/>
</linearGradient>
</defs>
</svg>
