<svg width="332" height="234" viewBox="0 0 332 234" fill="none" xmlns="http://www.w3.org/2000/svg">
<g clip-path="url(#clip0_327_19501)">
<path d="M324.491 170.269C319.053 186.471 305.912 199.265 288.204 208.984C236.092 237.591 144.463 239.541 93.511 223.156C78.8553 218.445 64.4411 210.415 51.5437 199.902C17.0101 171.755 -6.65363 125.793 5.00793 77.9474C29.1849 -21.253 176.247 -16.535 231.21 60.1478C272.207 117.342 348.146 99.7768 324.491 170.269Z" fill="#F3E9C7"/>
<mask id="mask0_327_19501" style="mask-type:luminance" maskUnits="userSpaceOnUse" x="2" y="3" width="327" height="231">
<path d="M324.491 170.269C319.053 186.471 305.912 199.265 288.204 208.984C236.092 237.591 144.463 239.541 93.511 223.156C78.8553 218.445 64.4411 210.415 51.5437 199.902C17.0101 171.755 -6.65363 125.793 5.00793 77.9474C29.1849 -21.253 176.247 -16.535 231.21 60.1478C272.207 117.342 348.146 99.7768 324.491 170.269Z" fill="white"/>
</mask>
<g mask="url(#mask0_327_19501)">
<path d="M309.854 144.867C309.854 144.867 309.835 144.867 309.826 144.867C309.635 144.853 309.495 144.685 309.509 144.497C309.516 144.405 310.181 135.307 306.572 131.289C305.495 130.092 304.128 129.459 302.505 129.413C300.913 129.367 299.543 129.972 298.439 131.208C295.587 134.4 295.196 141.026 295.513 143.249C295.541 143.438 295.41 143.613 295.221 143.641C295.03 143.666 294.858 143.537 294.83 143.348C294.45 140.688 294.982 134.046 297.925 130.75C299.173 129.353 300.724 128.667 302.528 128.725C304.346 128.778 305.882 129.484 307.09 130.828C310.896 135.068 310.231 144.165 310.201 144.55C310.188 144.731 310.036 144.867 309.859 144.867H309.854Z" fill="#654A1E"/>
<path d="M322.432 204.257L319.564 140.844L283.373 140.842L280.506 204.259H304.119V204.257H322.432Z" fill="url(#paint0_linear_327_19501)"/>
<path d="M278.687 146.273C278.687 146.273 283.129 145.903 283.373 140.842C285.969 149.751 285.15 159.845 283.373 170.266H279.9L278.687 146.271V146.273Z" fill="url(#paint1_linear_327_19501)"/>
<path d="M305.338 149.27C305.338 149.27 305.318 149.27 305.306 149.27C305.117 149.252 304.977 149.083 304.995 148.895C305.005 148.794 305.9 138.812 302.508 135.249C301.67 134.37 300.664 133.967 299.44 134.023C297.642 134.101 296.151 134.83 295.007 136.191C292.167 139.565 292.225 145.758 292.468 147.661C292.492 147.85 292.358 148.023 292.169 148.048C291.981 148.071 291.808 147.937 291.783 147.749C291.53 145.767 291.479 139.309 294.478 135.744C295.75 134.232 297.41 133.42 299.407 133.332C300.823 133.275 302.036 133.753 303.005 134.773C306.613 138.566 305.718 148.536 305.679 148.959C305.663 149.139 305.511 149.272 305.336 149.272L305.338 149.27Z" fill="#654A1E"/>
<path d="M322.431 204.257H310.222C310.441 191.299 311.15 149.951 311.186 149.838C311.23 149.705 313.822 146.273 313.822 146.273C311.143 143.928 313.391 140.98 319.566 140.844L322.434 204.257H322.431Z" fill="url(#paint2_linear_327_19501)"/>
<path d="M313.822 146.273H278.687L275.905 209.69H316.604L313.822 146.273Z" fill="url(#paint3_linear_327_19501)"/>
<path d="M288.848 158.133C292.574 158.8 292.574 161.753 293.53 169.564C294.485 177.378 298.825 216.266 298.825 216.266H278.685L288.846 158.131L288.848 158.133Z" fill="url(#paint4_linear_327_19501)"/>
<path d="M288.848 158.133C288.848 158.133 288.565 170.547 288.287 183.631C288.234 186.098 288.183 188.591 288.133 191.028C287.889 202.701 287.7 213.104 287.764 213.571C287.919 214.655 245.334 215.43 245.334 215.43L250.743 191.028L252.382 183.631L258.034 158.133H288.848Z" fill="url(#paint5_linear_327_19501)"/>
</g>
<path d="M197.447 202.629C197.447 202.629 213.813 203.214 213.685 202.96C213.557 202.706 203.432 161.95 203.432 161.95L189.996 166.981L197.447 202.629Z" fill="#F9CAA2"/>
<path d="M193.362 179.469C198.65 172.733 204.649 168.667 206.936 167.651C209.223 166.634 203.802 161.246 203.802 161.246L188.995 167.296L193.362 179.471V179.469Z" fill="#E5AD82"/>
<path d="M89.8888 180.117C96.9204 179.366 104.586 177.419 104.586 177.419L103.812 169.432L92.8217 166.807L89.8865 180.117H89.8888Z" fill="url(#paint6_linear_327_19501)"/>
<path d="M121.228 101.249L162.296 103.035L183.719 208.779C183.719 208.779 122.997 215.953 123.182 214.293C123.366 212.633 121.228 101.249 121.228 101.249Z" fill="url(#paint7_linear_327_19501)"/>
<path d="M194.77 170.064L203.828 204.277L173.738 203.473C173.738 203.473 163.375 152.655 160.533 140.478C157.691 128.301 155.926 120.856 155.763 112.081C155.763 112.081 158.162 101.196 159.023 98.0388C169.178 98.2533 186.002 99.1019 196.046 100.24C198.435 100.51 200.443 100.797 201.881 101.098C202.986 102.625 211.675 165.032 211.675 165.032L194.768 170.064H194.77Z" fill="url(#paint8_linear_327_19501)"/>
<path d="M211.675 165.03L194.768 170.061C194.446 169.35 181.486 122.269 188.995 108.164C190.756 104.863 193.25 102.27 196.043 100.237C198.433 100.508 200.44 100.795 201.879 101.095C202.984 102.622 211.673 165.03 211.673 165.03H211.675Z" fill="url(#paint9_linear_327_19501)"/>
<path d="M203.35 129.599H186.03C184.05 129.599 182.575 127.774 182.99 125.836L191.609 85.6659C191.917 84.2321 193.183 83.2086 194.649 83.2086H211.969C213.949 83.2086 215.424 85.0341 215.009 86.9715L206.39 127.142C206.082 128.576 204.816 129.599 203.35 129.599Z" fill="url(#paint10_linear_327_19501)"/>
<path d="M201.228 92.94C201.228 93.8282 201.946 94.5463 202.835 94.5463C203.723 94.5463 204.441 93.8282 204.441 92.94C204.441 92.0517 203.723 91.3336 202.835 91.3336C201.946 91.3336 201.228 92.0517 201.228 92.94Z" fill="#654A1E"/>
<path d="M211.128 202.501L209.388 202.627C209.388 202.627 206.185 184.46 204.861 178.566C203.541 172.668 200.858 156.439 199.032 149.727C197.165 142.856 198.102 145.409 196.356 141.9C195.036 139.237 194.663 137.188 195.104 134.782C195.542 132.376 198.897 129.597 198.897 129.597C198.897 129.597 196.834 126.848 196.426 126.643C196.02 126.44 190.93 124.967 189.24 124.479C186.841 123.789 187.056 120.567 188.648 120.101C185.85 119.458 185.293 114.34 188.359 114.032C184.589 113.578 185.375 109.185 187.809 108.976C189.916 108.796 197.43 107.94 199.284 108.745C200.601 109.314 207.556 113.307 207.556 113.307L208.414 109.01C208.414 109.01 204.397 106.873 199.934 104.259C195.768 101.823 198.396 96.9034 202.324 99.0203C204.583 100.24 211.027 103.492 212.962 104.502C214.9 105.513 216.031 108.204 215.737 112.079C215.441 115.956 212.962 135.731 212.962 135.731L216.247 145.619L227.168 178.466C230.933 189.79 223.03 201.631 211.128 202.501Z" fill="#F9CAA2"/>
<path d="M185.032 46.4117C185.962 47.7313 184.545 51.0279 174.196 54.2896C174.196 54.2896 164.837 42.9472 164.979 42.77C165.122 42.5928 182.577 44.6655 185.032 46.4117Z" fill="url(#paint11_linear_327_19501)"/>
<path d="M110.172 55.8283C108.925 59.4141 115.015 60.6241 119.661 60.1438C124.308 59.6612 125.986 51.1002 125.986 51.1002L123.844 48.3118C123.844 48.3118 115.066 51.0746 110.172 55.8307V55.8283Z" fill="url(#paint12_linear_327_19501)"/>
<path d="M164.462 69.1548C166.492 72.4491 172.223 72.2369 173.615 71.9152C173.615 71.9152 171.58 71.2461 172.009 68.2199C172.293 66.2218 173.909 64.8533 176.04 64.3474C181.982 62.9322 174.014 44.3414 166.868 41.7722C161.778 39.942 127.676 45.253 122.377 48.3585C122.377 48.3585 120.61 48.9483 120.13 61.6359C120.13 61.6359 128.749 69.9871 139.833 68.3807C150.916 66.7744 164.464 69.1548 164.464 69.1548H164.462Z" fill="url(#paint13_linear_327_19501)"/>
<path d="M164.462 69.1548C160.454 87.4798 156.229 89.5617 156.229 89.5617C156.229 89.5617 156.327 104.014 155.003 104.676C153.681 105.339 146.207 107.586 136.217 106.859C126.229 106.131 123.648 101.965 123.119 99.053C122.589 96.1434 125.499 88.3377 125.83 88.072C125.963 84.6331 124.802 70.0803 124.802 70.0803C114.201 70.8963 115.567 60.5168 117.724 58.4046C119.906 56.269 122.913 57.514 128.064 63.1863C128.064 63.1863 127.968 53.2731 133.253 49.6174C133.253 49.6174 134.724 55.8563 147.48 55.3807C147.48 55.3807 141.479 53.1146 140.392 46.836C140.392 46.836 142.43 50.7598 148.934 52.7462C155.439 54.7349 163.681 53.835 163.45 59.7941C163.263 64.6644 163.571 67.4085 164.462 69.1548Z" fill="#F9CAA2"/>
<path d="M200.044 77.049C199.846 77.049 199.648 77.0117 199.461 76.9324C198.874 76.683 198.568 76.1118 198.668 75.445L204.719 35.1742C205.271 31.4999 208.712 28.5087 212.389 28.5087H305.772C307.562 28.5087 309.148 29.2058 310.237 30.4694C311.342 31.754 311.801 33.4606 311.528 35.2768L307.756 60.3793C307.203 64.0536 303.762 67.0448 300.086 67.0448H208.542L201.417 76.3402C201.068 76.7972 200.552 77.0513 200.039 77.0513L200.044 77.049Z" fill="url(#paint14_linear_327_19501)"/>
<path d="M185.032 46.4117C185.032 46.4117 167.824 42.2105 147.501 44.6352C127.175 47.0645 118.498 50.5057 110.17 55.826C111.753 53.1425 121.228 46.8337 121.228 46.8337C121.769 44.6934 122.319 42.777 122.878 41.0634C126.788 29.1009 131.174 26.8674 135.839 26.2402C141.173 25.5268 142.791 28.8724 148.046 29.0775C153.301 29.2804 153.828 26.1026 156.283 25.4895C158.74 24.874 163.469 24.3681 166.607 28.532C168.18 30.6163 169.153 33.4723 169.731 35.8037C170.307 38.1305 170.495 39.928 170.495 39.928C181.483 43.614 185.032 46.4094 185.032 46.4094V46.4117Z" fill="url(#paint15_linear_327_19501)"/>
<path d="M170.495 39.9303C151.289 39.2239 134.762 41.4155 121.228 46.836C121.769 44.6958 122.319 42.7793 122.878 41.0657C134.745 36.9811 149.231 34.5214 169.731 35.806C170.307 38.1328 170.495 39.9303 170.495 39.9303Z" fill="url(#paint16_linear_327_19501)"/>
<path d="M146.153 65.3266C146.09 66.364 145.475 67.1707 144.778 67.1288C144.08 67.0868 143.568 66.2102 143.63 65.1727C143.693 64.1352 144.309 63.3285 145.006 63.3705C145.703 63.4125 146.216 64.2891 146.153 65.3266Z" fill="#654A1E"/>
<path d="M160.305 67.0285C160.249 67.9681 159.689 68.6978 159.06 68.6605C158.428 68.6232 157.964 67.8305 158.02 66.8909C158.076 65.9514 158.636 65.2216 159.265 65.2589C159.897 65.2962 160.361 66.0889 160.305 67.0285Z" fill="#654A1E"/>
<path d="M150.525 60.7103C150.443 60.7103 150.359 60.6893 150.284 60.6427C148.37 59.491 144.279 57.6958 138.387 58.6074C138.135 58.6447 137.895 58.4722 137.856 58.218C137.816 57.9639 137.991 57.7261 138.245 57.6865C144.423 56.7306 148.741 58.6284 150.765 59.8454C150.986 59.9783 151.056 60.265 150.923 60.4842C150.835 60.6287 150.681 60.7103 150.522 60.7103H150.525Z" fill="#B58A2D"/>
<path d="M158.43 61.904C158.288 61.904 158.148 61.8387 158.057 61.7175C157.903 61.5123 157.945 61.2186 158.151 61.0647C159.71 59.8943 162.387 59.9992 163.466 60.0995C163.723 60.1228 163.912 60.3513 163.888 60.6077C163.865 60.8642 163.641 61.053 163.38 61.0297C161.359 60.8432 159.612 61.1346 158.71 61.8108C158.626 61.8737 158.528 61.904 158.43 61.904Z" fill="#B58A2D"/>
<path d="M125.986 66.047C125.856 66.047 125.732 65.9747 125.671 65.8511C124.438 63.3192 120.752 61.5333 118.815 61.5333C118.796 61.5333 118.775 61.5333 118.756 61.5333C118.563 61.5333 118.404 61.3841 118.4 61.1906C118.395 60.9971 118.549 60.8386 118.742 60.8339C121.095 60.7896 125 62.8786 126.299 65.5457C126.383 65.7206 126.31 65.9281 126.138 66.0143C126.089 66.0377 126.035 66.0493 125.984 66.0493L125.986 66.047Z" fill="#C88248"/>
<path d="M123.729 68.0567C121.724 68.0567 120.612 66.849 120.391 65.5853C120.172 64.324 120.813 62.7224 122.743 62.1838C122.927 62.1325 123.121 62.2397 123.174 62.4263C123.226 62.6128 123.116 62.8039 122.932 62.8576C121.421 63.2772 120.913 64.5036 121.081 65.4641C121.246 66.42 122.128 67.4855 124.067 67.3432C124.259 67.3269 124.426 67.4738 124.443 67.6673C124.457 67.8608 124.312 68.0263 124.119 68.0427C123.986 68.052 123.858 68.0567 123.732 68.0567H123.729Z" fill="#C88248"/>
<path d="M152.76 76.2749C151.107 76.2749 149.909 75.4776 148.825 73.6871C148.725 73.5215 148.778 73.307 148.942 73.2068C149.105 73.1065 149.322 73.1602 149.422 73.3234C150.494 75.0929 151.571 75.7154 153.262 75.5475C154.721 75.4007 155.572 74.8271 154.705 65.2799C154.688 65.0864 154.828 64.9186 155.022 64.8999C155.211 64.8836 155.383 65.0235 155.402 65.217C156.241 74.4611 155.654 76.0115 153.332 76.2446C153.136 76.2633 152.945 76.2749 152.76 76.2749Z" fill="#C88248"/>
<path d="M148.776 80.8072C147.025 80.8072 143.491 79.8071 142.644 76.0255C142.588 75.7737 142.747 75.5242 142.996 75.4683C143.248 75.4123 143.498 75.5708 143.554 75.8203C144.451 79.8257 148.734 79.8723 148.776 79.8723C149.032 79.8723 149.242 80.0822 149.242 80.3386C149.242 80.5951 149.032 80.8049 148.776 80.8049V80.8072Z" fill="#C88248"/>
<path d="M156.227 89.5617C156.227 89.5617 152.702 91.9258 147.601 91.8419C137.114 91.6693 130.978 84.1225 127.98 73.0273C127.98 73.0273 127.879 81.1406 130.689 87.559C133.496 93.9775 139.781 102 153.819 96.4278L156.227 89.5617Z" fill="#E5AD82"/>
<path d="M171.591 111.657C166.646 106.511 159.885 106.18 155.763 112.081L153.933 105.091L151.851 97.1412L150.413 91.6484C153.952 91.0935 156.227 89.5664 156.227 89.5664C156.227 89.5664 156.379 89.4918 156.651 89.247C157.5 89.7063 158.391 90.3101 159.298 91.0958C164.525 95.6165 169.614 103.18 171.594 111.659L171.591 111.657Z" fill="url(#paint17_linear_327_19501)"/>
<path d="M195.936 176.212C195.777 176.212 195.633 176.102 195.596 175.941C195.265 174.524 187.51 141.152 187.51 135.731C187.51 135.537 187.666 135.381 187.86 135.381C188.053 135.381 188.21 135.537 188.21 135.731C188.21 141.072 196.195 175.437 196.276 175.783C196.321 175.971 196.204 176.158 196.015 176.202C195.99 176.209 195.962 176.212 195.936 176.212Z" fill="#B58A2D"/>
<path d="M210.172 110.225C210.12 110.225 210.067 110.214 210.018 110.188L208.26 109.321C208.087 109.234 208.015 109.024 208.101 108.852C208.188 108.679 208.395 108.607 208.57 108.693L210.328 109.561C210.5 109.647 210.573 109.857 210.486 110.029C210.426 110.153 210.302 110.225 210.172 110.225Z" fill="#C88248"/>
<path d="M209.845 115.545C209.726 115.545 209.61 115.485 209.545 115.375C209.479 115.275 208.656 114.328 207.383 113.613C207.215 113.517 207.155 113.305 207.25 113.137C207.346 112.969 207.558 112.909 207.726 113.004C209.097 113.776 210.02 114.809 210.144 115.016C210.244 115.182 210.19 115.396 210.025 115.497C209.969 115.531 209.906 115.545 209.845 115.545Z" fill="#C88248"/>
<path d="M205.982 120.222C205.915 120.222 205.849 120.204 205.789 120.164C205.719 120.117 198.846 115.559 197.491 114.9C196.391 114.363 193.371 114.37 190.175 114.377C189.574 114.377 188.963 114.38 188.357 114.377C188.163 114.377 188.007 114.219 188.007 114.028C188.007 113.834 188.163 113.678 188.357 113.678C188.963 113.678 189.571 113.678 190.17 113.678C193.591 113.669 196.547 113.662 197.794 114.27C199.188 114.951 205.887 119.39 206.171 119.579C206.332 119.686 206.376 119.903 206.269 120.064C206.201 120.166 206.089 120.22 205.977 120.22L205.982 120.222Z" fill="#C88248"/>
<path d="M204.39 125.041C204.329 125.041 204.266 125.025 204.208 124.99C202.159 123.75 196.687 120.469 195.99 120.197C195.22 119.896 190.872 119.922 188.732 120.439C188.545 120.483 188.354 120.369 188.31 120.18C188.266 119.994 188.38 119.803 188.569 119.758C190.763 119.229 195.281 119.169 196.244 119.544C197.141 119.894 204.269 124.207 204.572 124.391C204.737 124.491 204.791 124.706 204.691 124.871C204.625 124.981 204.509 125.039 204.392 125.039L204.39 125.041Z" fill="#C88248"/>
<path d="M201.62 132.66C201.538 132.66 201.457 132.632 201.389 132.574C201.375 132.56 199.906 131.273 198.636 129.83C198.508 129.686 198.522 129.464 198.666 129.336C198.811 129.208 199.032 129.222 199.16 129.366C200.401 130.774 201.834 132.033 201.848 132.047C201.993 132.176 202.009 132.395 201.881 132.542C201.811 132.621 201.716 132.66 201.618 132.66H201.62Z" fill="#C88248"/>
<path d="M216.247 145.619L209.855 140.364C209.855 140.364 211.365 139.23 212.96 135.731L216.245 145.619H216.247Z" fill="#E5AD82"/>
<path d="M61.6716 87.1114C61.6459 87.1114 61.6203 87.1091 61.5923 87.1021C61.3591 87.0485 55.829 85.7475 52.8261 82.2737C49.9515 78.9468 50.1473 75.6268 51.8283 74.0671C53.0313 72.9527 55.1436 72.7335 57.3048 74.594C57.869 72.2322 59.5523 71.5095 61.0258 71.6494C63.6463 71.8965 66.3367 74.7968 66.1129 79.0517C65.8891 83.3298 62.0679 86.8713 61.907 87.0205C61.8417 87.0811 61.7578 87.1114 61.6716 87.1114Z" fill="url(#paint18_linear_327_19501)"/>
<path d="M76.9563 65.4081C76.8911 65.4081 76.8258 65.3895 76.7698 65.3545C76.6416 65.2729 73.6271 63.3425 72.6898 60.3186C71.734 57.2365 72.9137 54.7069 74.555 54.131C75.4316 53.8233 76.581 54.0564 77.3783 55.5019C78.3272 54.0448 79.5232 53.8862 80.3929 54.2709C81.9619 54.9704 82.8572 57.4906 81.6402 60.5005C80.4372 63.4754 77.2618 65.2869 77.1289 65.3639C77.0752 65.3942 77.017 65.4081 76.9563 65.4081Z" fill="url(#paint19_linear_327_19501)"/>
<path d="M65.7608 139.918C64.9168 137.738 65.7608 134.782 65.4158 126.571C65.1453 120.129 60.233 116.247 57.5542 113.657C54.8754 111.064 50.0493 104.903 48.3031 102.767C46.1069 100.083 41.6609 102.126 43.3022 105.861C33.4589 120.353 39.4134 134.938 65.7631 139.918H65.7608Z" fill="#F9CAA2"/>
<path d="M24.1659 112.184C28.1479 109.943 54.7821 111.908 58.4938 113.042C62.2054 114.175 62.6157 116.289 70.398 116.7C78.1803 117.11 79.4277 111.23 77.9962 109.703C74.8534 106.355 67.5723 109.325 60.1491 110.608C59.501 110.719 49.9351 108.143 26.7887 108.955C23.8231 109.059 21.0371 110.608 20.5964 111.533C19.7222 113.37 21.4591 113.704 24.1682 112.181L24.1659 112.184Z" fill="url(#paint20_linear_327_19501)"/>
<path d="M55.1131 140.282C55.1131 140.282 54.0663 143.865 50.1099 145.856C48.76 141.776 47.9603 139.298 47.9603 139.298C51.0681 140.252 55.1131 140.282 55.1131 140.282Z" fill="#E5AD82"/>
<path d="M77.2618 112.459C76.5927 113.886 74.513 115.142 70.4587 114.981C68.7824 114.916 67.3532 114.764 66.1805 114.55C63.3502 114.028 62.0143 113.123 62.2637 112.079C62.4083 111.482 62.9072 111.111 63.7792 110.808C64.4902 110.559 65.4531 110.36 66.6818 110.125C71.5358 109.188 74.9257 108.903 76.4924 109.68C76.9657 109.915 77.2735 110.248 77.4063 110.691C77.5719 111.249 77.5392 111.869 77.2618 112.459Z" fill="url(#paint21_linear_327_19501)"/>
<path d="M77.2618 112.459C76.5927 113.886 74.513 115.142 70.4587 114.981C68.7824 114.916 67.3532 114.764 66.1805 114.55C64.9285 114.067 64.0169 113.38 63.8654 112.447C63.7861 111.948 63.7535 111.382 63.7815 110.81C63.7838 110.754 63.7861 110.696 63.7885 110.64C63.8934 108.973 64.4902 107.283 65.7585 106.877C67.5094 106.32 67.4814 107.894 69.3629 107.43C71.2444 106.964 70.8317 105.7 73.7133 106.406C75.0236 106.726 75.9095 108.139 76.4947 109.682C76.5857 109.922 76.6673 110.165 76.7442 110.407C76.9727 111.127 77.1405 111.843 77.2618 112.461V112.459Z" fill="url(#paint22_linear_327_19501)"/>
<path d="M76.7419 110.405C75.0959 110.54 75.0609 107.213 73.296 106.931C71.0998 106.576 70.8457 111.598 68.5259 112.111C66.2038 112.624 67.2133 109.833 65.4461 111.118C64.4716 111.827 63.9587 111.617 63.7861 110.635C63.891 108.969 64.4879 107.278 65.7562 106.873C67.5071 106.315 67.4791 107.889 69.3606 107.425C71.242 106.959 70.8294 105.695 73.711 106.402C75.2241 106.772 76.1707 108.6 76.7395 110.402L76.7419 110.405Z" fill="url(#paint23_linear_327_19501)"/>
<path d="M254.546 166.711H288.93L291.308 157.152H257.448L254.546 166.711Z" fill="url(#paint24_linear_327_19501)"/>
<g opacity="0.5">
<path d="M271.707 163.186H274.449C274.449 163.186 273.171 166.072 273.171 171.341H270.376C270.376 171.341 269.866 166.361 271.707 163.186Z" fill="url(#paint25_linear_327_19501)"/>
</g>
<path d="M290.739 182.98C290.685 185.479 290.634 188.004 290.583 190.473H252.706L254.366 182.98H290.739Z" fill="url(#paint26_linear_327_19501)"/>
<path d="M270.311 178.494C265.771 178.494 262.076 182.187 262.076 186.729C262.076 191.27 265.769 194.963 270.311 194.963C274.852 194.963 278.545 191.27 278.545 186.729C278.545 182.187 274.852 178.494 270.311 178.494Z" fill="url(#paint27_linear_327_19501)"/>
<path d="M220.631 41.194L222.118 45.5281L226.795 46.2229L222.829 49.5941L222.929 54.3572L218.989 52.1097L214.375 54.3572L215.907 49.5941L212.953 46.2229L217.84 45.5281L220.631 41.194Z" fill="#F9C200"/>
<path d="M238.221 41.194L239.709 45.5281L244.388 46.2229L240.42 49.5941L240.522 54.3572L236.582 52.1097L231.966 54.3572L233.5 49.5941L230.546 46.2229L235.433 45.5281L238.221 41.194Z" fill="#F9C200"/>
<path d="M255.814 41.194L257.301 45.5281L261.981 46.2229L258.013 49.5941L258.113 54.3572L254.173 52.1097L249.559 54.3572L251.091 49.5941L248.137 46.2229L253.023 45.5281L255.814 41.194Z" fill="#F9C200"/>
<path d="M273.407 41.194L274.894 45.5281L279.571 46.2229L275.603 49.5941L275.706 54.3572L271.766 52.1097L267.149 54.3572L268.684 49.5941L265.73 46.2229L270.616 45.5281L273.407 41.194Z" fill="#F9C200"/>
<path opacity="0.25" d="M292.604 41.194L294.094 45.5281L298.771 46.2229L294.803 49.5941L294.905 54.3572L290.965 52.1097L286.349 54.3572L287.883 49.5941L284.929 46.2229L289.816 45.5281L292.604 41.194Z" fill="url(#paint28_linear_327_19501)"/>
<path d="M290.998 38.8905L292.485 43.2246L297.164 43.9194L293.196 47.293L293.296 52.0561L289.359 49.8062L284.742 52.0561L286.274 47.293L283.32 43.9194L288.209 43.2246L290.998 38.8905Z" fill="#F9C200"/>
<path d="M290.655 208.665C237.864 237.645 145.043 239.619 93.4279 223.022C78.5813 218.249 63.9796 210.115 50.9143 199.465C123.291 194.891 212.627 198.092 290.655 208.665Z" fill="url(#paint29_linear_327_19501)"/>
<path d="M98.627 162.985C98.0418 169.793 97.5615 176.02 96.8691 181.383C95.5169 191.876 93.3603 199.043 88.0446 200.731C79.0407 203.592 69.2767 203.431 60.6038 176.498C60.6038 176.498 76.166 158.751 76.3735 158.751C76.3898 158.751 76.5437 158.777 76.8165 158.828C79.9499 159.4 98.627 162.985 98.627 162.985Z" fill="#F9CAA2"/>
<path d="M98.6269 162.985C98.0417 169.793 97.5615 176.02 96.869 181.383C92.36 175.328 83.9319 169.25 75.4222 166.48L76.8164 158.828C79.9499 159.4 98.6269 162.985 98.6269 162.985Z" fill="#E5AD82"/>
<path d="M140.891 197.626C128.779 197.418 116.8 197.383 105.048 197.516L102.707 173.978C102.707 173.978 102.66 173.952 102.565 173.899C100.93 172.985 85.4264 164.547 70.5822 163.524L67.7705 150.538C67.7705 150.538 73.1817 132.626 75.723 125.321C78.1873 118.25 81.9246 104.634 93.6587 100.918C94.0457 100.795 94.442 100.683 94.8477 100.582C110.916 96.5933 122.209 98.8035 122.209 98.8035L131.295 114.424C133.12 131.618 139.1 182.42 140.893 197.623L140.891 197.626Z" fill="url(#paint30_linear_327_19501)"/>
<path d="M102.565 173.899C100.93 172.985 85.4264 164.547 70.5822 163.524L67.7705 150.538C67.7705 150.538 73.1817 132.626 75.723 125.321C78.1873 118.25 81.9246 104.634 93.6587 100.918C95.3629 103.222 96.6615 106.357 97.2374 110.591C99.6737 128.478 101.982 164.433 102.562 173.899H102.565Z" fill="url(#paint31_linear_327_19501)"/>
<path d="M125.832 88.0743C125.982 93.8026 126.07 98.3023 126.07 98.3023C126.07 98.3023 130.584 107.521 131.293 114.426C131.293 114.426 120.493 103.45 108.808 109.603C108.808 109.603 111.503 94.8657 116.22 91.3756C120.936 87.8854 125.83 88.0743 125.83 88.0743H125.832Z" fill="url(#paint32_linear_327_19501)"/>
<path d="M86.6668 182.334C71.9788 189.333 60.6061 176.496 60.6061 176.496C56.3349 164.524 52.4181 152.841 50.11 145.854C48.7601 141.774 47.9604 139.296 47.9604 139.296C47.9604 139.296 41.7378 136.603 38.3852 135.057C35.0327 133.514 35.077 131.22 35.429 129.59C35.429 129.59 31.7687 127.781 33.3564 123.901C30.9667 124.195 29.3906 121.111 30.9293 118.628C30.9293 118.628 29.0339 117.914 29.6424 115.049C30.2509 112.184 33.2957 108.08 38.3479 106.705C48.7344 103.874 50.6322 108.924 47.9091 110.608C51.5811 110.58 54.0338 110.68 54.4208 112.839C54.8078 114.995 52.6606 115.837 52.6606 115.837C56.4142 116.767 55.5399 120.598 53.6468 120.819C55.7031 120.784 56.0435 123.981 54.9594 124.748C53.796 125.571 51.4272 126.296 50.1216 126.764C49.0958 127.135 48.2169 128.385 48.2169 128.385C48.7484 128.48 54.2856 128.732 55.4443 128.793C56.603 128.856 57.4796 129.044 60.4499 131.297C63.4248 133.551 62.9235 137.274 62.9235 137.274C62.9235 137.274 65.1803 138.552 65.7515 139.923C73.8183 159.22 81.8127 172.803 86.6598 182.339L86.6668 182.334Z" fill="#F9CAA2"/>
<path d="M47.9137 110.957C47.7971 110.957 47.6829 110.899 47.6153 110.792C47.5127 110.626 47.564 110.412 47.7295 110.309C48.5642 109.794 48.8906 108.913 48.5432 108.115C47.8041 106.413 44.3932 105.42 38.4434 107.043C38.2569 107.094 38.0658 106.984 38.0145 106.798C37.9632 106.611 38.0727 106.42 38.2593 106.369C45.0484 104.518 48.3893 106.003 49.1843 107.838C49.6739 108.966 49.2379 110.2 48.0955 110.906C48.0373 110.941 47.9743 110.957 47.9114 110.957H47.9137Z" fill="#C88248"/>
<path d="M62.9421 136.442C62.7672 136.442 62.6157 136.311 62.5947 136.132C61.9466 130.613 59.0766 129.968 56.0341 129.282C55.8126 129.233 55.5911 129.182 55.3696 129.131C54.6912 128.97 52.1965 128.891 50.3734 128.832C49.0631 128.79 48.3707 128.767 48.1585 128.727C48.0419 128.706 47.9417 128.627 47.8974 128.515C47.8508 128.406 47.8671 128.28 47.9347 128.182C47.972 128.128 48.8882 126.839 50.0073 126.436C50.2381 126.352 50.5039 126.261 50.7883 126.163C52.0776 125.72 53.8425 125.111 54.7611 124.463C55.1994 124.153 55.351 123.16 55.0805 122.337C54.936 121.899 54.5653 121.169 53.6817 121.169C53.67 121.169 53.6583 121.169 53.649 121.169C53.4648 121.169 53.3133 121.027 53.2993 120.842C53.2876 120.656 53.4229 120.493 53.607 120.472C54.2971 120.39 54.8614 119.658 54.9173 118.768C54.9476 118.304 54.8637 116.744 52.5766 116.175C52.4297 116.138 52.3224 116.009 52.3108 115.858C52.3014 115.706 52.39 115.564 52.5323 115.511C52.6092 115.48 54.4044 114.741 54.0757 112.899C53.7446 111.043 51.5274 110.927 47.9114 110.957H47.909C47.7179 110.957 47.5617 110.803 47.5593 110.61C47.5593 110.416 47.7132 110.26 47.9067 110.258C51.1963 110.232 54.3065 110.207 54.7658 112.776C55.0222 114.21 54.2692 115.2 53.5208 115.748C55.1504 116.429 55.6843 117.728 55.6167 118.809C55.5678 119.595 55.2064 120.295 54.6818 120.726C55.1621 120.999 55.5351 121.477 55.7426 122.118C56.069 123.118 55.9408 124.479 55.1621 125.032C54.1619 125.738 52.3411 126.366 51.0122 126.823C50.7301 126.92 50.4689 127.009 50.2405 127.091C49.7299 127.275 49.2449 127.723 48.9185 128.077C49.3242 128.096 49.8628 128.112 50.392 128.128C52.3457 128.191 54.7774 128.27 55.5258 128.445C55.7426 128.497 55.9618 128.546 56.1833 128.594C59.1815 129.268 62.5784 130.033 63.2848 136.046C63.3081 136.237 63.1706 136.412 62.977 136.435C62.9631 136.435 62.9491 136.435 62.9351 136.435L62.9421 136.442Z" fill="#C88248"/>
<path d="M46.6944 132.875C46.6944 132.875 46.6711 132.875 46.6617 132.875C46.4705 132.856 46.3283 132.686 46.347 132.493C46.5195 130.683 47.093 129.142 47.9603 128.154C48.0886 128.009 48.3077 127.995 48.4546 128.121C48.5991 128.249 48.6131 128.471 48.4872 128.615C47.7155 129.494 47.2026 130.893 47.0441 132.558C47.0278 132.74 46.8739 132.875 46.6967 132.875H46.6944Z" fill="#C88248"/>
<path d="M39.2036 129.478C39.1593 129.478 39.1127 129.469 39.0684 129.45C38.8912 129.375 38.8073 129.17 38.8819 128.993C40.3367 125.533 44.468 121.644 47.3846 120.992C50.2406 120.353 53.5279 120.465 53.6678 120.469C53.8613 120.476 54.0105 120.64 54.0035 120.831C53.9965 121.02 53.8403 121.167 53.6538 121.167C53.6491 121.167 53.6445 121.167 53.6398 121.167C53.6072 121.167 50.3035 121.052 47.5361 121.67C44.8503 122.272 40.8846 126.03 39.5253 129.259C39.4694 129.392 39.3388 129.473 39.2036 129.473V129.478Z" fill="#C88248"/>
<path d="M36.1563 123.54C36.0747 123.54 35.9908 123.512 35.9255 123.451C35.7809 123.323 35.767 123.102 35.8952 122.957C39.2874 119.115 42.4978 115.48 52.1149 115.48C52.2991 115.48 52.4833 115.48 52.6721 115.485C52.8656 115.487 53.0195 115.646 53.0172 115.839C53.0148 116.03 52.8586 116.184 52.6675 116.184H52.6628C42.9198 116.054 39.7677 119.628 36.4198 123.421C36.3498 123.498 36.2542 123.54 36.1586 123.54H36.1563Z" fill="#C88248"/>
<path d="M33.0952 117.933C33.0276 117.933 32.96 117.914 32.8994 117.872C32.7408 117.765 32.6989 117.546 32.8061 117.387C37.6322 110.276 43.7825 110.267 47.8532 110.26H47.9138C48.1073 110.26 48.2635 110.416 48.2635 110.61C48.2635 110.803 48.1073 110.96 47.9138 110.96H47.8532C43.9294 110.967 38.0005 110.976 33.382 117.779C33.3144 117.879 33.2048 117.933 33.0929 117.933H33.0952Z" fill="#C88248"/>
<path d="M176.175 181.536H163.872L167.465 212.652C167.465 212.652 169.528 215.519 176.177 215.519C182.826 215.519 184.89 212.652 184.89 212.652L188.482 181.536H176.179H176.175Z" fill="url(#paint33_linear_327_19501)"/>
<path d="M186.892 181.275L186.198 187.283L185.685 191.729L183.526 210.444C183.526 210.444 181.784 212.864 176.172 212.864C170.561 212.864 168.821 210.444 168.821 210.444L167.395 198.071L166.935 194.087L166.914 193.905L166.119 187.013L165.371 180.534L186.892 181.275Z" fill="url(#paint34_linear_327_19501)"/>
<path d="M188.478 180.937C188.478 181.611 188.426 182.276 188.326 182.924C184.659 183.733 180.535 184.187 176.175 184.187C171.815 184.187 167.688 183.733 164.023 182.924C163.923 182.276 163.872 181.611 163.872 180.937C163.872 180.816 163.874 180.69 163.876 180.569C164.065 173.738 169.5 168.264 176.175 168.264C182.85 168.264 188.284 173.738 188.473 180.569C188.475 180.69 188.478 180.816 188.478 180.937Z" fill="url(#paint35_linear_327_19501)"/>
<mask id="mask1_327_19501" style="mask-type:luminance" maskUnits="userSpaceOnUse" x="163" y="168" width="26" height="17">
<path d="M188.478 180.937C188.478 181.611 188.426 182.276 188.326 182.924C184.659 183.733 180.535 184.187 176.175 184.187C171.815 184.187 167.688 183.733 164.023 182.924C163.923 182.276 163.872 181.611 163.872 180.937C163.872 180.816 163.874 180.69 163.876 180.569C164.065 173.738 169.5 168.264 176.175 168.264C182.85 168.264 188.284 173.738 188.473 180.569C188.475 180.69 188.478 180.816 188.478 180.937Z" fill="white"/>
</mask>
<g mask="url(#mask1_327_19501)">
<path d="M166.355 184.229C166.161 184.229 166.005 184.073 166.005 183.88V179.97C166.005 179.776 166.161 179.62 166.355 179.62C166.548 179.62 166.705 179.776 166.705 179.97V183.88C166.705 184.073 166.548 184.229 166.355 184.229Z" fill="#C5DFE1"/>
<path d="M169.628 184.686C169.435 184.686 169.278 184.53 169.278 184.337V179.967C169.278 179.774 169.435 179.618 169.628 179.618C169.822 179.618 169.978 179.774 169.978 179.967V184.337C169.978 184.53 169.822 184.686 169.628 184.686Z" fill="#C5DFE1"/>
<path d="M172.901 184.952C172.708 184.952 172.552 184.796 172.552 184.602V179.97C172.552 179.776 172.708 179.62 172.901 179.62C173.095 179.62 173.251 179.776 173.251 179.97V184.602C173.251 184.796 173.095 184.952 172.901 184.952Z" fill="#C5DFE1"/>
<path d="M176.175 185.038C175.981 185.038 175.825 184.882 175.825 184.689V179.967C175.825 179.774 175.981 179.618 176.175 179.618C176.368 179.618 176.525 179.774 176.525 179.967V184.689C176.525 184.882 176.368 185.038 176.175 185.038Z" fill="#C5DFE1"/>
<path d="M179.45 184.952C179.257 184.952 179.101 184.796 179.101 184.602V179.97C179.101 179.776 179.257 179.62 179.45 179.62C179.644 179.62 179.8 179.776 179.8 179.97V184.602C179.8 184.796 179.644 184.952 179.45 184.952Z" fill="#C5DFE1"/>
<path d="M182.721 184.686C182.528 184.686 182.372 184.53 182.372 184.337V179.967C182.372 179.774 182.528 179.618 182.721 179.618C182.915 179.618 183.071 179.774 183.071 179.967V184.337C183.071 184.53 182.915 184.686 182.721 184.686Z" fill="#C5DFE1"/>
<path d="M185.995 184.229C185.801 184.229 185.645 184.073 185.645 183.88V179.97C185.645 179.776 185.801 179.62 185.995 179.62C186.188 179.62 186.344 179.776 186.344 179.97V183.88C186.344 184.073 186.188 184.229 185.995 184.229Z" fill="#C5DFE1"/>
</g>
<path d="M188.471 180.569C184.766 181.399 180.591 181.865 176.173 181.865C171.754 181.865 167.579 181.399 163.874 180.569C164.063 173.738 169.498 168.264 176.173 168.264C182.847 168.264 188.282 173.738 188.471 180.569Z" fill="url(#paint36_linear_327_19501)"/>
<path d="M181.474 195.224C181.474 195.224 171.915 200.971 167.399 198.071L166.94 194.087L166.919 193.905C169.808 192.172 176.242 191.613 181.476 195.224H181.474Z" fill="url(#paint37_linear_327_19501)"/>
<path d="M185.685 191.729L183.526 210.444C183.526 210.444 181.784 212.864 176.173 212.864C170.561 212.864 168.822 210.444 168.822 210.444L166.935 194.087C167.751 195.322 169.577 196.917 173.296 195.795C178.145 194.336 181.395 191.03 185.682 191.729H185.685Z" fill="url(#paint38_linear_327_19501)"/>
<path d="M158.484 175.279L157.624 181.126V181.152L155.98 192.326L155.416 196.171L154.089 205.198C154.089 205.198 153.161 206.315 150.462 207.436C147.766 208.555 143.297 209.679 136.217 209.698H136.058C121.897 209.663 118.185 205.198 118.185 205.198L116.297 192.326L114.651 181.126L113.793 175.279H158.482H158.484Z" fill="url(#paint39_linear_327_19501)"/>
<path d="M136.14 180.937C149.338 180.937 160.037 177.701 160.037 173.71C160.037 169.718 149.338 166.482 136.14 166.482C122.942 166.482 112.242 169.718 112.242 173.71C112.242 177.701 122.942 180.937 136.14 180.937Z" fill="url(#paint40_linear_327_19501)"/>
<path d="M136.14 178.988C148.467 178.988 158.461 176.625 158.461 173.71C158.461 170.795 148.467 168.432 136.14 168.432C123.812 168.432 113.818 170.795 113.818 173.71C113.818 176.625 123.812 178.988 136.14 178.988Z" fill="url(#paint41_linear_327_19501)"/>
<path d="M126.156 175.041C130.397 174.111 132.855 173.85 134.678 174.705C136.501 175.561 140.11 176.305 142.194 174.612C144.279 172.92 144.798 174.736 147.403 174.906C150.007 175.076 152.091 173.29 152.166 171.281C152.24 169.271 142.826 166.48 142.826 166.48C142.826 166.48 129.28 168.751 126.156 175.039V175.041Z" fill="url(#paint42_linear_327_19501)"/>
<path d="M146.507 165.655C148.566 163.468 152.024 162.934 153.548 167.713C155.073 172.493 153.14 174.377 152.329 174.095C151.226 173.71 152.031 172.271 150.657 172.09C149.284 171.908 148.785 171.019 148.55 168.833C148.314 166.646 146.51 165.655 146.51 165.655H146.507Z" fill="url(#paint43_linear_327_19501)"/>
<path d="M138.352 166.683C138.604 169.385 141.994 167.634 143.684 169.539C145.125 171.164 145.85 170.329 147.494 170.329C149.137 170.329 148.862 172.598 149.944 171.754C150.681 171.18 150.301 164.638 146.421 163.016C141.791 161.078 138.068 163.61 138.352 166.681V166.683Z" fill="url(#paint44_linear_327_19501)"/>
<path d="M157.624 181.126V181.152L155.98 192.326C150.629 194.917 143.705 196.479 136.14 196.479C128.574 196.479 121.647 194.917 116.299 192.326L114.653 181.126C120.186 184.222 127.772 186.132 136.14 186.132C144.507 186.132 152.091 184.222 157.624 181.126Z" fill="url(#paint45_linear_327_19501)"/>
<path d="M157.621 181.152L155.418 196.169C151.63 195.742 148.687 192.527 148.687 188.626C148.687 184.432 152.087 181.033 156.281 181.033C156.738 181.033 157.188 181.073 157.621 181.152Z" fill="url(#paint46_linear_327_19501)"/>
<path d="M123.298 177.391C120.444 177.673 118.409 175.899 118.202 172.999C117.994 170.099 123.797 166.657 126.49 165.499C129.183 164.338 139.77 164.354 141.15 165.562C142.339 166.601 141.241 170.213 134.603 172.171C126.665 174.514 127.488 176.979 123.298 177.391Z" fill="url(#paint47_linear_327_19501)"/>
<path d="M126.152 164.76C129.954 162.981 133.943 164.088 133.295 166.48C132.645 168.872 124.846 171.241 123.025 170.723C121.076 170.171 123.373 166.06 126.152 164.76Z" fill="url(#paint48_linear_327_19501)"/>
<path d="M171.146 153.97L174.661 153.362L183.645 205.319C183.741 205.877 183.368 206.41 182.807 206.507L181.316 206.765C180.758 206.861 180.225 206.488 180.128 205.927L171.144 153.97L171.146 153.97Z" fill="url(#paint49_linear_327_19501)"/>
<path d="M181.393 192.24C180.287 192.639 179.189 193.198 178.038 193.774L171.153 153.96L174.666 153.352L181.393 192.24Z" fill="url(#paint50_linear_327_19501)"/>
<path d="M176.175 168.264C175.317 168.264 174.48 168.355 173.671 168.525L171.153 153.96L174.666 153.352L177.254 168.313C176.9 168.28 176.541 168.266 176.175 168.266V168.264Z" fill="url(#paint51_linear_327_19501)"/>
<path d="M194.77 170.413C194.619 170.413 194.481 170.315 194.435 170.164C194.379 169.98 194.486 169.784 194.67 169.728L202.646 167.354C202.832 167.298 203.026 167.406 203.082 167.59C203.138 167.774 203.031 167.97 202.846 168.026L194.871 170.399C194.838 170.409 194.803 170.413 194.77 170.413Z" fill="#B58A2D"/>
<path d="M102.707 174.33C102.644 174.33 102.583 174.314 102.527 174.281C92.1409 168.073 77.3153 164.809 77.1661 164.776C76.9773 164.734 76.8584 164.55 76.898 164.361C76.94 164.172 77.1241 164.053 77.313 164.093C77.4599 164.125 91.8518 167.294 102.299 173.337C100.893 157.031 99.1235 137.47 99.1072 137.272C99.0908 137.079 99.2307 136.911 99.4242 136.892C99.6154 136.878 99.7856 137.016 99.8043 137.209C99.8229 137.41 101.639 157.513 103.054 173.95C103.066 174.081 103.003 174.206 102.891 174.276C102.835 174.311 102.77 174.33 102.705 174.33H102.707Z" fill="#B58A2D"/>
</g>
<defs>
<linearGradient id="paint0_linear_327_19501" x1="294.503" y1="148.092" x2="292.991" y2="141.413" gradientUnits="userSpaceOnUse">
<stop stop-color="#C88248"/>
<stop offset="1" stop-color="#D1A652"/>
</linearGradient>
<linearGradient id="paint1_linear_327_19501" x1="275.9" y1="148.927" x2="268.694" y2="140.598" gradientUnits="userSpaceOnUse">
<stop stop-color="#C88248"/>
<stop offset="1" stop-color="#D1A652"/>
</linearGradient>
<linearGradient id="paint2_linear_327_19501" x1="321.249" y1="175.488" x2="312.821" y2="171.592" gradientUnits="userSpaceOnUse">
<stop stop-color="#C88248"/>
<stop offset="1" stop-color="#D1A652"/>
</linearGradient>
<linearGradient id="paint3_linear_327_19501" x1="299.941" y1="182.867" x2="281.983" y2="165.592" gradientUnits="userSpaceOnUse">
<stop stop-color="#C88248"/>
<stop offset="1" stop-color="#D1A652"/>
</linearGradient>
<linearGradient id="paint4_linear_327_19501" x1="269.923" y1="197.223" x2="297.127" y2="185.822" gradientUnits="userSpaceOnUse">
<stop stop-color="#51813C"/>
<stop offset="1" stop-color="#A8C66E"/>
</linearGradient>
<linearGradient id="paint5_linear_327_19501" x1="250.149" y1="163.297" x2="281.152" y2="206.27" gradientUnits="userSpaceOnUse">
<stop stop-color="#DAE8C3"/>
<stop offset="1" stop-color="#A8C66E"/>
</linearGradient>
<linearGradient id="paint6_linear_327_19501" x1="98.9347" y1="165.109" x2="94.7825" y2="198.54" gradientUnits="userSpaceOnUse">
<stop stop-color="#D1A652"/>
<stop offset="1" stop-color="#B2752C"/>
</linearGradient>
<linearGradient id="paint7_linear_327_19501" x1="164.18" y1="137.398" x2="142.274" y2="170.362" gradientUnits="userSpaceOnUse">
<stop stop-color="#51BDB7"/>
<stop offset="1" stop-color="#308A84"/>
</linearGradient>
<linearGradient id="paint8_linear_327_19501" x1="202.424" y1="132.073" x2="145.055" y2="184.206" gradientUnits="userSpaceOnUse">
<stop stop-color="#F2CD62"/>
<stop offset="1" stop-color="#D1A652"/>
</linearGradient>
<linearGradient id="paint9_linear_327_19501" x1="211.414" y1="119.889" x2="176.228" y2="172.665" gradientUnits="userSpaceOnUse">
<stop stop-color="#F2CD62"/>
<stop offset="1" stop-color="#D1A652"/>
</linearGradient>
<linearGradient id="paint10_linear_327_19501" x1="193.943" y1="101.769" x2="207.668" y2="114.352" gradientUnits="userSpaceOnUse">
<stop stop-color="white"/>
<stop offset="1" stop-color="#DCF0F2"/>
</linearGradient>
<linearGradient id="paint11_linear_327_19501" x1="174.76" y1="41.9843" x2="176.194" y2="53.5809" gradientUnits="userSpaceOnUse">
<stop stop-color="#51813C"/>
<stop offset="1" stop-color="#A8C66E"/>
</linearGradient>
<linearGradient id="paint12_linear_327_19501" x1="117.388" y1="49.0765" x2="118.822" y2="60.6707" gradientUnits="userSpaceOnUse">
<stop stop-color="#51813C"/>
<stop offset="1" stop-color="#A8C66E"/>
</linearGradient>
<linearGradient id="paint13_linear_327_19501" x1="152.907" y1="42.5066" x2="147.034" y2="67.5088" gradientUnits="userSpaceOnUse">
<stop stop-color="#D1A652"/>
<stop offset="1" stop-color="#B2752C"/>
</linearGradient>
<linearGradient id="paint14_linear_327_19501" x1="245.337" y1="36.3236" x2="263.736" y2="70.2762" gradientUnits="userSpaceOnUse">
<stop stop-color="white"/>
<stop offset="1" stop-color="#DCF0F2"/>
</linearGradient>
<linearGradient id="paint15_linear_327_19501" x1="154.381" y1="18.6724" x2="148.746" y2="45.647" gradientUnits="userSpaceOnUse">
<stop stop-color="#DAE8C3"/>
<stop offset="1" stop-color="#A8C66E"/>
</linearGradient>
<linearGradient id="paint16_linear_327_19501" x1="149.196" y1="31.9639" x2="146.526" y2="40.9911" gradientUnits="userSpaceOnUse">
<stop stop-color="white"/>
<stop offset="1" stop-color="#DCF0F2"/>
</linearGradient>
<linearGradient id="paint17_linear_327_19501" x1="166.97" y1="97.1319" x2="156.903" y2="104.753" gradientUnits="userSpaceOnUse">
<stop stop-color="#F2CD62"/>
<stop offset="1" stop-color="#D1A652"/>
</linearGradient>
<linearGradient id="paint18_linear_327_19501" x1="67.0828" y1="85.8734" x2="53.5535" y2="73.1695" gradientUnits="userSpaceOnUse">
<stop stop-color="#51813C"/>
<stop offset="1" stop-color="#A8C66E"/>
</linearGradient>
<linearGradient id="paint19_linear_327_19501" x1="76.9424" y1="58.0478" x2="80.288" y2="61.9996" gradientUnits="userSpaceOnUse">
<stop stop-color="#EA4E4F"/>
<stop offset="1" stop-color="#D33232"/>
</linearGradient>
<linearGradient id="paint20_linear_327_19501" x1="53.374" y1="91.231" x2="50.94" y2="104.068" gradientUnits="userSpaceOnUse">
<stop stop-color="#E7E8EA"/>
<stop offset="1" stop-color="#D3D3D3"/>
</linearGradient>
<linearGradient id="paint21_linear_327_19501" x1="68.519" y1="115.401" x2="69.2743" y2="113.489" gradientUnits="userSpaceOnUse">
<stop stop-color="#C88248"/>
<stop offset="1" stop-color="#DD9127"/>
</linearGradient>
<linearGradient id="paint22_linear_327_19501" x1="70.6289" y1="109.593" x2="70.3771" y2="114.349" gradientUnits="userSpaceOnUse">
<stop stop-color="white"/>
<stop offset="1" stop-color="#DCF0F2"/>
</linearGradient>
<linearGradient id="paint23_linear_327_19501" x1="70.095" y1="107.691" x2="70.3118" y2="111.305" gradientUnits="userSpaceOnUse">
<stop stop-color="#EA4E4F"/>
<stop offset="1" stop-color="#D33232"/>
</linearGradient>
<linearGradient id="paint24_linear_327_19501" x1="269.089" y1="152.956" x2="275.174" y2="167.184" gradientUnits="userSpaceOnUse">
<stop stop-color="#DAE8C3"/>
<stop offset="1" stop-color="#A8C66E"/>
</linearGradient>
<linearGradient id="paint25_linear_327_19501" x1="270.926" y1="164.962" x2="274.519" y2="170.525" gradientUnits="userSpaceOnUse">
<stop stop-color="white"/>
<stop offset="1" stop-color="#DCF0F2"/>
</linearGradient>
<linearGradient id="paint26_linear_327_19501" x1="273.171" y1="198.225" x2="270.94" y2="180.504" gradientUnits="userSpaceOnUse">
<stop stop-color="#51813C"/>
<stop offset="1" stop-color="#A8C66E"/>
</linearGradient>
<linearGradient id="paint27_linear_327_19501" x1="267.93" y1="179.688" x2="271.665" y2="190.732" gradientUnits="userSpaceOnUse">
<stop stop-color="white"/>
<stop offset="1" stop-color="#DCF0F2"/>
</linearGradient>
<linearGradient id="paint28_linear_327_19501" x1="290.765" y1="45.246" x2="286.209" y2="32.4371" gradientUnits="userSpaceOnUse">
<stop stop-color="#51BDB7"/>
<stop offset="1" stop-color="#51BDB7"/>
</linearGradient>
<linearGradient id="paint29_linear_327_19501" x1="170.903" y1="195.238" x2="170.505" y2="224.563" gradientUnits="userSpaceOnUse">
<stop stop-color="white"/>
<stop offset="1" stop-color="#DCF0F2"/>
</linearGradient>
<linearGradient id="paint30_linear_327_19501" x1="95.5145" y1="98.4678" x2="107.064" y2="196.287" gradientUnits="userSpaceOnUse">
<stop stop-color="#F2CD62"/>
<stop offset="1" stop-color="#D1A652"/>
</linearGradient>
<linearGradient id="paint31_linear_327_19501" x1="76.4387" y1="127.83" x2="101.63" y2="147.306" gradientUnits="userSpaceOnUse">
<stop stop-color="#F2CD62"/>
<stop offset="1" stop-color="#D1A652"/>
</linearGradient>
<linearGradient id="paint32_linear_327_19501" x1="112.515" y1="94.0334" x2="127.098" y2="108.616" gradientUnits="userSpaceOnUse">
<stop stop-color="#F2CD62"/>
<stop offset="1" stop-color="#D1A652"/>
</linearGradient>
<linearGradient id="paint33_linear_327_19501" x1="233.309" y1="297.707" x2="252.872" y2="333.277" gradientUnits="userSpaceOnUse">
<stop stop-color="white"/>
<stop offset="1" stop-color="#DCF0F2"/>
</linearGradient>
<linearGradient id="paint34_linear_327_19501" x1="176.133" y1="192.879" x2="176.133" y2="180.781" gradientUnits="userSpaceOnUse">
<stop stop-color="white"/>
<stop offset="1" stop-color="#DCF0F2"/>
</linearGradient>
<linearGradient id="paint35_linear_327_19501" x1="176.175" y1="186.136" x2="176.175" y2="177.582" gradientUnits="userSpaceOnUse">
<stop stop-color="white"/>
<stop offset="1" stop-color="#DCF0F2"/>
</linearGradient>
<linearGradient id="paint36_linear_327_19501" x1="175.569" y1="180.497" x2="182.234" y2="166.755" gradientUnits="userSpaceOnUse">
<stop stop-color="white"/>
<stop offset="1" stop-color="#DCF0F2"/>
</linearGradient>
<linearGradient id="paint37_linear_327_19501" x1="174.762" y1="190.44" x2="174.126" y2="195.063" gradientUnits="userSpaceOnUse">
<stop stop-color="#D1A652"/>
<stop offset="1" stop-color="#B2752C"/>
</linearGradient>
<linearGradient id="paint38_linear_327_19501" x1="174.48" y1="198.069" x2="181.458" y2="205.671" gradientUnits="userSpaceOnUse">
<stop offset="0.04" stop-color="#654A1E"/>
<stop offset="1" stop-color="#2E1C12"/>
</linearGradient>
<linearGradient id="paint39_linear_327_19501" x1="119.253" y1="199.036" x2="155.672" y2="177.575" gradientUnits="userSpaceOnUse">
<stop stop-color="#E7E8EA"/>
<stop offset="1" stop-color="#D3D3D3"/>
</linearGradient>
<linearGradient id="paint40_linear_327_19501" x1="145.083" y1="197.483" x2="150.886" y2="212.913" gradientUnits="userSpaceOnUse">
<stop stop-color="#E7E8EA"/>
<stop offset="1" stop-color="#D3D3D3"/>
</linearGradient>
<linearGradient id="paint41_linear_327_19501" x1="137.317" y1="179.105" x2="136" y2="173.064" gradientUnits="userSpaceOnUse">
<stop stop-color="#C88248"/>
<stop offset="1" stop-color="#DD9127"/>
</linearGradient>
<linearGradient id="paint42_linear_327_19501" x1="138.767" y1="171.201" x2="139.909" y2="176.757" gradientUnits="userSpaceOnUse">
<stop stop-color="#EA4E4F"/>
<stop offset="1" stop-color="#D33232"/>
</linearGradient>
<linearGradient id="paint43_linear_327_19501" x1="148.417" y1="170.991" x2="152.194" y2="167.604" gradientUnits="userSpaceOnUse">
<stop stop-color="#51813C"/>
<stop offset="1" stop-color="#A8C66E"/>
</linearGradient>
<linearGradient id="paint44_linear_327_19501" x1="143.861" y1="164.102" x2="144.246" y2="167.758" gradientUnits="userSpaceOnUse">
<stop stop-color="#F9CAA2"/>
<stop offset="1" stop-color="#FBD6B9"/>
</linearGradient>
<linearGradient id="paint45_linear_327_19501" x1="117.003" y1="154.821" x2="135.946" y2="185.104" gradientUnits="userSpaceOnUse">
<stop stop-color="#E7E8EA"/>
<stop offset="1" stop-color="#D3D3D3"/>
</linearGradient>
<linearGradient id="paint46_linear_327_19501" x1="156.6" y1="183.812" x2="151.107" y2="192.9" gradientUnits="userSpaceOnUse">
<stop stop-color="white"/>
<stop offset="1" stop-color="#DCF0F2"/>
</linearGradient>
<linearGradient id="paint47_linear_327_19501" x1="130.083" y1="170.511" x2="133.284" y2="178.335" gradientUnits="userSpaceOnUse">
<stop stop-color="#FFF0DF"/>
<stop offset="1" stop-color="#EBDE74"/>
</linearGradient>
<linearGradient id="paint48_linear_327_19501" x1="126.926" y1="163.615" x2="127.681" y2="167.126" gradientUnits="userSpaceOnUse">
<stop stop-color="#FFF0DF"/>
<stop offset="1" stop-color="#EBDE74"/>
</linearGradient>
<linearGradient id="paint49_linear_327_19501" x1="176.98" y1="184.091" x2="175.201" y2="202.003" gradientUnits="userSpaceOnUse">
<stop offset="0.04" stop-color="#654A1E"/>
<stop offset="1" stop-color="#2E1C12"/>
</linearGradient>
<linearGradient id="paint50_linear_327_19501" x1="195.537" y1="152.711" x2="188.004" y2="160.684" gradientUnits="userSpaceOnUse">
<stop stop-color="white"/>
<stop offset="1" stop-color="#DCF0F2"/>
</linearGradient>
<linearGradient id="paint51_linear_327_19501" x1="180.751" y1="155.529" x2="159.61" y2="173.628" gradientUnits="userSpaceOnUse">
<stop stop-color="white"/>
<stop offset="1" stop-color="#DCF0F2"/>
</linearGradient>
<clipPath id="clip0_327_19501">
<rect width="331.219" height="233.49" fill="white" transform="translate(0.725708)"/>
</clipPath>
</defs>
</svg>
