<svg width="327" height="238" viewBox="0 0 327 238" fill="none" xmlns="http://www.w3.org/2000/svg">
<path d="M7.40492 128.263C-9.47551 153.934 -3.45897 211.815 89.5255 206.232C182.51 200.649 180.524 158.427 231.254 168.503C290.849 180.339 349.613 106.378 318.289 45.0227C287.736 -14.8338 198.699 -16.8311 150.18 50.0255C96.0044 124.672 34.378 87.2427 7.40492 128.263Z" fill="#F4EAC8"/>
<path d="M153.756 224.581L269.923 224.581V52.1174L153.756 52.1174V224.581Z" fill="url(#paint0_linear_327_19740)"/>
<path d="M256.221 70.2941H172.914V148.771H256.221V70.2941Z" fill="url(#paint1_linear_327_19740)"/>
<path d="M256.22 70.2941H242.26V148.771H256.22V70.2941Z" fill="url(#paint2_linear_327_19740)"/>
<path d="M172.914 101.682C172.738 101.682 172.567 101.63 172.421 101.532C172.275 101.434 172.162 101.295 172.095 101.132C172.029 100.97 172.012 100.791 172.048 100.619C172.083 100.447 172.169 100.29 172.294 100.166L188.93 83.8128C189.013 83.7313 189.111 83.6669 189.219 83.6233C189.326 83.5797 189.442 83.5578 189.558 83.5588C189.674 83.5597 189.789 83.5836 189.896 83.629C190.003 83.6743 190.1 83.7403 190.182 83.8232C190.263 83.9061 190.328 84.0042 190.371 84.1119C190.415 84.2197 190.437 84.3349 190.436 84.4512C190.435 84.5674 190.411 84.6823 190.365 84.7893C190.32 84.8963 190.254 84.9933 190.171 85.0748L173.535 101.428C173.37 101.592 173.146 101.683 172.914 101.682Z" fill="url(#paint3_linear_327_19740)"/>
<path d="M256.222 101.563C256.047 101.563 255.875 101.51 255.729 101.413C255.584 101.315 255.47 101.175 255.404 101.013C255.337 100.85 255.321 100.672 255.356 100.5C255.392 100.328 255.477 100.17 255.603 100.047L272.123 83.8071C272.206 83.7256 272.304 83.6612 272.412 83.6177C272.519 83.5741 272.635 83.5521 272.751 83.5531C272.867 83.5541 272.982 83.5779 273.089 83.6233C273.196 83.6687 273.293 83.7347 273.375 83.8175C273.456 83.9004 273.521 83.9985 273.564 84.1063C273.608 84.214 273.63 84.3293 273.629 84.4455C273.628 84.5617 273.604 84.6766 273.558 84.7836C273.513 84.8907 273.447 84.9877 273.364 85.0692L256.842 101.303C256.678 101.468 256.455 101.562 256.222 101.563Z" fill="url(#paint4_linear_327_19740)"/>
<path d="M183.368 134.814H182.4V131.697L183.368 132.229V134.814Z" fill="url(#paint5_linear_327_19740)"/>
<path d="M175.235 133.73H174.052V129.927L175.235 130.577V133.73Z" fill="url(#paint6_linear_327_19740)"/>
<path d="M177.223 134.113V134.409C177.223 134.635 177.133 134.853 176.973 135.013C176.812 135.173 176.595 135.263 176.368 135.263H172.914V133.258H176.368C176.595 133.258 176.812 133.348 176.973 133.509C177.133 133.669 177.223 133.886 177.223 134.113Z" fill="url(#paint7_linear_327_19740)"/>
<path d="M184.175 134.426H181.593C181.138 134.426 180.77 134.793 180.77 135.247C180.77 135.701 181.138 136.069 181.593 136.069H184.175C184.63 136.069 184.998 135.701 184.998 135.247C184.998 134.793 184.63 134.426 184.175 134.426Z" fill="url(#paint8_linear_327_19740)"/>
<path d="M178.538 136.038V148.771H172.914V134.393H176.893C177.329 134.393 177.748 134.567 178.056 134.875C178.365 135.184 178.538 135.602 178.538 136.038Z" fill="url(#paint9_linear_327_19740)"/>
<path d="M181.454 135.358H184.314C184.545 135.358 184.774 135.403 184.988 135.491C185.202 135.58 185.396 135.709 185.56 135.873C185.724 136.036 185.853 136.231 185.942 136.444C186.031 136.658 186.076 136.887 186.076 137.118V148.771H179.694V137.118C179.694 136.651 179.879 136.204 180.21 135.874C180.54 135.543 180.988 135.358 181.454 135.358Z" fill="url(#paint10_linear_327_19740)"/>
<path d="M153.85 224.666H81.9833V52.0227H153.85V224.666ZM82.1728 224.477H153.661V52.2122H82.1728V224.477Z" fill="#F59192"/>
<path d="M153.756 52.1175H82.0782V224.581H153.756V52.1175Z" fill="url(#paint11_linear_327_19740)"/>
<path d="M150.955 81.9368H146.293C145.042 81.9368 144.029 82.9506 144.029 84.2013V84.7375C144.029 85.9882 145.042 87.002 146.293 87.002H150.955C152.205 87.002 153.219 85.9882 153.219 84.7375V84.2013C153.219 82.9506 152.205 81.9368 150.955 81.9368Z" fill="url(#paint12_linear_327_19740)"/>
<path d="M130.421 102.986C140.648 102.986 148.939 94.6955 148.939 84.4684C148.939 74.2414 140.648 65.9508 130.421 65.9508C120.194 65.9508 111.903 74.2414 111.903 84.4684C111.903 94.6955 120.194 102.986 130.421 102.986Z" fill="url(#paint13_linear_327_19740)"/>
<path d="M153.756 224.581L269.923 224.581V170.038H153.756V224.581Z" fill="url(#paint14_linear_327_19740)"/>
<path d="M153.756 170.038H82.0782V224.581H153.756V170.038Z" fill="url(#paint15_linear_327_19740)"/>
<path d="M285.627 23.3517H66.3727V58.2799H285.627V23.3517Z" fill="url(#paint16_linear_327_19740)"/>
<path d="M252.247 53.1124C264.941 53.1124 275.231 42.822 275.231 30.1282C275.231 17.4345 264.941 7.1441 252.247 7.1441C239.553 7.1441 229.263 17.4345 229.263 30.1282C229.263 42.822 239.553 53.1124 252.247 53.1124Z" fill="url(#paint17_linear_327_19740)"/>
<path d="M153.754 23.3517H66.3727V58.2799H153.754V23.3517Z" fill="url(#paint18_linear_327_19740)"/>
<path d="M104.994 217.979L109.843 219.459L105.305 221.42C105.196 221.467 105.099 221.536 105.019 221.622C104.939 221.708 104.878 221.811 104.839 221.922C104.801 222.033 104.786 222.152 104.795 222.269C104.805 222.387 104.839 222.501 104.895 222.604L110.639 233.193C110.683 233.271 110.706 233.359 110.705 233.448C110.704 233.537 110.68 233.624 110.635 233.701C110.59 233.778 110.525 233.841 110.448 233.885C110.37 233.929 110.283 233.952 110.194 233.951H105.477C105.366 233.951 105.259 233.907 105.18 233.828C105.101 233.749 105.056 233.642 105.056 233.531C105.056 233.419 105.101 233.312 105.18 233.233C105.259 233.154 105.366 233.11 105.477 233.11H108.604C108.694 233.11 108.782 233.086 108.859 233.04C108.937 232.995 109.001 232.93 109.045 232.852C109.089 232.774 109.111 232.685 109.11 232.595C109.109 232.506 109.084 232.418 109.038 232.341L102.167 220.929L104.994 217.979Z" fill="url(#paint19_linear_327_19740)"/>
<path d="M99.9211 221.731L103.27 218.509H106.66L101.702 222.159C101.532 222.284 101.414 222.468 101.371 222.674C101.328 222.881 101.362 223.096 101.467 223.279L109.021 236.373C109.072 236.461 109.099 236.561 109.099 236.663C109.099 236.765 109.072 236.865 109.021 236.953C108.97 237.041 108.897 237.114 108.809 237.165C108.72 237.216 108.62 237.243 108.519 237.243H103.954C103.842 237.243 103.735 237.199 103.656 237.12C103.577 237.041 103.533 236.934 103.533 236.822C103.533 236.711 103.577 236.604 103.656 236.525C103.735 236.446 103.842 236.402 103.954 236.402H106.952C107.054 236.402 107.155 236.374 107.244 236.323C107.332 236.271 107.406 236.196 107.456 236.107C107.507 236.017 107.533 235.916 107.531 235.814C107.53 235.711 107.501 235.61 107.448 235.522L99.779 222.786C99.6804 222.62 99.6408 222.425 99.6666 222.234C99.6924 222.042 99.7821 221.865 99.9211 221.731Z" fill="url(#paint20_linear_327_19740)"/>
<path d="M53.733 237.249C63.4985 237.249 71.415 229.332 71.415 219.567C71.415 209.801 63.4985 201.885 53.733 201.885C43.9675 201.885 36.051 209.801 36.051 219.567C36.051 229.332 43.9675 237.249 53.733 237.249Z" fill="url(#paint21_linear_327_19740)"/>
<path d="M53.7332 229.839C59.4067 229.839 64.0059 225.24 64.0059 219.567C64.0059 213.893 59.4067 209.294 53.7332 209.294C48.0598 209.294 43.4606 213.893 43.4606 219.567C43.4606 225.24 48.0598 229.839 53.7332 229.839Z" fill="url(#paint22_linear_327_19740)"/>
<path d="M53.7331 224.806C56.6269 224.806 58.9727 222.461 58.9727 219.567C58.9727 216.673 56.6269 214.327 53.7331 214.327C50.8394 214.327 48.4935 216.673 48.4935 219.567C48.4935 222.461 50.8394 224.806 53.7331 224.806Z" fill="url(#paint23_linear_327_19740)"/>
<path d="M155.823 237.249C165.589 237.249 173.505 229.332 173.505 219.567C173.505 209.801 165.589 201.885 155.823 201.885C146.058 201.885 138.141 209.801 138.141 219.567C138.141 229.332 146.058 237.249 155.823 237.249Z" fill="url(#paint24_linear_327_19740)"/>
<path d="M155.823 229.839C161.496 229.839 166.096 225.24 166.096 219.567C166.096 213.893 161.496 209.294 155.823 209.294C150.15 209.294 145.55 213.893 145.55 219.567C145.55 225.24 150.15 229.839 155.823 229.839Z" fill="url(#paint25_linear_327_19740)"/>
<path d="M155.823 224.806C158.717 224.806 161.062 222.461 161.062 219.567C161.062 216.673 158.717 214.327 155.823 214.327C152.929 214.327 150.583 216.673 150.583 219.567C150.583 222.461 152.929 224.806 155.823 224.806Z" fill="url(#paint26_linear_327_19740)"/>
<path d="M25.0991 173.349L23.8674 174.363L42.4433 196.922L43.675 195.907L25.0991 173.349Z" fill="url(#paint27_linear_327_19740)"/>
<path d="M48.6149 150.855H18.9377V179.791H48.6149V150.855Z" fill="url(#paint28_linear_327_19740)"/>
<path d="M16.9897 178.965H51.4782V180.781H16.9897C16.8705 180.781 16.7524 180.757 16.6423 180.711C16.5322 180.666 16.4321 180.599 16.3478 180.515C16.2635 180.43 16.1967 180.33 16.1511 180.22C16.1054 180.11 16.082 179.992 16.082 179.873C16.082 179.754 16.1054 179.636 16.1511 179.525C16.1967 179.415 16.2635 179.315 16.3478 179.231C16.4321 179.147 16.5322 179.08 16.6423 179.034C16.7524 178.989 16.8705 178.965 16.9897 178.965Z" fill="url(#paint29_linear_327_19740)"/>
<path d="M134.224 160.076C137.391 160.737 139.932 159.24 140.142 154.994C140.352 150.747 138.541 149.599 135.825 149.565L134.224 160.076Z" fill="url(#paint30_linear_327_19740)"/>
<path d="M150.18 195.976C150.18 195.976 148.541 197.54 146.282 199.766C142.664 203.314 137.453 208.538 134.811 211.705C130.519 216.842 124.272 219.41 119.367 219.41C114.463 219.41 79.5825 219.789 77.9357 219.41C77.3199 219.266 75.8645 218.273 74.286 217.084C71.6331 215.093 68.6238 212.55 68.6238 212.55H29.5665C37.5917 192.565 50.5325 187.032 50.849 186.422C51.1654 185.812 51.7567 182.685 51.7567 182.685L52.8046 181.497L55.3078 180.796L97.0484 181.933V185.689C97.0484 186.536 96.605 186.536 93.1315 188.675C92.9437 188.791 92.7651 188.922 92.5971 189.065L92.4986 189.154C89.5709 191.807 88.9872 198.887 90.3478 202.4C91.8032 206.154 94.5869 208.495 97.2512 209.423C99.9155 210.352 101.532 209.948 102.985 209.948C104.439 209.948 103.59 210.516 109.686 210.516C115.782 210.516 117.184 210.949 122.424 208.572C128.541 205.8 132.979 196.094 133.477 193.644C133.478 193.64 133.478 193.636 133.477 193.632C133.964 191.195 133.747 187.282 133.377 185.863C133.007 184.444 127.044 167.722 125.818 164.345C124.592 160.969 124.474 158.869 124.474 158.869L123.836 155.661C128.439 151.278 131.094 149.548 132.174 149.178C133.254 148.809 136.055 148.657 136.458 148.657C136.862 148.657 137.349 149.415 137.55 149.917C137.751 150.419 138.137 153.804 137.633 155.78C137.197 157.486 135.702 160.349 135.298 160.787C134.895 161.224 133.025 160.904 132.846 160.904C132.668 160.904 131.635 161.677 131.635 161.677C131.9 163.27 132.364 164.824 133.017 166.301C133.017 166.309 133.017 166.316 133.017 166.324C135.433 171.963 140.07 177.714 142.346 180.798C145.258 184.745 147.021 184.9 148.019 187.582C149.018 190.263 150.18 195.976 150.18 195.976Z" fill="url(#paint31_linear_327_19740)"/>
<path d="M133.478 193.634C133.434 193.943 132.403 200.898 127.571 206.732C122.786 212.51 113.777 212.847 104.276 212.847C94.7746 212.847 90.3442 209.815 88.3582 203.372C86.395 196.998 89.2602 191.991 92.4969 189.145C89.5691 191.798 88.9855 198.877 90.3461 202.391C91.8014 206.145 94.5851 208.485 97.2495 209.414C99.9138 210.342 101.53 209.938 102.984 209.938C104.437 209.938 103.588 210.507 109.684 210.507C115.78 210.507 117.183 210.939 122.422 208.563C128.539 205.79 132.977 196.084 133.478 193.634Z" fill="url(#paint32_linear_327_19740)"/>
<path d="M150.18 195.976C150.18 195.976 148.541 197.54 146.282 199.766C142.664 203.314 137.453 208.538 134.811 211.705C130.519 216.842 124.272 219.41 119.367 219.41C114.463 219.41 79.5825 219.789 77.9357 219.41C77.3199 219.266 75.8645 218.273 74.286 217.084C85.2598 216.925 117.491 216.453 120.612 216.344C124.389 216.211 128.297 215.216 134.129 204.879C139.962 194.542 139.985 190.174 138.768 185.531C137.142 179.321 132.407 178.128 130.751 170.951C129.185 164.165 131.632 161.689 131.632 161.689C131.898 163.278 132.364 164.828 133.017 166.301C133.017 166.309 133.017 166.316 133.017 166.324C135.433 171.963 140.07 177.714 142.346 180.798C145.258 184.745 147.021 184.9 148.019 187.582C149.018 190.263 150.18 195.976 150.18 195.976Z" fill="url(#paint33_linear_327_19740)"/>
<path d="M150.18 195.976C150.18 195.976 148.54 197.54 146.282 199.766L141.734 199.166C146.318 191.787 142.999 188.254 139.571 181.243C136.251 174.451 133.22 166.801 133.034 166.331C135.45 171.971 140.087 177.722 142.363 180.805C145.275 184.752 147.038 184.908 148.036 187.589C149.035 190.271 150.18 195.976 150.18 195.976Z" fill="url(#paint34_linear_327_19740)"/>
<path d="M32.3617 214.676C32.3617 214.536 36.4454 200.714 48.7873 193.177C63.2915 184.322 83.5014 189.691 83.5014 201.515C83.5014 212.506 74.1951 214.684 74.1951 214.684L32.3617 214.676Z" fill="url(#paint35_linear_327_19740)"/>
<path d="M47.9213 171.239C47.9686 169.435 49.5604 169.344 50.8225 169.534C52.0845 169.723 58.5805 170.496 67.7825 171.127C76.9845 171.758 91.9301 172.962 94.3349 172.931C96.7396 172.901 99.0856 173.081 99.0856 176.153C99.0856 179.225 98.2139 182.679 96.6505 182.679H51.7567C51.5463 181.588 51.0121 180.586 50.2237 179.803C48.9294 178.55 47.7659 177.292 47.9213 171.239Z" fill="url(#paint36_linear_327_19740)"/>
<path d="M130.421 100.242C139.133 100.242 146.195 93.18 146.195 84.4684C146.195 75.7568 139.133 68.6947 130.421 68.6947C121.709 68.6947 114.647 75.7568 114.647 84.4684C114.647 93.18 121.709 100.242 130.421 100.242Z" fill="url(#paint37_linear_327_19740)"/>
<path d="M136.525 83.4073H124.315C124.164 83.4072 124.014 83.3724 123.878 83.3055C123.741 83.2386 123.622 83.1415 123.529 83.0215C123.437 82.9016 123.372 82.762 123.342 82.6134C123.311 82.4648 123.315 82.3111 123.353 82.1642C123.786 80.6232 124.711 79.266 125.987 78.2993C127.262 77.3326 128.819 76.8094 130.42 76.8094C132.021 76.8094 133.578 77.3326 134.853 78.2993C136.129 79.266 137.054 80.6232 137.487 82.1642C137.525 82.3111 137.529 82.4648 137.498 82.6134C137.468 82.762 137.403 82.9016 137.31 83.0215C137.218 83.1415 137.098 83.2386 136.962 83.3055C136.826 83.3724 136.676 83.4072 136.525 83.4073Z" fill="url(#paint38_linear_327_19740)"/>
<path d="M137.212 84.4723H123.629C122.864 84.4723 122.244 85.0924 122.244 85.8575C122.244 86.6225 122.864 87.2427 123.629 87.2427H137.212C137.977 87.2427 138.598 86.6225 138.598 85.8575C138.598 85.0924 137.977 84.4723 137.212 84.4723Z" fill="url(#paint39_linear_327_19740)"/>
<path d="M123.732 88.3058H137.122C137.122 89.3215 136.718 90.2956 136 91.0139C135.282 91.7321 134.308 92.1356 133.292 92.1356H127.556C126.541 92.1341 125.568 91.7299 124.851 91.0118C124.134 90.2938 123.732 89.3205 123.732 88.3058Z" fill="url(#paint40_linear_327_19740)"/>
<path d="M131.582 77.8058C131.582 77.8058 133.477 78.6377 132.964 79.0603C132.45 79.4828 131.582 77.8058 131.582 77.8058Z" fill="url(#paint41_linear_327_19740)"/>
<path d="M129.257 77.8058C129.257 77.8058 127.362 78.6377 127.876 79.0603C128.389 79.4828 129.257 77.8058 129.257 77.8058Z" fill="url(#paint42_linear_327_19740)"/>
<path d="M130.421 77.7583C130.421 77.7583 129.193 79.9451 130.421 79.9584H130.432C131.649 79.9451 130.423 77.7526 130.421 77.7583Z" fill="url(#paint43_linear_327_19740)"/>
<path d="M267.401 30.1283C267.451 32.1504 267.097 34.1621 266.358 36.045C265.619 37.928 264.511 39.644 263.099 41.092C261.686 42.5401 259.999 43.6908 258.135 44.4766C256.271 45.2623 254.269 45.6671 252.246 45.6671C250.223 45.6671 248.221 45.2623 246.357 44.4766C244.493 43.6908 242.805 42.5401 241.393 41.092C239.981 39.644 238.873 37.928 238.134 36.045C237.395 34.1621 237.04 32.1504 237.091 30.1283C237.091 29.8478 237.098 29.5693 237.114 29.2926C237.361 25.4484 239.063 21.8426 241.873 19.2078C244.683 16.5729 248.391 15.1067 252.243 15.1069C256.095 15.1072 259.803 16.5739 262.613 19.2091C265.422 21.8443 267.124 25.4503 267.371 29.2945C267.391 29.5699 267.401 29.8478 267.401 30.1283Z" fill="url(#paint44_linear_327_19740)"/>
<path d="M267.401 30.1283C267.451 32.1504 267.097 34.1621 266.358 36.045C265.619 37.928 264.511 39.644 263.099 41.092C261.686 42.54 259.999 43.6908 258.135 44.4765C256.271 45.2623 254.269 45.667 252.246 45.667C250.223 45.667 248.221 45.2623 246.357 44.4765C244.493 43.6908 242.805 42.54 241.393 41.092C239.981 39.644 238.873 37.928 238.134 36.045C237.395 34.1621 237.04 32.1504 237.091 30.1283C237.091 29.8478 237.098 29.5693 237.114 29.2926H267.371C267.391 29.5693 267.401 29.8478 267.401 30.1283Z" fill="url(#paint45_linear_327_19740)"/>
<path d="M265.837 33.181H238.654C237.604 33.181 236.753 34.0319 236.753 35.0816V35.0835C236.753 36.1332 237.604 36.9842 238.654 36.9842H265.837C266.887 36.9842 267.738 36.1332 267.738 35.0835V35.0816C267.738 34.0319 266.887 33.181 265.837 33.181Z" fill="url(#paint46_linear_327_19740)"/>
<path d="M266.749 27.8145H237.746C236.618 27.8145 235.704 28.7291 235.704 29.8573V29.8592C235.704 30.9874 236.618 31.9019 237.746 31.9019H266.749C267.877 31.9019 268.792 30.9874 268.792 29.8592V29.8573C268.792 28.7291 267.877 27.8145 266.749 27.8145Z" fill="url(#paint47_linear_327_19740)"/>
<path d="M266.878 31.7199C264.46 31.7199 264.663 29.8723 262.709 29.8723C260.624 29.8723 260.624 31.737 258.527 31.737C256.429 31.737 256.442 29.8723 254.346 29.8723C252.25 29.8723 252.262 31.737 250.166 31.737C248.07 31.737 248.082 29.8723 245.986 29.8723C243.89 29.8723 243.901 31.737 241.805 31.737C239.797 31.737 239.598 29.7889 237.748 29.8609H237.671C236.664 29.8609 235.713 30.6777 235.713 31.6858C235.713 32.6939 236.247 33.5088 237.64 33.5088C239.836 33.5088 239.861 35.3545 241.809 35.3545C243.894 35.3545 243.894 33.4898 245.989 33.4898C248.085 33.4898 248.074 35.3545 250.17 35.3545C252.266 35.3545 252.254 33.4898 254.352 33.4898C256.45 33.4898 256.436 35.3545 258.532 35.3545C260.628 35.3545 260.617 33.4898 262.713 33.4898C264.719 33.4898 264.92 35.4397 266.77 35.3658H266.847C267.854 35.3658 268.769 34.5396 268.769 33.5315C268.769 32.5234 268.271 31.7199 266.878 31.7199Z" fill="url(#paint48_linear_327_19740)"/>
<path d="M279.138 148.771H166.075C165.03 148.771 164.184 149.617 164.184 150.662V151.907C164.184 152.951 165.03 153.798 166.075 153.798H279.138C280.183 153.798 281.03 152.951 281.03 151.907V150.662C281.03 149.617 280.183 148.771 279.138 148.771Z" fill="url(#paint49_linear_327_19740)"/>
<path d="M166.075 148.771H199.845V153.794H166.075C165.572 153.794 165.09 153.595 164.735 153.239C164.38 152.884 164.18 152.402 164.18 151.899V150.654C164.183 150.154 164.384 149.675 164.739 149.322C165.094 148.969 165.574 148.771 166.075 148.771Z" fill="url(#paint50_linear_327_19740)"/>
<path d="M201.571 85.4311H172.914V70.2941H193.569C195.522 70.2941 197.395 71.0699 198.776 72.4509C200.157 73.8319 200.933 75.7049 200.933 77.6579V83.3618C200.928 84.1008 201.151 84.8232 201.571 85.4311Z" fill="url(#paint51_linear_327_19740)"/>
<path d="M236.952 148.771H220.019L225.012 125.203C225.167 124.471 225.569 123.816 226.15 123.345C226.731 122.874 227.456 122.618 228.203 122.618H242.495L236.952 148.771Z" fill="url(#paint52_linear_327_19740)"/>
<path d="M236.035 148.771H252.969L245.26 125.114C245.023 124.388 244.564 123.756 243.946 123.308C243.329 122.86 242.585 122.618 241.822 122.618H227.513L236.035 148.771Z" fill="url(#paint53_linear_327_19740)"/>
<path d="M242.317 128.547H234.282C234.207 128.547 234.135 128.518 234.081 128.464C234.028 128.411 233.998 128.339 233.998 128.263C233.998 128.188 234.028 128.116 234.081 128.062C234.135 128.009 234.207 127.979 234.282 127.979H242.317C242.392 127.979 242.465 128.009 242.518 128.062C242.571 128.116 242.601 128.188 242.601 128.263C242.601 128.339 242.571 128.411 242.518 128.464C242.465 128.518 242.392 128.547 242.317 128.547Z" fill="#C5E0E2"/>
<path d="M245.296 132.62H242.69C242.615 132.62 242.543 132.59 242.49 132.536C242.436 132.483 242.406 132.411 242.406 132.335C242.406 132.26 242.436 132.188 242.49 132.134C242.543 132.081 242.615 132.051 242.69 132.051H245.296C245.371 132.051 245.444 132.081 245.497 132.134C245.55 132.188 245.58 132.26 245.58 132.335C245.58 132.411 245.55 132.483 245.497 132.536C245.444 132.59 245.371 132.62 245.296 132.62Z" fill="#C5E0E2"/>
<path d="M240.123 132.62H232.785C232.71 132.62 232.638 132.59 232.584 132.536C232.531 132.483 232.501 132.411 232.501 132.335C232.501 132.26 232.531 132.188 232.584 132.134C232.638 132.081 232.71 132.051 232.785 132.051H240.123C240.198 132.051 240.27 132.081 240.324 132.134C240.377 132.188 240.407 132.26 240.407 132.335C240.407 132.411 240.377 132.483 240.324 132.536C240.27 132.59 240.198 132.62 240.123 132.62Z" fill="#C5E0E2"/>
<path d="M246.378 135.665H243.772C243.697 135.665 243.625 135.635 243.571 135.582C243.518 135.528 243.488 135.456 243.488 135.381C243.488 135.305 243.518 135.233 243.571 135.18C243.625 135.126 243.697 135.096 243.772 135.096H246.378C246.453 135.096 246.526 135.126 246.579 135.18C246.632 135.233 246.662 135.305 246.662 135.381C246.662 135.456 246.632 135.528 246.579 135.582C246.526 135.635 246.453 135.665 246.378 135.665Z" fill="#C5E0E2"/>
<path d="M241.205 135.665H233.867C233.792 135.665 233.72 135.635 233.667 135.582C233.613 135.528 233.583 135.456 233.583 135.381C233.583 135.305 233.613 135.233 233.667 135.18C233.72 135.126 233.792 135.096 233.867 135.096H241.205C241.28 135.096 241.353 135.126 241.406 135.18C241.459 135.233 241.489 135.305 241.489 135.381C241.489 135.456 241.459 135.528 241.406 135.582C241.353 135.635 241.28 135.665 241.205 135.665Z" fill="#C5E0E2"/>
<path d="M247.46 138.71H244.855C244.779 138.71 244.707 138.68 244.654 138.627C244.6 138.574 244.57 138.501 244.57 138.426C244.57 138.351 244.6 138.278 244.654 138.225C244.707 138.172 244.779 138.142 244.855 138.142H247.46C247.536 138.142 247.608 138.172 247.661 138.225C247.714 138.278 247.744 138.351 247.744 138.426C247.744 138.501 247.714 138.574 247.661 138.627C247.608 138.68 247.536 138.71 247.46 138.71Z" fill="#C5E0E2"/>
<path d="M242.287 138.71H234.949C234.874 138.71 234.802 138.68 234.748 138.627C234.695 138.574 234.665 138.501 234.665 138.426C234.665 138.351 234.695 138.278 234.748 138.225C234.802 138.172 234.874 138.142 234.949 138.142H242.287C242.362 138.142 242.434 138.172 242.488 138.225C242.541 138.278 242.571 138.351 242.571 138.426C242.571 138.501 242.541 138.574 242.488 138.627C242.434 138.68 242.362 138.71 242.287 138.71Z" fill="#C5E0E2"/>
<path d="M248.542 141.755H245.936C245.861 141.755 245.789 141.725 245.735 141.672C245.682 141.619 245.652 141.546 245.652 141.471C245.652 141.396 245.682 141.323 245.735 141.27C245.789 141.217 245.861 141.187 245.936 141.187H248.542C248.617 141.187 248.69 141.217 248.743 141.27C248.796 141.323 248.826 141.396 248.826 141.471C248.826 141.546 248.796 141.619 248.743 141.672C248.69 141.725 248.617 141.755 248.542 141.755Z" fill="#C5E0E2"/>
<path d="M243.369 141.755H236.032C235.956 141.755 235.884 141.725 235.831 141.672C235.777 141.619 235.747 141.546 235.747 141.471C235.747 141.396 235.777 141.323 235.831 141.27C235.884 141.217 235.956 141.187 236.032 141.187H243.369C243.444 141.187 243.517 141.217 243.57 141.27C243.623 141.323 243.653 141.396 243.653 141.471C243.653 141.546 243.623 141.619 243.57 141.672C243.517 141.725 243.444 141.755 243.369 141.755Z" fill="#C5E0E2"/>
<path d="M48.0768 145.047H19.4778C18.6259 145.047 17.9353 145.738 17.9353 146.589V151.287C17.9353 152.139 18.6259 152.83 19.4778 152.83H48.0768C48.9287 152.83 49.6193 152.139 49.6193 151.287V146.589C49.6193 145.738 48.9287 145.047 48.0768 145.047Z" fill="url(#paint54_linear_327_19740)"/>
<path d="M41.3722 164.993C41.3735 166.491 40.9318 167.956 40.1026 169.204C39.2735 170.451 38.094 171.426 36.7124 172.005C36.2776 172.187 35.8265 172.328 35.3651 172.426C34.3035 172.655 33.2052 172.655 32.1437 172.426C31.6829 172.324 31.2326 172.18 30.7982 171.995C29.5357 171.457 28.4426 170.587 27.6349 169.478C26.8273 168.368 26.3353 167.06 26.2113 165.693C26.0872 164.327 26.3358 162.952 26.9305 161.715C27.5252 160.478 28.4438 159.425 29.5888 158.669C30.7338 157.912 32.0624 157.48 33.4334 157.418C34.8044 157.356 36.1666 157.666 37.3754 158.316C38.5841 158.966 39.5941 159.931 40.2982 161.109C41.0023 162.288 41.3741 163.634 41.3741 165.007L41.3722 164.993Z" fill="url(#paint55_linear_327_19740)"/>
<path d="M33.0816 162.392V165.498C33.0819 165.661 33.0563 165.824 33.0058 165.979C32.9387 166.197 32.8261 166.398 32.6755 166.569C32.5249 166.74 32.3397 166.878 32.1322 166.972C32.0585 167.004 31.996 167.057 31.9525 167.124C31.9089 167.192 31.8864 167.271 31.8878 167.351L32.1417 172.407C31.681 172.305 31.2306 172.161 30.7963 171.977L31.0275 167.351C31.0292 167.27 31.0066 167.191 30.9626 167.123C30.9187 167.056 30.8555 167.003 30.7811 166.972C30.5742 166.878 30.3895 166.741 30.239 166.57C30.0885 166.4 29.9756 166.2 29.9075 165.983C29.857 165.827 29.8314 165.665 29.8317 165.501V162.396C29.8317 162.325 29.8597 162.258 29.9094 162.208C29.9592 162.158 30.0267 162.13 30.097 162.13C30.1674 162.13 30.2349 162.158 30.2846 162.208C30.3344 162.258 30.3623 162.325 30.3623 162.396V164.963C30.3623 165.074 30.4061 165.179 30.4841 165.257C30.5622 165.335 30.668 165.379 30.7783 165.379C30.8886 165.379 30.9944 165.335 31.0724 165.257C31.1504 165.179 31.1942 165.074 31.1942 164.963V162.865C31.1942 162.795 31.2222 162.728 31.2719 162.678C31.3217 162.628 31.3891 162.6 31.4595 162.6C31.5299 162.6 31.5973 162.628 31.6471 162.678C31.6969 162.728 31.7248 162.795 31.7248 162.865V164.963C31.7248 165.073 31.7683 165.178 31.8457 165.256C31.9231 165.334 32.0282 165.378 32.1379 165.378C32.1823 165.378 32.2264 165.371 32.2687 165.357C32.3513 165.33 32.4233 165.278 32.4743 165.207C32.5254 165.137 32.5529 165.052 32.5529 164.965V162.397C32.5529 162.327 32.5809 162.26 32.6306 162.21C32.6804 162.16 32.7478 162.132 32.8182 162.132C32.8886 162.132 32.956 162.16 33.0058 162.21C33.0556 162.26 33.0835 162.327 33.0835 162.397L33.0816 162.392Z" fill="url(#paint56_linear_327_19740)"/>
<path d="M37.7244 164.611C37.7244 165.67 37.3454 166.585 36.7769 167.019C36.6845 167.088 36.6101 167.178 36.5599 167.281C36.5098 167.385 36.4854 167.499 36.4889 167.614L36.7106 172.001C36.2757 172.183 35.8246 172.324 35.3633 172.422L35.6039 167.614C35.6081 167.499 35.5842 167.385 35.5344 167.281C35.4845 167.178 35.4102 167.088 35.3178 167.019C34.7607 166.585 34.3703 165.67 34.3703 164.611C34.3703 163.129 35.1188 161.929 36.0417 161.929C36.9645 161.929 37.7244 163.129 37.7244 164.611Z" fill="url(#paint57_linear_327_19740)"/>
<path d="M101.75 213.537V210.215C101.75 209.63 102.252 209.296 103.129 209.296H119.095C119.853 209.296 119.868 209.694 119.868 212.451C119.866 212.451 109.438 215.731 101.75 213.537Z" fill="url(#paint58_linear_327_19740)"/>
<path d="M64.7391 204.519H50.8565C50.4651 204.519 50.1478 204.836 50.1478 205.227C50.1478 205.617 50.4651 205.934 50.8565 205.934H64.7391C65.1305 205.934 65.4478 205.617 65.4478 205.227C65.4478 204.836 65.1305 204.519 64.7391 204.519Z" fill="url(#paint59_linear_327_19740)"/>
<path d="M63.2535 206.937H49.3709C48.9795 206.937 48.6622 207.254 48.6622 207.644C48.6622 208.035 48.9795 208.352 49.3709 208.352H63.2535C63.6449 208.352 63.9622 208.035 63.9622 207.644C63.9622 207.254 63.6449 206.937 63.2535 206.937Z" fill="url(#paint60_linear_327_19740)"/>
<path d="M61.7679 209.353H47.8853C47.4939 209.353 47.1766 209.67 47.1766 210.061C47.1766 210.452 47.4939 210.768 47.8853 210.768H61.7679C62.1593 210.768 62.4766 210.452 62.4766 210.061C62.4766 209.67 62.1593 209.353 61.7679 209.353Z" fill="url(#paint61_linear_327_19740)"/>
<path d="M132.659 218.358C132.659 218.358 139.807 218.509 150.851 212.957C161.894 207.405 168.832 205.603 172.402 205.881C170.843 197.308 158.055 191.464 147.623 195.311C133.862 200.39 132.659 218.358 132.659 218.358Z" fill="url(#paint62_linear_327_19740)"/>
<path d="M124.745 158.571C125.447 159.587 127.116 159.877 128.3 158.886C129.485 157.895 129.498 153.995 127.467 153.415C125.435 152.835 124.069 153.904 124.116 155.96C124.164 158.016 124.745 158.571 124.745 158.571Z" fill="url(#paint63_linear_327_19740)"/>
<path d="M121.02 156.875C121.02 156.875 124.306 155.124 124.999 154.742C126.593 153.874 128.479 157.177 127.014 158.209C125.776 159.081 122.941 160.572 122.941 160.572L121.02 156.875Z" fill="url(#paint64_linear_327_19740)"/>
<path d="M123.979 158.833C124.05 157.667 123.209 156.667 122.099 156.599C120.99 156.531 120.033 157.421 119.961 158.587C119.89 159.753 120.732 160.753 121.841 160.821C122.95 160.889 123.907 159.999 123.979 158.833Z" fill="url(#paint65_linear_327_19740)"/>
<path d="M149.508 187.52C149.418 187.082 148.99 186.8 148.552 186.89C148.115 186.98 147.833 187.408 147.923 187.846L149.323 194.656C149.413 195.094 149.841 195.376 150.279 195.285C150.716 195.195 150.998 194.768 150.908 194.33L149.508 187.52Z" fill="url(#paint66_linear_327_19740)"/>
<path d="M140.307 183.397C141.145 182.585 142.642 184.819 143.68 187.962C144.718 191.106 143.521 192.579 142.41 191.942C141.3 191.305 139.82 183.869 140.307 183.397Z" fill="url(#paint67_linear_327_19740)"/>
<path d="M138.533 152.117C139.047 152.159 139.784 153.43 139.513 155.369C139.242 157.307 138.262 157.891 137.95 157.412C137.806 157.19 138.421 155.926 138.45 154.744C138.482 153.37 137.972 152.072 138.533 152.117Z" fill="url(#paint68_linear_327_19740)"/>
<path d="M49.6778 149.525H17.8763C17.3907 149.525 16.9971 149.918 16.9971 150.404V150.406C16.9971 150.891 17.3907 151.285 17.8763 151.285H49.6778C50.1634 151.285 50.557 150.891 50.557 150.406V150.404C50.557 149.918 50.1634 149.525 49.6778 149.525Z" fill="url(#paint69_linear_327_19740)"/>
<path d="M216.439 75.7725V83.3524C216.445 84.0918 216.222 84.8149 215.802 85.4236C213.292 89.1017 204.082 89.1017 201.571 85.4236C201.151 84.8149 200.929 84.0918 200.935 83.3524V77.6485C200.935 75.6955 200.159 73.8225 198.778 72.4415C197.397 71.0605 195.524 70.2846 193.571 70.2846H213.76C215.355 71.2947 216.439 72.9963 216.439 75.7725Z" fill="url(#paint70_linear_327_19740)"/>
<path d="M231.935 75.7724V83.3523C231.94 84.0917 231.718 84.8149 231.298 85.4235C228.787 89.1017 219.577 89.1017 217.067 85.4235C216.647 84.8149 216.424 84.0917 216.43 83.3523V75.7724C216.43 72.9963 215.346 71.2946 213.749 70.2941H229.253C230.86 71.2946 231.935 72.9963 231.935 75.7724Z" fill="url(#paint71_linear_327_19740)"/>
<path d="M247.451 75.7724V83.3523C247.456 84.0917 247.234 84.8149 246.814 85.4235C244.301 89.1017 235.094 89.1017 232.583 85.4235C232.162 84.8151 231.939 84.0919 231.944 83.3523V75.7724C231.944 72.9963 230.86 71.2946 229.263 70.2941H244.769C246.365 71.2946 247.451 72.9963 247.451 75.7724Z" fill="url(#paint72_linear_327_19740)"/>
<path d="M262.955 75.7724V83.3523C262.961 84.0917 262.738 84.8149 262.319 85.4235C259.808 89.1017 250.598 89.1017 248.089 85.4235C247.669 84.8151 247.446 84.0919 247.451 83.3523V75.7724C247.451 72.9963 246.367 71.2946 244.769 70.2941H260.274C261.875 71.2946 262.955 72.9963 262.955 75.7724Z" fill="url(#paint73_linear_327_19740)"/>
<path d="M248.012 85.4841C247.743 85.1007 247.551 84.6699 247.443 84.2145C247.338 84.6691 247.149 85.0998 246.884 85.4841L246.727 85.378C247.135 84.7854 247.352 84.0816 247.348 83.3618H247.538C247.533 84.0817 247.75 84.7857 248.159 85.378L248.012 85.4841Z" fill="url(#paint74_linear_327_19740)"/>
<path d="M278.46 77.8247V83.3599C278.463 83.9629 278.316 84.5571 278.03 85.0881C277.968 85.2058 277.899 85.3197 277.823 85.4292C275.312 89.1073 266.103 89.1073 263.594 85.4292C263.173 84.8208 262.95 84.0976 262.955 83.358V75.7781C262.955 73.002 261.871 71.3003 260.274 70.2997H274.702C276.934 70.294 278.46 72.5888 278.46 77.8247Z" fill="url(#paint75_linear_327_19740)"/>
<path d="M278.124 85.5258H277.641L277.744 85.378C277.817 85.2714 277.884 85.1607 277.944 85.0464L278.123 84.7109L278.124 85.5258Z" fill="url(#paint76_linear_327_19740)"/>
<defs>
<linearGradient id="paint0_linear_327_19740" x1="251.174" y1="114.265" x2="131.63" y2="187.46" gradientUnits="userSpaceOnUse">
<stop stop-color="#FFF1E0"/>
<stop offset="1" stop-color="#ECDE74"/>
</linearGradient>
<linearGradient id="paint1_linear_327_19740" x1="235.171" y1="86.2308" x2="196.01" y2="130.524" gradientUnits="userSpaceOnUse">
<stop stop-color="#F3CE63"/>
<stop offset="0.04" stop-color="#F2CC62"/>
<stop offset="1" stop-color="#D2A651"/>
</linearGradient>
<linearGradient id="paint2_linear_327_19740" x1="278.746" y1="68.0485" x2="234.654" y2="130.043" gradientUnits="userSpaceOnUse">
<stop stop-color="#FFF1E0"/>
<stop offset="1" stop-color="#ECDE74"/>
</linearGradient>
<linearGradient id="paint3_linear_327_19740" x1="181.233" y1="89.4693" x2="181.233" y2="102.55" gradientUnits="userSpaceOnUse">
<stop stop-color="#51823B"/>
<stop offset="1" stop-color="#AAC76F"/>
</linearGradient>
<linearGradient id="paint4_linear_327_19740" x1="264.482" y1="89.4693" x2="264.482" y2="102.55" gradientUnits="userSpaceOnUse">
<stop stop-color="#51823B"/>
<stop offset="1" stop-color="#AAC76F"/>
</linearGradient>
<linearGradient id="paint5_linear_327_19740" x1="182.741" y1="132.644" x2="182.927" y2="133.783" gradientUnits="userSpaceOnUse">
<stop stop-color="white"/>
<stop offset="1" stop-color="#DDF1F3"/>
</linearGradient>
<linearGradient id="paint6_linear_327_19740" x1="174.846" y1="131.504" x2="174.327" y2="132.337" gradientUnits="userSpaceOnUse">
<stop stop-color="white"/>
<stop offset="1" stop-color="#DDF1F3"/>
</linearGradient>
<linearGradient id="paint7_linear_327_19740" x1="175.231" y1="133.099" x2="174.956" y2="134.418" gradientUnits="userSpaceOnUse">
<stop stop-color="white"/>
<stop offset="1" stop-color="#DDF1F3"/>
</linearGradient>
<linearGradient id="paint8_linear_327_19740" x1="183.116" y1="134.013" x2="182.896" y2="135.186" gradientUnits="userSpaceOnUse">
<stop stop-color="white"/>
<stop offset="1" stop-color="#DDF1F3"/>
</linearGradient>
<linearGradient id="paint9_linear_327_19740" x1="177.763" y1="137.88" x2="171.373" y2="149.489" gradientUnits="userSpaceOnUse">
<stop stop-color="#E94E4E"/>
<stop offset="1" stop-color="#D33332"/>
</linearGradient>
<linearGradient id="paint10_linear_327_19740" x1="185.796" y1="134.918" x2="180.882" y2="148.195" gradientUnits="userSpaceOnUse">
<stop stop-color="#ECDE74"/>
<stop offset="1" stop-color="#EDC34D"/>
</linearGradient>
<linearGradient id="paint11_linear_327_19740" x1="122.498" y1="145.352" x2="90.4048" y2="96.2912" gradientUnits="userSpaceOnUse">
<stop stop-color="#ECDE74"/>
<stop offset="1" stop-color="#EDC34D"/>
</linearGradient>
<linearGradient id="paint12_linear_327_19740" x1="148.647" y1="84.4931" x2="151.495" y2="87.5061" gradientUnits="userSpaceOnUse">
<stop stop-color="#E8E8EB"/>
<stop offset="1" stop-color="#D3D3D3"/>
</linearGradient>
<linearGradient id="paint13_linear_327_19740" x1="111.901" y1="84.4685" x2="148.939" y2="84.4685" gradientUnits="userSpaceOnUse">
<stop stop-color="#E8E8EB"/>
<stop offset="1" stop-color="#D3D3D3"/>
</linearGradient>
<linearGradient id="paint14_linear_327_19740" x1="212.801" y1="198.335" x2="266.29" y2="255.465" gradientUnits="userSpaceOnUse">
<stop stop-color="#F3CE63"/>
<stop offset="0.04" stop-color="#F2CC62"/>
<stop offset="1" stop-color="#D2A651"/>
</linearGradient>
<linearGradient id="paint15_linear_327_19740" x1="92.9213" y1="233.969" x2="140.718" y2="163.866" gradientUnits="userSpaceOnUse">
<stop stop-color="#F3CE63"/>
<stop offset="1" stop-color="#D2A651"/>
</linearGradient>
<linearGradient id="paint16_linear_327_19740" x1="163.35" y1="2.86705" x2="196.076" y2="101.042" gradientUnits="userSpaceOnUse">
<stop stop-color="#F3CE63"/>
<stop offset="1" stop-color="#D2A651"/>
</linearGradient>
<linearGradient id="paint17_linear_327_19740" x1="253.026" y1="32.7983" x2="256.34" y2="44.1605" gradientUnits="userSpaceOnUse">
<stop stop-color="#E8E8EB"/>
<stop offset="1" stop-color="#D3D3D3"/>
</linearGradient>
<linearGradient id="paint18_linear_327_19740" x1="74.9247" y1="16.67" x2="123.375" y2="49.9628" gradientUnits="userSpaceOnUse">
<stop stop-color="#C98348"/>
<stop offset="1" stop-color="#D2A651"/>
</linearGradient>
<linearGradient id="paint19_linear_327_19740" x1="104.668" y1="212.389" x2="105.938" y2="219.805" gradientUnits="userSpaceOnUse">
<stop offset="0.04" stop-color="#654B1E"/>
<stop offset="1" stop-color="#2E1D12"/>
</linearGradient>
<linearGradient id="paint20_linear_327_19740" x1="107.493" y1="219.661" x2="100.452" y2="241.865" gradientUnits="userSpaceOnUse">
<stop offset="0.04" stop-color="#654B1E"/>
<stop offset="1" stop-color="#2E1D12"/>
</linearGradient>
<linearGradient id="paint21_linear_327_19740" x1="50.0359" y1="208.242" x2="60.0054" y2="238.788" gradientUnits="userSpaceOnUse">
<stop offset="0.04" stop-color="#654B1E"/>
<stop offset="1" stop-color="#2E1D12"/>
</linearGradient>
<linearGradient id="paint22_linear_327_19740" x1="55.7741" y1="214.517" x2="51.0101" y2="226.309" gradientUnits="userSpaceOnUse">
<stop stop-color="#E8E8EB"/>
<stop offset="1" stop-color="#D3D3D3"/>
</linearGradient>
<linearGradient id="paint23_linear_327_19740" x1="56.2951" y1="214.443" x2="53.4053" y2="220.221" gradientUnits="userSpaceOnUse">
<stop stop-color="#52BEB8"/>
<stop offset="1" stop-color="#308B85"/>
</linearGradient>
<linearGradient id="paint24_linear_327_19740" x1="152.128" y1="208.242" x2="162.097" y2="238.788" gradientUnits="userSpaceOnUse">
<stop offset="0.04" stop-color="#654B1E"/>
<stop offset="1" stop-color="#2E1D12"/>
</linearGradient>
<linearGradient id="paint25_linear_327_19740" x1="157.864" y1="214.517" x2="153.1" y2="226.309" gradientUnits="userSpaceOnUse">
<stop stop-color="#E8E8EB"/>
<stop offset="1" stop-color="#D3D3D3"/>
</linearGradient>
<linearGradient id="paint26_linear_327_19740" x1="158.387" y1="214.443" x2="155.497" y2="220.221" gradientUnits="userSpaceOnUse">
<stop stop-color="#52BEB8"/>
<stop offset="1" stop-color="#308B85"/>
</linearGradient>
<linearGradient id="paint27_linear_327_19740" x1="31.9488" y1="176.368" x2="35.5739" y2="193.69" gradientUnits="userSpaceOnUse">
<stop stop-color="#AAC76F"/>
<stop offset="1" stop-color="#51823B"/>
</linearGradient>
<linearGradient id="paint28_linear_327_19740" x1="29.9551" y1="156.65" x2="41.7646" y2="183.452" gradientUnits="userSpaceOnUse">
<stop stop-color="#AAC76F"/>
<stop offset="1" stop-color="#51823B"/>
</linearGradient>
<linearGradient id="paint29_linear_327_19740" x1="28.5357" y1="170.557" x2="35.3369" y2="182.215" gradientUnits="userSpaceOnUse">
<stop stop-color="#DBE8C4"/>
<stop offset="1" stop-color="#AAC76F"/>
</linearGradient>
<linearGradient id="paint30_linear_327_19740" x1="137.904" y1="153.336" x2="134.637" y2="158.643" gradientUnits="userSpaceOnUse">
<stop stop-color="#E8E8EB"/>
<stop offset="1" stop-color="#D3D3D3"/>
</linearGradient>
<linearGradient id="paint31_linear_327_19740" x1="96.4894" y1="172.59" x2="88.4737" y2="210.952" gradientUnits="userSpaceOnUse">
<stop stop-color="#52BEB8"/>
<stop offset="1" stop-color="#308B85"/>
</linearGradient>
<linearGradient id="paint32_linear_327_19740" x1="110.611" y1="195.933" x2="98.7105" y2="229.318" gradientUnits="userSpaceOnUse">
<stop stop-color="#52BEB8"/>
<stop offset="1" stop-color="#308B85"/>
</linearGradient>
<linearGradient id="paint33_linear_327_19740" x1="106.573" y1="191.703" x2="147.927" y2="217.115" gradientUnits="userSpaceOnUse">
<stop stop-color="#52BEB8"/>
<stop offset="1" stop-color="#308B85"/>
</linearGradient>
<linearGradient id="paint34_linear_327_19740" x1="142.071" y1="186.437" x2="143.2" y2="199.249" gradientUnits="userSpaceOnUse">
<stop stop-color="#52BEB8"/>
<stop offset="1" stop-color="#308B85"/>
</linearGradient>
<linearGradient id="paint35_linear_327_19740" x1="60.5191" y1="189.823" x2="56.4487" y2="219.55" gradientUnits="userSpaceOnUse">
<stop stop-color="#52BEB8"/>
<stop offset="1" stop-color="#308B85"/>
</linearGradient>
<linearGradient id="paint36_linear_327_19740" x1="73.2457" y1="170.144" x2="73.9582" y2="182.698" gradientUnits="userSpaceOnUse">
<stop offset="0.04" stop-color="#654B1E"/>
<stop offset="1" stop-color="#2E1D12"/>
</linearGradient>
<linearGradient id="paint37_linear_327_19740" x1="123.031" y1="72.9963" x2="134.692" y2="91.1027" gradientUnits="userSpaceOnUse">
<stop stop-color="#E8E8EB"/>
<stop offset="1" stop-color="#D3D3D3"/>
</linearGradient>
<linearGradient id="paint38_linear_327_19740" x1="129.134" y1="80.4094" x2="136.642" y2="89.6834" gradientUnits="userSpaceOnUse">
<stop stop-color="#AAC76F"/>
<stop offset="1" stop-color="#51823B"/>
</linearGradient>
<linearGradient id="paint39_linear_327_19740" x1="128.679" y1="81.7397" x2="131.732" y2="88.9596" gradientUnits="userSpaceOnUse">
<stop stop-color="#AAC76F"/>
<stop offset="1" stop-color="#51823B"/>
</linearGradient>
<linearGradient id="paint40_linear_327_19740" x1="130.535" y1="89.0979" x2="134.508" y2="94.3963" gradientUnits="userSpaceOnUse">
<stop stop-color="#AAC76F"/>
<stop offset="1" stop-color="#51823B"/>
</linearGradient>
<linearGradient id="paint41_linear_327_19740" x1="132.318" y1="74.6601" x2="132.318" y2="81.6943" gradientUnits="userSpaceOnUse">
<stop stop-color="#AAC76F"/>
<stop offset="1" stop-color="#51823B"/>
</linearGradient>
<linearGradient id="paint42_linear_327_19740" x1="128.522" y1="74.6601" x2="128.522" y2="81.6943" gradientUnits="userSpaceOnUse">
<stop stop-color="#AAC76F"/>
<stop offset="1" stop-color="#51823B"/>
</linearGradient>
<linearGradient id="paint43_linear_327_19740" x1="130.421" y1="74.66" x2="130.421" y2="81.6942" gradientUnits="userSpaceOnUse">
<stop stop-color="#AAC76F"/>
<stop offset="1" stop-color="#51823B"/>
</linearGradient>
<linearGradient id="paint44_linear_327_19740" x1="249.359" y1="18.4003" x2="253.956" y2="37.0753" gradientUnits="userSpaceOnUse">
<stop stop-color="#AAC76F"/>
<stop offset="1" stop-color="#51823B"/>
</linearGradient>
<linearGradient id="paint45_linear_327_19740" x1="251.737" y1="31.9759" x2="262" y2="43.7645" gradientUnits="userSpaceOnUse">
<stop stop-color="#AAC76F"/>
<stop offset="1" stop-color="#51823B"/>
</linearGradient>
<linearGradient id="paint46_linear_327_19740" x1="252.061" y1="32.8342" x2="252.571" y2="39.027" gradientUnits="userSpaceOnUse">
<stop stop-color="#DBE8C4"/>
<stop offset="1" stop-color="#AAC76F"/>
</linearGradient>
<linearGradient id="paint47_linear_327_19740" x1="251.599" y1="24.7882" x2="252.633" y2="32.8835" gradientUnits="userSpaceOnUse">
<stop stop-color="#DBE8C4"/>
<stop offset="1" stop-color="#AAC76F"/>
</linearGradient>
<linearGradient id="paint48_linear_327_19740" x1="251.345" y1="28.6406" x2="253.406" y2="37.6966" gradientUnits="userSpaceOnUse">
<stop stop-color="#AAC76F"/>
<stop offset="1" stop-color="#51823B"/>
</linearGradient>
<linearGradient id="paint49_linear_327_19740" x1="226.958" y1="139.034" x2="203.802" y2="204.221" gradientUnits="userSpaceOnUse">
<stop stop-color="#AAC76F"/>
<stop offset="1" stop-color="#51823B"/>
</linearGradient>
<linearGradient id="paint50_linear_327_19740" x1="196.451" y1="125.311" x2="181.066" y2="153.743" gradientUnits="userSpaceOnUse">
<stop stop-color="#AAC76F"/>
<stop offset="1" stop-color="#51823B"/>
</linearGradient>
<linearGradient id="paint51_linear_327_19740" x1="194.374" y1="68.1755" x2="185.65" y2="80.0285" gradientUnits="userSpaceOnUse">
<stop stop-color="#DBE8C4"/>
<stop offset="1" stop-color="#AAC76F"/>
</linearGradient>
<linearGradient id="paint52_linear_327_19740" x1="223.779" y1="141.606" x2="230.233" y2="136.995" gradientUnits="userSpaceOnUse">
<stop stop-color="white"/>
<stop offset="1" stop-color="#DDF1F3"/>
</linearGradient>
<linearGradient id="paint53_linear_327_19740" x1="241.381" y1="134.6" x2="219.973" y2="155.143" gradientUnits="userSpaceOnUse">
<stop stop-color="white"/>
<stop offset="1" stop-color="#DDF1F3"/>
</linearGradient>
<linearGradient id="paint54_linear_327_19740" x1="32.1647" y1="142.354" x2="35.8618" y2="157.45" gradientUnits="userSpaceOnUse">
<stop stop-color="#DBE8C4"/>
<stop offset="1" stop-color="#AAC76F"/>
</linearGradient>
<linearGradient id="paint55_linear_327_19740" x1="32.4829" y1="162.221" x2="36.269" y2="170.334" gradientUnits="userSpaceOnUse">
<stop stop-color="#DBE8C4"/>
<stop offset="1" stop-color="#AAC76F"/>
</linearGradient>
<linearGradient id="paint56_linear_327_19740" x1="30.4419" y1="164.887" x2="38.0218" y2="176.316" gradientUnits="userSpaceOnUse">
<stop stop-color="#AAC76F"/>
<stop offset="1" stop-color="#51823B"/>
</linearGradient>
<linearGradient id="paint57_linear_327_19740" x1="33.275" y1="163.008" x2="40.8568" y2="174.436" gradientUnits="userSpaceOnUse">
<stop stop-color="#AAC76F"/>
<stop offset="1" stop-color="#51823B"/>
</linearGradient>
<linearGradient id="paint58_linear_327_19740" x1="110.196" y1="209.415" x2="111.488" y2="214.672" gradientUnits="userSpaceOnUse">
<stop offset="0.04" stop-color="#654B1E"/>
<stop offset="1" stop-color="#2E1D12"/>
</linearGradient>
<linearGradient id="paint59_linear_327_19740" x1="78.5686" y1="187.04" x2="63.261" y2="200.443" gradientUnits="userSpaceOnUse">
<stop stop-color="#52BEB8"/>
<stop offset="1" stop-color="#308B85"/>
</linearGradient>
<linearGradient id="paint60_linear_327_19740" x1="79.1239" y1="187.672" x2="63.8161" y2="201.075" gradientUnits="userSpaceOnUse">
<stop stop-color="#52BEB8"/>
<stop offset="1" stop-color="#308B85"/>
</linearGradient>
<linearGradient id="paint61_linear_327_19740" x1="79.6773" y1="188.305" x2="64.3695" y2="201.706" gradientUnits="userSpaceOnUse">
<stop stop-color="#52BEB8"/>
<stop offset="1" stop-color="#308B85"/>
</linearGradient>
<linearGradient id="paint62_linear_327_19740" x1="145.042" y1="200.433" x2="152.901" y2="211.835" gradientUnits="userSpaceOnUse">
<stop stop-color="#52BEB8"/>
<stop offset="1" stop-color="#308B85"/>
</linearGradient>
<linearGradient id="paint63_linear_327_19740" x1="127.317" y1="154.503" x2="126.074" y2="157.62" gradientUnits="userSpaceOnUse">
<stop stop-color="#E8E8EB"/>
<stop offset="1" stop-color="#D3D3D3"/>
</linearGradient>
<linearGradient id="paint64_linear_327_19740" x1="123.777" y1="155.604" x2="125.441" y2="159.295" gradientUnits="userSpaceOnUse">
<stop offset="0.04" stop-color="#654B1E"/>
<stop offset="1" stop-color="#2E1D12"/>
</linearGradient>
<linearGradient id="paint65_linear_327_19740" x1="119.634" y1="161.348" x2="123.44" y2="157.044" gradientUnits="userSpaceOnUse">
<stop offset="0.04" stop-color="#654B1E"/>
<stop offset="1" stop-color="#2E1D12"/>
</linearGradient>
<linearGradient id="paint66_linear_327_19740" x1="150.739" y1="188.865" x2="148.946" y2="193.597" gradientUnits="userSpaceOnUse">
<stop offset="0.04" stop-color="#654B1E"/>
<stop offset="1" stop-color="#2E1D12"/>
</linearGradient>
<linearGradient id="paint67_linear_327_19740" x1="142.525" y1="186.09" x2="140.815" y2="190.951" gradientUnits="userSpaceOnUse">
<stop stop-color="#E8E8EB"/>
<stop offset="1" stop-color="#D3D3D3"/>
</linearGradient>
<linearGradient id="paint68_linear_327_19740" x1="141.656" y1="150.444" x2="137.061" y2="156.817" gradientUnits="userSpaceOnUse">
<stop stop-color="white"/>
<stop offset="1" stop-color="#DDF1F3"/>
</linearGradient>
<linearGradient id="paint69_linear_327_19740" x1="33.165" y1="148.208" x2="36.1666" y2="158.988" gradientUnits="userSpaceOnUse">
<stop stop-color="#AAC76F"/>
<stop offset="1" stop-color="#51823B"/>
</linearGradient>
<linearGradient id="paint70_linear_327_19740" x1="210.654" y1="70.169" x2="197.474" y2="87.1745" gradientUnits="userSpaceOnUse">
<stop stop-color="#AAC76F"/>
<stop offset="1" stop-color="#51823B"/>
</linearGradient>
<linearGradient id="paint71_linear_327_19740" x1="229.033" y1="66.2293" x2="219.18" y2="83.8867" gradientUnits="userSpaceOnUse">
<stop stop-color="#DBE8C4"/>
<stop offset="1" stop-color="#AAC76F"/>
</linearGradient>
<linearGradient id="paint72_linear_327_19740" x1="243.46" y1="72.5718" x2="229.824" y2="86.0129" gradientUnits="userSpaceOnUse">
<stop stop-color="#AAC76F"/>
<stop offset="1" stop-color="#51823B"/>
</linearGradient>
<linearGradient id="paint73_linear_327_19740" x1="264.179" y1="67.0158" x2="247.879" y2="83.7067" gradientUnits="userSpaceOnUse">
<stop stop-color="#DBE8C4"/>
<stop offset="1" stop-color="#AAC76F"/>
</linearGradient>
<linearGradient id="paint74_linear_327_19740" x1="247.473" y1="85.5523" x2="247.199" y2="83.3807" gradientUnits="userSpaceOnUse">
<stop stop-color="#C98348"/>
<stop offset="1" stop-color="#D2A651"/>
</linearGradient>
<linearGradient id="paint75_linear_327_19740" x1="274.287" y1="71.9806" x2="260.179" y2="87.887" gradientUnits="userSpaceOnUse">
<stop stop-color="#AAC76F"/>
<stop offset="1" stop-color="#51823B"/>
</linearGradient>
<linearGradient id="paint76_linear_327_19740" x1="277.937" y1="85.5485" x2="277.836" y2="84.745" gradientUnits="userSpaceOnUse">
<stop stop-color="#C98348"/>
<stop offset="1" stop-color="#D2A651"/>
</linearGradient>
</defs>
</svg>
