<svg width="105" height="100" viewBox="0 0 105 100" fill="none" xmlns="http://www.w3.org/2000/svg">
<path d="M53.1751 100C80.8432 100 103.24 77.6045 103.24 50C103.24 22.3677 80.8153 0 53.1751 0C25.5349 0 3.11035 22.3677 3.11035 49.9721C3.11035 77.6045 25.5349 100 53.1751 100Z" fill="url(#paint0_linear_1198_27170)" fill-opacity="0.2"/>
<path d="M11.8696 0.98414C12.071 0.130612 13.2795 0.130612 13.4809 0.98414L14.1606 3.82086C14.2362 4.12211 14.4628 4.34804 14.7649 4.42335L17.6098 5.10115C18.4658 5.30198 18.4658 6.50696 17.6098 6.70779L14.7649 7.3856C14.4628 7.46091 14.2362 7.68684 14.1606 7.98808L13.4809 10.8248C13.2795 11.6783 12.071 11.6783 11.8696 10.8248L11.1898 7.98808C11.1143 7.68684 10.8877 7.46091 10.5856 7.3856L7.74063 6.70779C6.88463 6.50696 6.88463 5.30198 7.74063 5.10115L10.5856 4.42335C10.8877 4.34804 11.1143 4.12211 11.1898 3.82086L11.8696 0.98414Z" fill="url(#paint1_linear_1198_27170)"/>
<path fill-rule="evenodd" clip-rule="evenodd" d="M50.9617 4.55012C51.7985 4.55012 52.4958 3.85374 52.4958 3.01809C52.4958 2.18244 51.7985 1.48606 50.9617 1.48606C50.125 1.48606 49.4277 2.18244 49.4277 3.01809C49.4277 3.85374 50.0971 4.55012 50.9617 4.55012ZM50.9617 5.69218C52.44 5.69218 53.6393 4.49441 53.6393 3.01809C53.6393 1.54177 52.44 0.343994 50.9617 0.343994C49.4835 0.343994 48.2842 1.54177 48.2842 3.01809C48.2842 4.49441 49.4835 5.69218 50.9617 5.69218Z" fill="url(#paint2_linear_1198_27170)"/>
<path d="M99.2257 46.8546C99.0862 46.2975 99.6162 45.7683 100.174 45.9354L103.995 47.0218C104.553 47.1889 104.748 47.8853 104.33 48.3031L101.485 51.0608C101.067 51.4786 100.369 51.2836 100.202 50.6986L99.2257 46.8546Z" fill="url(#paint3_linear_1198_27170)"/>
<path fill-rule="evenodd" clip-rule="evenodd" d="M102.031 23.7591C102.868 23.7591 103.565 23.0627 103.565 22.2271C103.565 21.3914 102.868 20.695 102.031 20.695C101.194 20.695 100.497 21.3914 100.497 22.2271C100.497 23.0627 101.194 23.7591 102.031 23.7591ZM102.031 24.9012C103.509 24.9012 104.709 23.7034 104.709 22.2271C104.709 20.7507 103.509 19.553 102.031 19.553C100.553 19.553 99.3535 20.7507 99.3535 22.2271C99.3535 23.7034 100.553 24.9012 102.031 24.9012Z" fill="url(#paint4_linear_1198_27170)"/>
<path fill-rule="evenodd" clip-rule="evenodd" d="M2.96955 29.15C3.80629 29.15 4.50357 28.4536 4.50357 27.6179C4.50357 26.7823 3.80629 26.0859 2.96955 26.0859C2.13282 26.0859 1.43553 26.7823 1.43553 27.6179C1.43553 28.4536 2.10492 29.15 2.96955 29.15ZM2.96955 30.292C4.44779 30.292 5.64711 29.0943 5.64711 27.6179C5.64711 26.1416 4.44779 24.9438 2.96955 24.9438C1.49132 24.9438 0.291992 26.1416 0.291992 27.6179C0.291992 29.0943 1.49132 30.292 2.96955 30.292Z" fill="url(#paint5_linear_1198_27170)"/>
<g clip-path="url(#clip0_1198_27170)">
<path d="M72.8213 38.8557V65.8632H27.8096V38.8557L50.3161 25.3525L72.8213 38.8557Z" fill="#FFA001"/>
<path d="M72.8207 38.8557V65.8632H50.3154V25.3525L72.8207 38.8557Z" fill="#F87F02"/>
<path d="M22 38.8558L27.8086 25.3521H50.3149L44.5062 38.8558H22Z" fill="#FFDA2D"/>
<path d="M78.6292 38.8558L72.8206 25.3521H50.3145L56.1231 38.8558H78.6292Z" fill="#FCBE00"/>
<path d="M35.043 54.5461H38.6758V58.179H35.043V54.5461Z" fill="#FFDA2D"/>
<path d="M84.0003 61.3626C84.0003 68.6997 78.0522 74.6478 70.7151 74.6478C63.3768 74.6478 57.4287 68.6997 57.4287 61.3626C57.4287 54.0243 63.3768 48.0762 70.7151 48.0762C78.0522 48.0762 84.0003 54.0242 84.0003 61.3626Z" fill="#83E470"/>
<path d="M84 61.3626C84 68.6997 78.0519 74.6478 70.7148 74.6478V48.0762C78.0519 48.0762 84 54.0242 84 61.3626Z" fill="#01B763"/>
<path d="M77.6669 59.211L70.7149 66.1628L69.51 67.3679L63.7617 61.6194L66.3313 59.051L69.51 62.2297L70.7149 61.025L75.0973 56.6426L77.6669 59.211Z" fill="#F3FDFF"/>
<path d="M77.6668 59.211L70.7148 66.1628V61.025L75.0972 56.6426L77.6668 59.211Z" fill="#D7F3F7"/>
</g>
<defs>
<linearGradient id="paint0_linear_1198_27170" x1="50" y1="-4.88442e-07" x2="67.3989" y2="101.748" gradientUnits="userSpaceOnUse">
<stop stop-color="#F9963B"/>
<stop offset="0.0001" stop-color="#F9963B"/>
<stop offset="1" stop-color="#F95D3B"/>
</linearGradient>
<linearGradient id="paint1_linear_1198_27170" x1="18.2518" y1="0.343995" x2="7.6186" y2="11.9417" gradientUnits="userSpaceOnUse">
<stop stop-color="#F9963B"/>
<stop offset="0.0001" stop-color="#F9963B"/>
<stop offset="1" stop-color="#F95D3B"/>
</linearGradient>
<linearGradient id="paint2_linear_1198_27170" x1="53.6393" y1="0.343995" x2="48.525" y2="5.9133" gradientUnits="userSpaceOnUse">
<stop stop-color="#F9963B"/>
<stop offset="0.0001" stop-color="#F9963B"/>
<stop offset="1" stop-color="#F95D3B"/>
</linearGradient>
<linearGradient id="paint3_linear_1198_27170" x1="104.555" y1="45.9041" x2="99.4072" y2="51.4729" gradientUnits="userSpaceOnUse">
<stop stop-color="#F9963B"/>
<stop offset="0.0001" stop-color="#F9963B"/>
<stop offset="1" stop-color="#F95D3B"/>
</linearGradient>
<linearGradient id="paint4_linear_1198_27170" x1="104.709" y1="19.553" x2="99.5943" y2="25.1223" gradientUnits="userSpaceOnUse">
<stop stop-color="#F9963B"/>
<stop offset="0.0001" stop-color="#F9963B"/>
<stop offset="1" stop-color="#F95D3B"/>
</linearGradient>
<linearGradient id="paint5_linear_1198_27170" x1="5.64711" y1="24.9438" x2="0.532774" y2="30.5131" gradientUnits="userSpaceOnUse">
<stop stop-color="#F9963B"/>
<stop offset="0.0001" stop-color="#F9963B"/>
<stop offset="1" stop-color="#F95D3B"/>
</linearGradient>
<clipPath id="clip0_1198_27170">
<rect width="62" height="62" fill="white" transform="translate(22 19)"/>
</clipPath>
</defs>
</svg>
