<svg width="20" height="20" viewBox="0 0 20 20" fill="none" xmlns="http://www.w3.org/2000/svg">
<path fill-rule="evenodd" clip-rule="evenodd" d="M13.0097 2.5H6.9905C5.36104 2.5 3.97041 3.67804 3.70252 5.28534L2.31363 13.6187C1.97501 15.6504 3.54182 17.5 5.60161 17.5H10.0001C10.4603 17.5 10.8334 17.1269 10.8334 16.6667V14.1667C10.8334 12.3257 12.3258 10.8333 14.1667 10.8333H16.2386C16.7535 10.8333 17.1452 10.3709 17.0606 9.863L16.2976 5.28534C16.0298 3.67804 14.6391 2.5 13.0097 2.5ZM13.125 5.83333C13.125 7.55922 11.7259 8.95833 10 8.95833C8.27411 8.95833 6.875 7.55922 6.875 5.83333V5C6.875 4.65482 7.15482 4.375 7.5 4.375C7.84518 4.375 8.125 4.65482 8.125 5V5.83333C8.125 6.86887 8.96447 7.70833 10 7.70833C11.0355 7.70833 11.875 6.86887 11.875 5.83333V5C11.875 4.65482 12.1548 4.375 12.5 4.375C12.8452 4.375 13.125 4.65482 13.125 5V5.83333ZM18.8037 12.9116C19.031 12.6518 19.0047 12.2569 18.7449 12.0296C18.4851 11.8023 18.0903 11.8287 17.863 12.0884L15.4714 14.8217C15.398 14.9056 15.2715 14.9168 15.1845 14.8472L13.7238 13.6786C13.4543 13.463 13.0609 13.5067 12.8453 13.7762C12.6297 14.0458 12.6734 14.4391 12.9429 14.6547L14.4036 15.8233C15.013 16.3108 15.8982 16.2321 16.4121 15.6448L18.8037 12.9116Z" fill="#00CF7E"/>
</svg>
