<svg width="20" height="17" viewBox="0 0 20 17" fill="none" xmlns="http://www.w3.org/2000/svg">
<path d="M3.06396 12.375H17.1889V13.3125C17.1889 13.9755 16.9256 14.6114 16.4567 15.0803C15.9879 15.5491 15.352 15.8125 14.6889 15.8125H5.56396C4.90092 15.8125 4.26504 15.5491 3.7962 15.0803C3.32736 14.6114 3.06396 13.9755 3.06396 13.3125V12.375Z" stroke="#0C1321" stroke-linecap="round" stroke-linejoin="round"/>
<path d="M15.5011 8.56264H17.1261C17.3776 8.55425 17.6281 8.59656 17.8629 8.68703C18.0976 8.77749 18.3118 8.91427 18.4926 9.08922C18.6733 9.26417 18.817 9.47372 18.9151 9.70538C19.0133 9.93704 19.0638 10.1861 19.0636 10.4376C19.0636 10.9515 18.8595 11.4443 18.4961 11.8077C18.1328 12.171 17.64 12.3751 17.1261 12.3751H3.12612C2.87454 12.3753 2.62552 12.3248 2.39387 12.2267C2.16221 12.1286 1.95265 11.9848 1.7777 11.8041C1.60275 11.6233 1.46596 11.4091 1.37549 11.1744C1.28503 10.9396 1.24273 10.6891 1.25112 10.4376C1.24239 10.1891 1.28493 9.94135 1.37607 9.70991C1.4672 9.47848 1.605 9.26828 1.78088 9.0924C1.95676 8.91652 2.16695 8.77872 2.39839 8.68758C2.62982 8.59644 2.87754 8.55391 3.12612 8.56264H8.62613" stroke="#0C1321" stroke-linecap="round" stroke-linejoin="round"/>
<path d="M19.0641 7.3125C19.0594 7.64221 18.9247 7.95672 18.6892 8.18751C18.5796 8.31018 18.4444 8.40733 18.2933 8.47212C18.1421 8.53691 17.9785 8.56776 17.8141 8.5625H14.5642L12.4392 11L10.3141 8.5625H2.43916C2.27781 8.56272 2.11811 8.53007 1.9698 8.46652C1.8215 8.40298 1.68769 8.30987 1.57656 8.19289C1.46544 8.07592 1.37932 7.93753 1.32346 7.78616C1.26759 7.6348 1.24315 7.47362 1.25165 7.3125C1.24315 7.15138 1.26759 6.99022 1.32346 6.83885C1.37932 6.68748 1.46544 6.54909 1.57656 6.43212C1.68769 6.31514 1.8215 6.22204 1.9698 6.15849C2.11811 6.09494 2.27781 6.06228 2.43916 6.0625H17.8141C18.1457 6.0625 18.4636 6.1942 18.698 6.42862C18.9325 6.66304 19.0641 6.98098 19.0641 7.3125Z" stroke="#0C1321" stroke-linecap="round" stroke-linejoin="round"/>
<path d="M8.43895 0.5H11.8764C13.302 0.5 14.6691 1.06629 15.6771 2.0743C16.6852 3.0823 17.2515 4.44947 17.2515 5.875H3.06396C3.06396 4.44947 3.63024 3.0823 4.63825 2.0743C5.64626 1.06629 7.01341 0.5 8.43895 0.5Z" stroke="#0C1321" stroke-linecap="round" stroke-linejoin="round"/>
<path d="M6.62679 3.3125L7.3768 4.125" stroke="#0C1321" stroke-linecap="round" stroke-linejoin="round"/>
<path d="M13.3765 3L14.189 3.875" stroke="#0C1321" stroke-linecap="round" stroke-linejoin="round"/>
<path d="M9.62646 3.375L10.5015 2.5625" stroke="#0C1321" stroke-linecap="round" stroke-linejoin="round"/>
</svg>
