<svg width="21" height="20" viewBox="0 0 21 20" fill="none" xmlns="http://www.w3.org/2000/svg">
<path fill-rule="evenodd" clip-rule="evenodd" d="M13.5097 2.5H7.4905C5.86104 2.5 4.47041 3.67804 4.20252 5.28534L2.81363 13.6187C2.47501 15.6504 4.04182 17.5 6.10161 17.5H10.5001C10.9603 17.5 11.3334 17.1269 11.3334 16.6667V14.1667C11.3334 12.3257 12.8258 10.8333 14.6667 10.8333H16.7386C17.2535 10.8333 17.6452 10.3709 17.5606 9.863L16.7976 5.28534C16.5298 3.67804 15.1391 2.5 13.5097 2.5ZM13.625 5.83333C13.625 7.55922 12.2259 8.95833 10.5 8.95833C8.77411 8.95833 7.375 7.55922 7.375 5.83333V5C7.375 4.65482 7.65482 4.375 8 4.375C8.34518 4.375 8.625 4.65482 8.625 5V5.83333C8.625 6.86887 9.46447 7.70833 10.5 7.70833C11.5355 7.70833 12.375 6.86887 12.375 5.83333V5C12.375 4.65482 12.6548 4.375 13 4.375C13.3452 4.375 13.625 4.65482 13.625 5V5.83333ZM17.7097 13.6742C17.9538 13.4301 17.9538 13.0344 17.7097 12.7903C17.4656 12.5462 17.0699 12.5462 16.8258 12.7903L15.5 14.1161L14.1742 12.7903C13.9301 12.5462 13.5344 12.5462 13.2903 12.7903C13.0462 13.0344 13.0462 13.4301 13.2903 13.6742L14.6161 15L13.2903 16.3258C13.0462 16.5699 13.0462 16.9656 13.2903 17.2097C13.5344 17.4538 13.9301 17.4538 14.1742 17.2097L15.5 15.8839L16.8258 17.2097C17.0699 17.4538 17.4656 17.4538 17.7097 17.2097C17.9538 16.9656 17.9538 16.5699 17.7097 16.3258L16.3839 15L17.7097 13.6742Z" fill="#F98C3B"/>
</svg>
