<svg width="21" height="20" viewBox="0 0 21 20" fill="none" xmlns="http://www.w3.org/2000/svg">
<path d="M5.50008 3.33341H15.5001C17.341 3.33341 18.8334 4.8258 18.8334 6.66675V10.8334C18.8334 12.6744 17.341 14.1667 15.5001 14.1667H8.83342C6.99247 14.1667 5.50008 12.6744 5.50008 10.8334V3.33341ZM5.50008 3.33341C5.50008 2.41294 4.75389 1.66675 3.83341 1.66675H2.16675" stroke="#0C1321" stroke-width="1.5" stroke-linecap="round" stroke-linejoin="round"/>
<path d="M9.66675 17.0833C9.66675 17.7736 9.1071 18.3333 8.41675 18.3333C7.72639 18.3333 7.16675 17.7736 7.16675 17.0833C7.16675 16.3929 7.72639 15.8333 8.41675 15.8333C9.1071 15.8333 9.66675 16.3929 9.66675 17.0833Z" stroke="#0C1321" stroke-width="1.5"/>
<path d="M17.1667 17.0833C17.1667 17.7736 16.6071 18.3333 15.9167 18.3333C15.2264 18.3333 14.6667 17.7736 14.6667 17.0833C14.6667 16.3929 15.2264 15.8333 15.9167 15.8333C16.6071 15.8333 17.1667 16.3929 17.1667 17.0833Z" stroke="#0C1321" stroke-width="1.5"/>
<path d="M12.1667 6.66675L12.1667 10.8334" stroke="#0C1321" stroke-width="1.5" stroke-linecap="round" stroke-linejoin="round"/>
<path d="M14.2499 8.75L10.0833 8.75" stroke="#0C1321" stroke-width="1.5" stroke-linecap="round" stroke-linejoin="round"/>
</svg>
