<svg width="25" height="24" viewBox="0 0 25 24" fill="none" xmlns="http://www.w3.org/2000/svg">
<path fill-rule="evenodd" clip-rule="evenodd" d="M12.1272 1.75C9.96849 1.75 8.14147 3.34418 7.84898 5.48297L7.81188 5.75428C7.7713 5.75143 7.73051 5.75 7.68957 5.75H6.75661C4.13036 5.75 2.13268 8.10818 2.56443 10.6987L3.89777 18.6987C4.23932 20.748 6.01238 22.25 8.08994 22.25H16.16C18.2376 22.25 20.0107 20.748 20.3522 18.6987L21.6856 10.6987C22.1173 8.10819 20.1196 5.75 17.4934 5.75H16.5604C16.5209 5.75 16.4815 5.75134 16.4423 5.75399L16.4048 5.47852L16.4046 5.47702C16.1094 3.34091 14.2836 1.75 12.1272 1.75ZM15.2682 8.25014L15.3846 9.10539C15.4405 9.51582 15.8185 9.80325 16.2289 9.74738C16.6393 9.69152 16.9268 9.31351 16.8709 8.90308L16.6459 7.25H17.4934C19.1927 7.25 20.4853 8.77589 20.206 10.4521L18.8726 18.4521C18.6516 19.7781 17.5043 20.75 16.16 20.75H8.08994C6.74564 20.75 5.59836 19.7781 5.37736 18.4521L4.04402 10.4521C3.76465 8.77588 5.05727 7.25 6.75661 7.25H7.60734L7.38192 8.89838C7.3258 9.30878 7.61299 9.68696 8.02338 9.74308C8.43378 9.79921 8.81196 9.51201 8.86809 9.10162L8.98433 8.2516C9.54805 8.57544 10.1913 8.75 10.8524 8.75H13.3976C14.0596 8.75 14.7039 8.57492 15.2682 8.25014ZM15.036 6.54448L14.9187 5.68232C14.7258 4.28852 13.5343 3.25 12.1272 3.25C10.7184 3.25 9.52603 4.29039 9.33515 5.6862L9.21733 6.54779L9.27529 6.60476C9.69607 7.01828 10.2624 7.25 10.8524 7.25H13.3976C13.9876 7.25 14.5539 7.01828 14.9747 6.60475L15.036 6.54448Z" fill="#334155"/>
</svg>
