<svg width="25" height="25" viewBox="0 0 25 25" fill="none" xmlns="http://www.w3.org/2000/svg">
<path fill-rule="evenodd" clip-rule="evenodd" d="M6.75642 6.25C4.13018 6.25 2.1325 8.60818 2.56425 11.1987L3.89758 19.1987C4.23913 21.248 6.0122 22.75 8.08976 22.75H16.1599C18.2374 22.75 20.0105 21.248 20.352 19.1987L21.6854 11.1987C22.1171 8.60819 20.1194 6.25 17.4932 6.25H16.5602C16.1014 6.25 15.6609 6.43023 15.3336 6.75186L14.9745 7.10475C14.5537 7.51828 13.9874 7.75 13.3974 7.75H10.8522C10.2623 7.75 9.69589 7.51828 9.27511 7.10476L8.91602 6.75186C8.58875 6.43022 8.14825 6.25 7.68939 6.25H6.75642ZM7.84878 5.98297C8.14127 3.84418 9.96829 2.25 12.127 2.25C14.2834 2.25 16.1092 3.84091 16.4044 5.97702L16.8214 8.99555C16.8781 9.40587 16.5914 9.78445 16.1811 9.84115C15.7708 9.89784 15.3922 9.61117 15.3355 9.20085L14.9185 6.18232C14.7259 4.78825 13.5343 3.75 12.127 3.75C10.7182 3.75 9.52583 4.79039 9.33495 6.1862L8.92283 9.19982C8.86671 9.61022 8.48852 9.89741 8.07813 9.84129C7.66774 9.78517 7.38054 9.40698 7.43666 8.99659L7.84878 5.98297Z" fill="#E94222"/>
</svg>
