<svg width="20" height="20" viewBox="0 0 20 20" fill="none" xmlns="http://www.w3.org/2000/svg">
<path fill-rule="evenodd" clip-rule="evenodd" d="M13.0097 2.5H6.9905C5.36104 2.5 3.97041 3.67804 3.70252 5.28534L2.31363 13.6187C1.97501 15.6504 3.54182 17.5 5.60161 17.5H10.0001C10.4603 17.5 10.8334 17.1269 10.8334 16.6667V14.1667C10.8334 12.3257 12.3258 10.8333 14.1667 10.8333H16.2386C16.7535 10.8333 17.1452 10.3709 17.0606 9.863L16.2976 5.28534C16.0298 3.67804 14.6391 2.5 13.0097 2.5ZM13.125 5.83333C13.125 7.55922 11.7259 8.95833 10 8.95833C8.27411 8.95833 6.875 7.55922 6.875 5.83333V5C6.875 4.65482 7.15482 4.375 7.5 4.375C7.84518 4.375 8.125 4.65482 8.125 5V5.83333C8.125 6.86887 8.96447 7.70833 10 7.70833C11.0355 7.70833 11.875 6.86887 11.875 5.83333V5C11.875 4.65482 12.1548 4.375 12.5 4.375C12.8452 4.375 13.125 4.65482 13.125 5V5.83333ZM15.2144 13.1294L15.4353 12.9085C16.0455 12.2983 17.0349 12.2983 17.6451 12.9085C18.2552 13.5187 18.2552 14.508 17.6451 15.1182L16.0983 16.665C15.6101 17.1531 14.8186 17.1531 14.3305 16.665L12.7837 15.1182C12.1735 14.508 12.1735 13.5187 12.7837 12.9085C13.3939 12.2983 14.3832 12.2983 14.9934 12.9085L15.2144 13.1294Z" fill="#335CFF"/>
</svg>
