<svg width="14" height="14" viewBox="0 0 14 14" fill="none" xmlns="http://www.w3.org/2000/svg">
<path d="M12.25 4.08325V6.99992M1.75 4.08325C1.75 5.87088 1.75 9.78487 1.75 10.0107C1.75 10.8171 2.88496 11.2966 5.15488 12.2555C6.06678 12.6406 6.52272 12.8333 7 12.8333V6.62355" stroke="white" stroke-width="1.25" stroke-linecap="round" stroke-linejoin="round"/>
<path d="M8.75 11.0833C8.75 11.0833 9.26042 11.0833 9.77083 12.25C9.77083 12.25 11.3922 9.33333 12.8333 8.75" stroke="white" stroke-width="1.25" stroke-linecap="round" stroke-linejoin="round"/>
<path d="M4.85679 5.65339L3.15275 4.82883C2.21758 4.37631 1.75 4.15005 1.75 3.79175C1.75 3.43345 2.21758 3.20719 3.15275 2.75467L4.85679 1.93011C5.90847 1.4212 6.43434 1.16675 7 1.16675C7.56566 1.16675 8.09153 1.4212 9.14322 1.93011L10.8473 2.75467C11.7824 3.20719 12.25 3.43345 12.25 3.79175C12.25 4.15005 11.7824 4.37631 10.8473 4.82883L9.14322 5.65339C8.09153 6.1623 7.56566 6.41675 7 6.41675C6.43434 6.41675 5.90847 6.1623 4.85679 5.65339Z" stroke="white" stroke-width="1.25" stroke-linecap="round" stroke-linejoin="round"/>
<path d="M3.5 7L4.66667 7.58333" stroke="white" stroke-width="1.25" stroke-linecap="round" stroke-linejoin="round"/>
<path d="M9.91634 2.33325L4.08301 5.24992" stroke="white" stroke-width="1.25" stroke-linecap="round" stroke-linejoin="round"/>
</svg>
