<svg width="22" height="22" viewBox="0 0 22 22" fill="none" xmlns="http://www.w3.org/2000/svg">
<path d="M20 11V16.4C20 18.3882 18.3882 20 16.4 20H5.6C3.61177 20 2 18.3882 2 16.4V5.6C2 3.61177 3.61178 2 5.6 2H11M14.3177 3.82047C14.3177 3.82047 14.3177 5.10774 15.605 6.39501C16.8923 7.68228 18.1795 7.68228 18.1795 7.68228M8.43921 14.5906L11.1425 14.2044C11.5324 14.1487 11.8938 13.968 12.1723 13.6895L19.4668 6.39501C20.1777 5.68407 20.1777 4.53141 19.4668 3.82047L18.1795 2.5332C17.4686 1.82227 16.3159 1.82227 15.605 2.5332L8.31048 9.82772C8.03195 10.1062 7.85128 10.4676 7.79557 10.8575L7.40939 13.5608C7.32357 14.1615 7.83848 14.6764 8.43921 14.5906Z" stroke="#0C1321" stroke-width="1.5" stroke-linecap="round"/>
</svg>
