<svg width="212" height="46" viewBox="0 0 212 46" fill="none" xmlns="http://www.w3.org/2000/svg">
<g clip-path="url(#clip0_323_17184)">
<circle cx="23" cy="23" r="23" fill="#F9C200"/>
<mask id="path-2-inside-1_323_17184" fill="white">
<path d="M23 41.6875C26.8312 41.6875 30.6625 38.662 33.1498 36.1948C33.7236 35.6257 33.0327 34.805 32.3182 35.1827C29.6144 36.6117 25.901 38.2375 23 38.2375C20.099 38.2375 16.3856 36.6117 13.6818 35.1826C12.9673 34.805 12.2764 35.6257 12.8502 36.1948C15.3375 38.662 19.1687 41.6875 23 41.6875Z"/>
</mask>
<path d="M33.1498 36.1948L36.1868 39.2566L36.1868 39.2566L33.1498 36.1948ZM12.8502 36.1948L9.81321 39.2566L9.81321 39.2566L12.8502 36.1948ZM13.6818 35.1826L15.697 31.3699V31.3699L13.6818 35.1826ZM32.3182 35.1827L34.3334 38.9953L34.3334 38.9953L32.3182 35.1827ZM30.1128 33.133C29.0062 34.2307 27.6937 35.3558 26.3351 36.1836C24.9394 37.0339 23.8153 37.375 23 37.375V46C26.0159 46 28.7231 44.8283 30.8227 43.5491C32.9593 42.2474 34.8061 40.6261 36.1868 39.2566L30.1128 33.133ZM23 37.375C22.1847 37.375 21.0606 37.0339 19.6649 36.1836C18.3063 35.3558 16.9938 34.2307 15.8872 33.133L9.81321 39.2566C11.1939 40.6261 13.0407 42.2473 15.1773 43.5491C17.2769 44.8283 19.9841 46 23 46V37.375ZM11.6666 38.9953C13.1264 39.7669 14.9251 40.6279 16.8092 41.3046C18.64 41.9622 20.8323 42.55 23 42.55V33.925C22.2667 33.925 21.1518 33.6999 19.7247 33.1873C18.3509 32.6939 16.941 32.0275 15.697 31.3699L11.6666 38.9953ZM23 42.55C25.1677 42.55 27.36 41.9622 29.1908 41.3046C31.0749 40.6279 32.8736 39.7669 34.3334 38.9953L30.303 31.37C29.059 32.0275 27.6491 32.6939 26.2753 33.1873C24.8482 33.6999 23.7333 33.925 23 33.925V42.55ZM36.1868 39.2566C37.0407 38.4096 37.6303 37.2305 37.6728 35.8789C37.7136 34.5791 37.2384 33.4256 36.5343 32.578C35.0914 30.8411 32.5337 30.1909 30.303 31.37L34.3334 38.9953C32.8171 39.7967 30.9621 39.3681 29.8999 38.0894C29.3861 37.4709 29.0207 36.6056 29.052 35.608C29.085 34.5585 29.5458 33.6954 30.1128 33.133L36.1868 39.2566ZM15.8872 33.133C16.4542 33.6954 16.915 34.5585 16.948 35.608C16.9793 36.6056 16.6139 37.4709 16.1001 38.0894C15.0379 39.3681 13.1829 39.7967 11.6666 38.9953L15.697 31.3699C13.4663 30.1909 10.9086 30.8411 9.46569 32.578C8.76162 33.4256 8.28638 34.5791 8.32723 35.8789C8.36972 37.2305 8.95934 38.4096 9.81321 39.2566L15.8872 33.133Z" fill="white" mask="url(#path-2-inside-1_323_17184)"/>
<path d="M31.2107 13.3917C30.7508 12.9287 30.7508 12.1865 31.2107 11.7234L33.681 8.66317L33.681 8.61004C34.3068 7.9909 35.3214 7.9909 35.9472 8.61004C36.573 9.22917 36.573 10.233 35.9472 10.8521L33.0366 13.3917L32.9278 13.4881C32.7006 13.6676 32.4173 13.7668 32.1237 13.7668C31.7811 13.7668 31.4526 13.6318 31.2107 13.3917ZM12.4582 21.8287C12.4582 19.1035 13.5524 16.49 15.5002 14.563C17.4479 12.636 20.0896 11.5534 22.8441 11.5534C28.58 11.5534 33.2299 16.1538 33.2299 21.8287C33.2299 27.5036 28.58 32.104 22.8441 32.104C17.1081 32.104 12.4582 27.5036 12.4582 21.8287Z" fill="white"/>
</g>
<path d="M62.2725 35.5H56.235V8.5325H79.0568V13.9662H62.2725V20.044H78.453V25.4375H62.2725V35.5ZM91.5688 35.9025C84.6861 35.9025 80.0573 31.797 80.0573 25.4375C80.0573 18.9975 84.6861 14.9322 91.5688 14.9322C98.4516 14.9322 103.08 18.9975 103.08 25.4375C103.08 31.797 98.4516 35.9025 91.5688 35.9025ZM91.5688 30.5492C95.6341 30.5492 97.0831 28.9795 97.0831 25.4375C97.0831 21.8955 95.6341 20.2452 91.5688 20.2452C87.4633 20.2452 86.0546 21.8955 86.0546 25.4375C86.0546 28.9795 87.4633 30.5492 91.5688 30.5492ZM115.488 35.9025C108.605 35.9025 103.976 31.797 103.976 25.4375C103.976 18.9975 108.605 14.9322 115.488 14.9322C122.37 14.9322 126.999 18.9975 126.999 25.4375C126.999 31.797 122.37 35.9025 115.488 35.9025ZM115.488 30.5492C119.553 30.5492 121.002 28.9795 121.002 25.4375C121.002 21.8955 119.553 20.2452 115.488 20.2452C111.382 20.2452 109.973 21.8955 109.973 25.4375C109.973 28.9795 111.382 30.5492 115.488 30.5492ZM137.676 35.9025C131.397 35.9025 127.935 31.797 127.935 25.4375C127.935 18.9975 131.357 14.9322 137.354 14.9322C142.144 14.9322 144.599 17.307 145.283 20.688H145.645V8.5325H151.683V35.5H146.048V29.9052H145.726C144.961 33.89 142.305 35.9025 137.676 35.9025ZM134.053 25.4375C134.053 29.1002 135.865 30.3882 139.729 30.3882C143.552 30.3882 145.645 29.06 145.645 25.5582V25.2362C145.645 21.7345 143.593 20.4465 139.729 20.4465C135.865 20.4465 134.053 21.7345 134.053 25.4375ZM160.11 13.282H154.072V8.5325H160.11V13.282ZM160.11 35.5H154.072V15.3347H160.11V35.5Z" fill="#0C1321"/>
<path d="M171.32 33.4472C165.323 33.4472 161.861 29.865 161.861 24.1897C161.861 18.5547 165.524 14.9322 171.562 14.9322C175.667 14.9322 178.605 16.7032 179.249 20.205H179.571V15.3347H185.206V32.5617C185.206 39.6055 180.94 42.745 173.735 42.745C167.215 42.745 163.109 39.847 163.109 34.7755H169.147C169.147 37.0295 170.032 37.7138 174.138 37.7138C178.002 37.7138 179.169 36.9088 179.169 32.9642V28.416H178.847C178.203 31.3945 175.828 33.4472 171.32 33.4472ZM167.939 24.1897C167.939 27.1682 169.63 28.255 173.413 28.255C177.277 28.255 179.169 27.1682 179.169 24.391V23.9482C179.169 21.2112 177.237 20.1647 173.494 20.1647C169.63 20.1647 167.939 21.2112 167.939 24.1897ZM198.349 35.9025C191.467 35.9025 186.838 31.797 186.838 25.4375C186.838 18.9975 191.467 14.9322 198.349 14.9322C205.232 14.9322 209.861 18.9975 209.861 25.4375C209.861 31.797 205.232 35.9025 198.349 35.9025ZM198.349 30.5492C202.415 30.5492 203.864 28.9795 203.864 25.4375C203.864 21.8955 202.415 20.2452 198.349 20.2452C194.244 20.2452 192.835 21.8955 192.835 25.4375C192.835 28.9795 194.244 30.5492 198.349 30.5492Z" fill="#F9C200"/>
<defs>
<clipPath id="clip0_323_17184">
<rect width="46" height="46" fill="white"/>
</clipPath>
</defs>
</svg>
