<svg width="24" height="24" viewBox="0 0 24 24" fill="none" xmlns="http://www.w3.org/2000/svg">
<g clip-path="url(#clip0_331_9713)">
<path d="M22.0594 12.2221C22.0594 11.3999 21.9911 10.7999 21.8433 10.1777H12.2344V13.8887H17.8746C17.7609 14.811 17.1469 16.1999 15.7823 17.1332L15.7631 17.2574L18.8013 19.5571L19.0118 19.5777C20.9449 17.8332 22.0594 15.2665 22.0594 12.2221Z" fill="#4285F4"/>
<path d="M12.2344 22.0001C14.9976 22.0001 17.3174 21.1111 19.0118 19.5778L15.7823 17.1333C14.918 17.7222 13.7581 18.1333 12.2344 18.1333C9.52797 18.1333 7.23094 16.389 6.41211 13.9778L6.29209 13.9878L3.13296 16.3767L3.09164 16.4889C4.77461 19.7556 8.23156 22.0001 12.2344 22.0001Z" fill="#34A853"/>
<path d="M6.41211 13.9779C6.19605 13.3557 6.07101 12.689 6.07101 12.0002C6.07101 11.3112 6.19605 10.6446 6.40074 10.0224L6.39502 9.88985L3.1963 7.46259L3.09164 7.51123C2.39801 8.8668 2 10.389 2 12.0002C2 13.6113 2.39801 15.1334 3.09164 16.489L6.41211 13.9779Z" fill="#FBAE05"/>
<path d="M12.2344 5.86664C14.1561 5.86664 15.4525 6.67775 16.1916 7.35557L19.08 4.6C17.3061 2.98889 14.9976 2 12.2344 2C8.23156 2 4.77461 4.24443 3.09164 7.51107L6.40074 10.0222C7.23094 7.61111 9.52797 5.86664 12.2344 5.86664Z" fill="#EB4335"/>
</g>
<defs>
<clipPath id="clip0_331_9713">
<rect width="24" height="24" fill="white"/>
</clipPath>
</defs>
</svg>
