<svg width="25" height="25" viewBox="0 0 25 25" fill="none" xmlns="http://www.w3.org/2000/svg">
<path d="M18.165 23.25H6.585C3.845 23.25 1.625 21.02 1.625 18.28V10.87C1.625 9.50997 2.465 7.79997 3.545 6.95997L8.935 2.75997C10.555 1.49997 13.145 1.43997 14.825 2.61997L21.005 6.94997C22.195 7.77997 23.125 9.55997 23.125 11.01V18.29C23.125 21.02 20.905 23.25 18.165 23.25ZM9.855 3.93997L4.465 8.13997C3.755 8.69997 3.125 9.96997 3.125 10.87V18.28C3.125 20.19 4.675 21.75 6.585 21.75H18.165C20.075 21.75 21.625 20.2 21.625 18.29V11.01C21.625 10.05 20.935 8.71997 20.145 8.17997L13.965 3.84997C12.825 3.04997 10.945 3.08997 9.855 3.93997Z" fill="#334155"/>
<path d="M12.375 19.25C11.965 19.25 11.625 18.91 11.625 18.5V15.5C11.625 15.09 11.965 14.75 12.375 14.75C12.785 14.75 13.125 15.09 13.125 15.5V18.5C13.125 18.91 12.785 19.25 12.375 19.25Z" fill="#334155"/>
</svg>
