<svg width="25" height="24" viewBox="0 0 25 24" fill="none" xmlns="http://www.w3.org/2000/svg">
<path d="M20.415 6.81994L14.655 2.78994C13.085 1.68994 10.675 1.74994 9.16499 2.91994L4.15499 6.82994C3.15499 7.60994 2.36499 9.20994 2.36499 10.4699V17.3699C2.36499 19.9199 4.43499 21.9999 6.98499 21.9999H17.765C20.315 21.9999 22.385 19.9299 22.385 17.3799V10.5999C22.385 9.24994 21.515 7.58994 20.415 6.81994ZM13.125 17.9999C13.125 18.4099 12.785 18.7499 12.375 18.7499C11.965 18.7499 11.625 18.4099 11.625 17.9999V14.9999C11.625 14.5899 11.965 14.2499 12.375 14.2499C12.785 14.2499 13.125 14.5899 13.125 14.9999V17.9999Z" fill="#E94222"/>
</svg>
