<svg width="25" height="24" viewBox="0 0 25 24" fill="none" xmlns="http://www.w3.org/2000/svg">
<path fill-rule="evenodd" clip-rule="evenodd" d="M22.125 6V8.25C22.125 10.3211 20.6326 12 18.7917 12C16.9507 12 15.4583 10.3211 15.4583 8.25C15.4583 10.3211 13.9659 12 12.125 12C10.2841 12 8.79167 10.3211 8.79167 8.25C8.79167 10.3211 7.29928 12 5.45833 12C3.61738 12 2.125 10.3211 2.125 8.25V6C2.125 3.79086 3.91586 2 6.125 2H18.125C20.3341 2 22.125 3.79086 22.125 6ZM18.7917 13.4999C17.4545 13.4999 16.3022 12.9373 15.4583 12.0559C14.6145 12.9373 13.4621 13.4999 12.125 13.4999C10.7879 13.4999 9.63549 12.9373 8.79167 12.0559C7.94785 12.9373 6.79546 13.4999 5.45833 13.4999C4.59172 13.4999 3.8027 13.2636 3.125 12.8573V17.9999C3.125 20.2091 4.91586 21.9999 7.125 21.9999H17.125C19.3341 21.9999 21.125 20.2091 21.125 17.9999V12.8573C20.4473 13.2636 19.6583 13.4999 18.7917 13.4999ZM15.7783 17.6317C15.9817 17.9925 15.8542 18.4499 15.4933 18.6533C14.2782 19.3384 13.2315 19.7479 12.1278 19.75C11.0228 19.7521 9.9741 19.3459 8.75415 18.6519C8.39412 18.4471 8.26829 17.9892 8.4731 17.6292C8.67792 17.2691 9.13582 17.1433 9.49585 17.3481C10.632 17.9945 11.4071 18.2514 12.1249 18.25C12.8441 18.2486 13.6194 17.9879 14.7567 17.3467C15.1175 17.1433 15.5749 17.2708 15.7783 17.6317Z" fill="#F9C200"/>
</svg>
