<svg width="25" height="24" viewBox="0 0 25 24" fill="none" xmlns="http://www.w3.org/2000/svg">
<path d="M22.125 8.25V6C22.125 3.79086 20.3341 2 18.125 2H6.125C3.91586 2 2.125 3.79086 2.125 6V8.25C2.125 10.3211 3.61738 12 5.45833 12C7.29928 12 8.79167 10.3211 8.79167 8.25C8.79167 10.3211 10.2841 12 12.125 12C13.9659 12 15.4583 10.3211 15.4583 8.25C15.4583 10.3211 16.9507 12 18.7917 12C20.6326 12 22.125 10.3211 22.125 8.25Z" stroke="#334155" stroke-width="1.5" stroke-linejoin="round"/>
<path d="M9.125 18C11.4811 19.3404 12.7726 19.3263 15.125 18" stroke="#334155" stroke-width="1.5" stroke-linecap="round" stroke-linejoin="round"/>
<path d="M21.125 11V18C21.125 20.2091 19.3341 22 17.125 22H7.125C4.91586 22 3.125 20.2091 3.125 18V11" stroke="#334155" stroke-width="1.5" stroke-linejoin="round"/>
</svg>
