<svg width="20" height="20" viewBox="0 0 20 20" fill="none" xmlns="http://www.w3.org/2000/svg">
    <path d="M16.6432 4.84738L15.9516 5.13749L16.6432 4.84738ZM16.0156 5.29007C16.1758 5.67204 16.6153 5.8518 16.9973 5.69158C17.3793 5.53136 17.5591 5.09183 17.3988 4.70985L16.0156 5.29007ZM14.0286 1.38694C13.644 1.2331 13.2075 1.42016 13.0537 1.80475C12.8998 2.18934 13.0869 2.62581 13.4715 2.77965L14.0286 1.38694ZM13.8894 2.13903L13.6108 2.83539V2.83539L13.8894 2.13903ZM3.39734 4.84738L4.08896 5.13749L3.39734 4.84738ZM2.64172 4.70985C2.4815 5.09183 2.66127 5.53136 3.04324 5.69158C3.42521 5.8518 3.86474 5.67204 4.02496 5.29007L2.64172 4.70985ZM6.56909 2.77965C6.95368 2.62582 7.14074 2.18934 6.98691 1.80475C6.83307 1.42016 6.39659 1.2331 6.01201 1.38694L6.56909 2.77965ZM6.15119 2.13903L5.87265 1.44268V1.44268L6.15119 2.13903ZM15.1996 7.47928L14.4544 7.56386L15.1996 7.47928ZM15.5723 10.7627L16.3175 10.6781V10.6781L15.5723 10.7627ZM4.42774 10.7627L3.68253 10.6781L3.68253 10.6781L4.42774 10.7627ZM4.8004 7.47928L5.54561 7.56386L4.8004 7.47928ZM3.7065 12.3934L3.13539 11.9073H3.13539L3.7065 12.3934ZM16.2935 12.3934L15.7224 12.8795L16.2935 12.3934ZM11.8916 3.64468H11.1416C11.1416 3.96526 11.3454 4.25039 11.6487 4.35424L11.8916 3.64468ZM8.10839 3.64468L8.35133 4.35424C8.65463 4.25039 8.85839 3.96526 8.85839 3.64468H8.10839ZM13.2023 16.9298C13.3477 16.542 13.1511 16.1097 12.7632 15.9643C12.3753 15.819 11.9431 16.0156 11.7977 16.4034L13.2023 16.9298ZM8.20231 16.4034C8.05695 16.0156 7.62468 15.819 7.23681 15.9643C6.84894 16.1097 6.65235 16.542 6.79771 16.9298L8.20231 16.4034ZM15.9516 5.13749L16.0156 5.29007L17.3988 4.70985L17.3348 4.55728L15.9516 5.13749ZM13.4715 2.77965L13.6108 2.83539L14.1679 1.44268L14.0286 1.38694L13.4715 2.77965ZM17.3348 4.55728C16.739 3.13679 15.5981 2.01476 14.1679 1.44268L13.6108 2.83539C14.6679 3.25824 15.5112 4.08756 15.9516 5.13749L17.3348 4.55728ZM2.70572 4.55728L2.64172 4.70985L4.02496 5.29007L4.08896 5.13749L2.70572 4.55728ZM6.01201 1.38694L5.87265 1.44268L6.42974 2.83539L6.56909 2.77965L6.01201 1.38694ZM4.08896 5.13749C4.52936 4.08756 5.37262 3.25824 6.42974 2.83539L5.87265 1.44268C4.44243 2.01476 3.30156 3.13679 2.70572 4.55728L4.08896 5.13749ZM14.8143 14.25H5.18569V15.75H14.8143V14.25ZM14.4544 7.56386L14.8271 10.8473L16.3175 10.6781L15.9448 7.3947L14.4544 7.56386ZM5.17296 10.8473L5.54561 7.56386L4.05518 7.3947L3.68253 10.6781L5.17296 10.8473ZM4.27761 12.8795C4.77398 12.2964 5.08817 11.5943 5.17296 10.8473L3.68253 10.6781C3.63308 11.1138 3.44844 11.5395 3.13539 11.9073L4.27761 12.8795ZM14.8271 10.8473C14.9119 11.5943 15.226 12.2964 15.7224 12.8795L16.8646 11.9073C16.5516 11.5395 16.3669 11.1138 16.3175 10.6781L14.8271 10.8473ZM5.18569 14.25C4.68301 14.25 4.33933 14.0026 4.18419 13.7292C4.03645 13.4689 4.03727 13.1619 4.27761 12.8795L3.13539 11.9073C2.46154 12.6989 2.44013 13.6951 2.87962 14.4696C3.3117 15.231 4.16471 15.75 5.18569 15.75V14.25ZM14.8143 15.75C15.8353 15.75 16.6883 15.231 17.1204 14.4696C17.5599 13.6951 17.5385 12.6989 16.8646 11.9073L15.7224 12.8795C15.9628 13.1619 15.9636 13.4689 15.8158 13.7292C15.6607 14.0026 15.317 14.25 14.8143 14.25V15.75ZM12.6416 3.64468V3.55825H11.1416V3.64468H12.6416ZM15.9448 7.3947C15.7058 5.28845 14.1452 3.62352 12.1346 2.93512L11.6487 4.35424C13.2087 4.88838 14.2916 6.1292 14.4544 7.56386L15.9448 7.3947ZM8.85839 3.64468V3.55825H7.35839V3.64468H8.85839ZM5.54561 7.56386C5.70844 6.1292 6.79127 4.88838 8.35133 4.35424L7.86544 2.93512C5.85484 3.62352 4.29424 5.28845 4.05518 7.3947L5.54561 7.56386ZM10 2.41663C10.6305 2.41663 11.1416 2.92775 11.1416 3.55825H12.6416C12.6416 2.09932 11.4589 0.916626 10 0.916626V2.41663ZM10 0.916626C8.54108 0.916626 7.35839 2.09932 7.35839 3.55825H8.85839C8.85839 2.92775 9.36951 2.41663 10 2.41663V0.916626ZM11.7977 16.4034C11.5478 17.0703 10.8538 17.5833 10 17.5833V19.0833C11.4546 19.0833 12.7244 18.2049 13.2023 16.9298L11.7977 16.4034ZM10 17.5833C9.14627 17.5833 8.45225 17.0703 8.20231 16.4034L6.79771 16.9298C7.27558 18.2049 8.54537 19.0833 10 19.0833V17.5833Z" fill="#0C1321"/>
</svg>
