<svg width="24" height="24" viewBox="0 0 24 24" fill="none" xmlns="http://www.w3.org/2000/svg">
<path d="M9.98621 21.0376H13.9862C15.85 21.0376 16.7819 21.0376 17.5169 20.7332C18.4971 20.3272 19.2757 19.5485 19.6817 18.5684C19.9862 17.8333 19.9862 16.9014 19.9862 15.0376C19.9862 13.9395 20.0485 11.1825 19.9862 10.5811H4.11076C4.04848 11.1825 3.98621 13.9395 3.98621 15.0376C3.98621 16.9014 3.98621 17.8333 4.29069 18.5684C4.69666 19.5485 5.47536 20.3272 6.45547 20.7332C7.19056 21.0376 8.12244 21.0376 9.98621 21.0376Z" stroke="#0C1321" stroke-width="1.5"/>
<path d="M10.3708 4.06972C11.3142 4.74523 11.9999 6.92788 11.9999 6.92788C11.9999 6.92788 9.68419 7.02183 8.74075 6.34633C7.79732 5.67082 7.69015 3.56704 7.69015 3.56704C7.69015 3.56704 9.42737 3.39422 10.3708 4.06972Z" stroke="#0C1321" stroke-width="1.5" stroke-linecap="round" stroke-linejoin="round"/>
<path d="M13.6291 4.06972C12.6856 4.74523 11.9999 6.92788 11.9999 6.92788C11.9999 6.92788 14.3157 7.02183 15.2591 6.34633C16.2026 5.67082 16.3097 3.56704 16.3097 3.56704C16.3097 3.56704 14.5725 3.39422 13.6291 4.06972Z" stroke="#0C1321" stroke-width="1.5" stroke-linecap="round" stroke-linejoin="round"/>
<path d="M10.5 7.53761V20.6737" stroke="#0C1321" stroke-width="1.5"/>
<path d="M13.5 7.53761V20.6737" stroke="#0C1321" stroke-width="1.5"/>
<path d="M19.8482 10.5376H4.15173C3.59945 10.5376 3.15173 10.0899 3.15173 9.5376V8.5376C3.15173 7.98531 3.59945 7.5376 4.15173 7.5376H19.8482C20.4005 7.5376 20.8482 7.98531 20.8482 8.5376V9.5376C20.8482 10.0899 20.4005 10.5376 19.8482 10.5376Z" stroke="#0C1321" stroke-width="1.5"/>
</svg>
