<svg width="25" height="24" viewBox="0 0 25 24" fill="none" xmlns="http://www.w3.org/2000/svg">
<path d="M10.3435 7.41435C10.0201 7.15559 9.54811 7.20803 9.28935 7.53148C9.03059 7.85493 9.08303 8.32689 9.40648 8.58565L10.3435 7.41435ZM11.6278 9.40226L12.0963 8.81661L11.6278 9.40226ZM13.0051 9.27989L12.4407 8.78601H12.4407L13.0051 9.27989ZM16.4394 6.49388C16.7122 6.18215 16.6806 5.70833 16.3689 5.43557C16.0572 5.16281 15.5833 5.19439 15.3106 5.50612L16.4394 6.49388ZM8.475 13.8L7.875 14.25H7.875L8.475 13.8ZM9.675 15.4L10.275 14.95L9.675 15.4ZM16.075 15.4L15.475 14.95L16.075 15.4ZM17.275 13.8L16.675 13.35L16.675 13.35L17.275 13.8ZM9.40648 8.58565L11.1593 9.98791L12.0963 8.81661L10.3435 7.41435L9.40648 8.58565ZM13.5695 9.77377L16.4394 6.49388L15.3106 5.50612L12.4407 8.78601L13.5695 9.77377ZM11.1593 9.98791C11.8906 10.5729 12.9528 10.4786 13.5695 9.77377L12.4407 8.78601C12.3526 8.8867 12.2008 8.90018 12.0963 8.81661L11.1593 9.98791ZM22.125 16V19H23.625V16H22.125ZM19.875 21.25H5.875V22.75H19.875V21.25ZM3.625 19V16H2.125V19H3.625ZM5.875 13.75H6.875V12.25H5.875V13.75ZM7.875 14.25L9.075 15.85L10.275 14.95L9.075 13.35L7.875 14.25ZM18.875 13.75H19.875V12.25H18.875V13.75ZM16.675 15.85L17.875 14.25L16.675 13.35L15.475 14.95L16.675 15.85ZM12.875 17.75C14.3701 17.75 15.7779 17.0461 16.675 15.85L15.475 14.95C14.8612 15.7684 13.898 16.25 12.875 16.25V17.75ZM18.875 12.25C18.0094 12.25 17.1944 12.6575 16.675 13.35L17.875 14.25C18.1111 13.9352 18.4816 13.75 18.875 13.75V12.25ZM9.075 15.85C9.97206 17.0461 11.3799 17.75 12.875 17.75V16.25C11.852 16.25 10.8888 15.7684 10.275 14.95L9.075 15.85ZM6.875 13.75C7.26845 13.75 7.63893 13.9352 7.875 14.25L9.075 13.35C8.55565 12.6575 7.74058 12.25 6.875 12.25V13.75ZM5.875 21.25C4.63236 21.25 3.625 20.2426 3.625 19H2.125C2.125 21.0711 3.80393 22.75 5.875 22.75V21.25ZM22.125 19C22.125 20.2426 21.1176 21.25 19.875 21.25V22.75C21.9461 22.75 23.625 21.0711 23.625 19H22.125ZM23.625 16C23.625 13.9289 21.9461 12.25 19.875 12.25V13.75C21.1176 13.75 22.125 14.7574 22.125 16H23.625ZM3.625 16C3.625 14.7574 4.63236 13.75 5.875 13.75V12.25C3.80393 12.25 2.125 13.9289 2.125 16H3.625ZM21.625 13V6H20.125V13H21.625ZM16.875 1.25H8.875V2.75H16.875V1.25ZM4.125 6V13H5.625V6H4.125ZM8.875 1.25C6.25165 1.25 4.125 3.37665 4.125 6H5.625C5.625 4.20507 7.08007 2.75 8.875 2.75V1.25ZM21.625 6C21.625 3.37665 19.4984 1.25 16.875 1.25V2.75C18.6699 2.75 20.125 4.20507 20.125 6H21.625Z" fill="#334155"/>
</svg>
