<svg width="25" height="24" viewBox="0 0 25 24" fill="none" xmlns="http://www.w3.org/2000/svg">
<path fill-rule="evenodd" clip-rule="evenodd" d="M20.875 11.6115V6C20.875 3.79086 19.0841 2 16.875 2H8.875C6.66586 2 4.875 3.79086 4.875 6V11.6115C5.19661 11.5385 5.53131 11.5 5.875 11.5H6.875C7.97665 11.5 9.01401 12.0187 9.675 12.9L10.875 14.5C11.3471 15.1295 12.0881 15.5 12.875 15.5C13.6619 15.5 14.4029 15.1295 14.875 14.5L16.075 12.9C16.736 12.0187 17.7733 11.5 18.875 11.5H19.875C20.2187 11.5 20.5534 11.5385 20.875 11.6115ZM16.3689 5.43558C16.6806 5.70834 16.7122 6.18216 16.4395 6.49389L13.5696 9.77378C12.9529 10.4786 11.8906 10.5729 11.1593 9.98792L9.40651 8.58566C9.08306 8.3269 9.03062 7.85494 9.28938 7.53149C9.54813 7.20804 10.0201 7.1556 10.3435 7.41436L12.0964 8.81662C12.2008 8.90019 12.3526 8.88671 12.4407 8.78603L15.3106 5.50613C15.5834 5.1944 16.0572 5.16282 16.3689 5.43558ZM22.875 16V19C22.875 20.6569 21.5319 22 19.875 22H5.875C4.21815 22 2.875 20.6569 2.875 19V16C2.875 14.3431 4.21815 13 5.875 13H6.875C7.50451 13 8.09729 13.2964 8.475 13.8L9.675 15.4C10.4304 16.4072 11.616 17 12.875 17C14.134 17 15.3196 16.4072 16.075 15.4L17.275 13.8C17.6527 13.2964 18.2455 13 18.875 13H19.875C21.5319 13 22.875 14.3431 22.875 16Z" fill="#E94222"/>
</svg>
