<svg width="93" height="23" viewBox="0 0 93 23" fill="none" xmlns="http://www.w3.org/2000/svg">
<path d="M34.7663 5.12939H29.624C29.4537 5.12929 29.2891 5.19 29.1596 5.30061C29.0302 5.41121 28.9445 5.56442 28.9179 5.73264L26.8381 18.9237C26.8286 18.9849 26.8324 19.0474 26.8493 19.107C26.8662 19.1666 26.8959 19.2218 26.9362 19.2689C26.9765 19.3159 27.0265 19.3537 27.0828 19.3795C27.1391 19.4054 27.2003 19.4187 27.2622 19.4186H29.7172C29.8876 19.4187 30.0523 19.3579 30.1818 19.2471C30.3113 19.1363 30.3969 18.983 30.4233 18.8146L30.9842 15.2568C31.0105 15.0885 31.0961 14.9353 31.2254 14.8245C31.3547 14.7138 31.5193 14.6529 31.6895 14.6528H33.3174C36.7047 14.6528 38.6597 13.013 39.1702 9.76359C39.4003 8.34196 39.18 7.22497 38.5146 6.4427C37.7837 5.58371 36.4874 5.12939 34.7663 5.12939ZM35.3596 9.94712C35.0783 11.793 33.6685 11.793 32.3053 11.793H31.5293L32.0737 8.34573C32.0896 8.24487 32.141 8.15302 32.2186 8.08669C32.2962 8.02037 32.395 7.98393 32.497 7.98393H32.8527C33.7813 7.98393 34.6573 7.98393 35.1099 8.51346C35.3799 8.82938 35.4626 9.29874 35.3596 9.94712ZM50.1376 9.8877H47.6751C47.573 9.8877 47.4743 9.92414 47.3967 9.99047C47.3191 10.0568 47.2677 10.1486 47.2518 10.2495L47.1428 10.9385L46.9706 10.6888C46.4375 9.91478 45.2487 9.65603 44.0622 9.65603C41.341 9.65603 39.0169 11.7178 38.5642 14.6099C38.3289 16.0526 38.6635 17.4321 39.4815 18.3941C40.2319 19.2787 41.3057 19.6473 42.5832 19.6473C44.7757 19.6473 45.9916 18.2369 45.9916 18.2369L45.8818 18.9214C45.872 18.9826 45.8756 19.0452 45.8924 19.1049C45.9091 19.1645 45.9385 19.2199 45.9787 19.2671C46.0189 19.3143 46.0688 19.3522 46.125 19.3782C46.1812 19.4042 46.2424 19.4178 46.3044 19.4178H48.5225C48.6929 19.4179 48.8576 19.3571 48.9871 19.2463C49.1166 19.1356 49.2022 18.9822 49.2286 18.8138L50.5594 10.3826C50.5692 10.3216 50.5657 10.2591 50.549 10.1996C50.5323 10.14 50.5029 10.0848 50.4628 10.0378C50.4226 9.99069 50.3728 9.9529 50.3167 9.92699C50.2605 9.90109 50.1994 9.88768 50.1376 9.8877ZM46.7052 14.6821C46.4675 16.0894 45.351 17.0342 43.9268 17.0342C43.2118 17.0342 42.6403 16.8048 42.2734 16.37C41.9095 15.9383 41.7711 15.3237 41.8869 14.6392C42.1087 13.2439 43.2441 12.2684 44.6464 12.2684C45.3457 12.2684 45.9141 12.5008 46.2886 12.9393C46.6638 13.3823 46.8127 14.0006 46.7052 14.6821ZM63.2525 9.8877H60.7779C60.6612 9.88788 60.5463 9.91655 60.4432 9.97121C60.3401 10.0259 60.2519 10.1049 60.1862 10.2014L56.7732 15.2304L55.3266 10.3977C55.2822 10.2503 55.1915 10.1211 55.068 10.0293C54.9445 9.93741 54.7947 9.88777 54.6408 9.8877H52.2091C52.1409 9.88752 52.0736 9.90365 52.0128 9.93475C51.952 9.96585 51.8996 10.011 51.8598 10.0665C51.82 10.122 51.794 10.1862 51.784 10.2537C51.774 10.3213 51.7803 10.3902 51.8024 10.4548L54.528 18.4566L51.9655 22.0753C51.92 22.1395 51.893 22.2149 51.8874 22.2934C51.8819 22.3719 51.8981 22.4504 51.9342 22.5203C51.9703 22.5902 52.025 22.6489 52.0922 22.6898C52.1593 22.7307 52.2365 22.7523 52.3152 22.7523H54.7867C54.9021 22.7524 55.0158 22.7246 55.1181 22.6711C55.2204 22.6177 55.3082 22.5402 55.3739 22.4454L63.6044 10.5609C63.649 10.4966 63.6751 10.4213 63.68 10.3432C63.6849 10.2651 63.6683 10.1871 63.6321 10.1178C63.5958 10.0484 63.5413 9.99031 63.4744 9.94975C63.4074 9.9092 63.3307 9.88774 63.2525 9.8877Z" fill="#253B80"/>
<path d="M71.4674 5.13015H66.3166C66.1462 5.13022 65.9814 5.19093 65.8519 5.30137C65.7225 5.4118 65.6367 5.56471 65.6102 5.73257L63.5272 18.9056C63.5176 18.9666 63.5213 19.029 63.5381 19.0885C63.5549 19.1479 63.5844 19.2031 63.6246 19.25C63.6649 19.297 63.7148 19.3347 63.7711 19.3606C63.8273 19.3865 63.8885 19.3999 63.9505 19.3999H66.5937C66.7129 19.3997 66.8282 19.3571 66.9188 19.2797C67.0093 19.2023 67.0692 19.0952 67.0877 18.9777L67.6788 15.2437C67.7052 15.0757 67.7909 14.9226 67.9204 14.812C68.0499 14.7015 68.2147 14.6406 68.3852 14.6405H70.0148C73.4081 14.6405 75.3652 13.003 75.8773 9.75802C76.1085 8.33834 75.8864 7.22287 75.2199 6.44166C74.4887 5.58384 73.1912 5.13015 71.4674 5.13015ZM72.0616 9.9413C71.7807 11.7846 70.3687 11.7846 69.0027 11.7846H68.2263L68.7723 8.34209C68.7879 8.24137 68.8392 8.14957 68.9168 8.0833C68.9945 8.01702 69.0933 7.98066 69.1955 7.98078H69.5517C70.4809 7.98078 71.359 7.98079 71.8123 8.5096C72.0827 8.82509 72.1648 9.29381 72.0616 9.9413ZM86.8614 9.88196H84.3966C84.2944 9.88168 84.1955 9.91799 84.1178 9.98429C84.0401 10.0506 83.9889 10.1425 83.9734 10.2433L83.8642 10.9313L83.691 10.6819C83.1571 9.909 81.9673 9.65061 80.7789 9.65061C78.0536 9.65061 75.7267 11.7095 75.2734 14.5977C75.0384 16.0384 75.372 17.4161 76.1913 18.3768C76.9444 19.2602 78.0183 19.6282 79.2977 19.6282C81.4936 19.6282 82.7113 18.2198 82.7113 18.2198L82.6013 18.9034C82.5915 18.9646 82.5952 19.0272 82.612 19.0869C82.6288 19.1466 82.6585 19.202 82.6989 19.2491C82.7393 19.2963 82.7894 19.3341 82.8459 19.36C82.9024 19.3859 82.9639 19.3992 83.0261 19.3991H85.2468C85.4173 19.399 85.5821 19.3382 85.7116 19.2276C85.8411 19.117 85.9268 18.9639 85.9532 18.7959L87.2868 10.3762C87.2963 10.3151 87.2924 10.2526 87.2753 10.1931C87.2583 10.1335 87.2285 10.0784 87.1881 10.0315C87.1477 9.9845 87.0975 9.94682 87.0411 9.92102C86.9847 9.89521 86.9234 9.88189 86.8614 9.88196ZM83.4237 14.6698C83.1872 16.0752 82.0674 17.0187 80.6411 17.0187C79.9265 17.0187 79.3527 16.7896 78.9852 16.3554C78.6207 15.9243 78.4836 15.3106 78.5981 14.627C78.8218 13.2336 79.9574 12.2594 81.3618 12.2594C82.0621 12.2594 82.6315 12.4915 83.0065 12.9294C83.3838 13.3718 83.5329 13.9893 83.4237 14.6698ZM89.7689 5.49145L87.6551 18.9056C87.6454 18.9666 87.6491 19.029 87.6659 19.0885C87.6827 19.1479 87.7122 19.2031 87.7525 19.25C87.7927 19.297 87.8427 19.3347 87.8989 19.3606C87.9552 19.3865 88.0164 19.3999 88.0783 19.3999H90.2034C90.5566 19.3999 90.8563 19.1445 90.9105 18.7967L92.995 5.62441C93.0047 5.56335 93.001 5.50092 92.9842 5.44142C92.9674 5.38192 92.9378 5.32676 92.8976 5.27973C92.8574 5.23269 92.8075 5.1949 92.7512 5.16895C92.695 5.143 92.6337 5.1295 92.5718 5.12939H90.1921C90.09 5.12976 89.9913 5.16639 89.9137 5.23273C89.8362 5.29907 89.7848 5.39079 89.7689 5.49145Z" fill="#179BD7"/>
<path d="M5.46138 21.9497L5.85375 19.4523L4.97972 19.432H0.806152L3.70657 1.00373C3.7152 0.947419 3.74374 0.896096 3.78699 0.859113C3.83023 0.82213 3.88529 0.801949 3.94214 0.802249H10.9794C13.3156 0.802249 14.9279 1.2894 15.7696 2.25092C16.1643 2.70199 16.4156 3.17335 16.5371 3.69208C16.6647 4.23636 16.6669 4.88665 16.5424 5.67977L16.5334 5.73766V6.24586L16.928 6.46989C17.2293 6.62283 17.5001 6.82972 17.727 7.08033C18.0646 7.46599 18.2829 7.95615 18.3752 8.53727C18.4705 9.13493 18.439 9.84611 18.2829 10.6513C18.1029 11.5775 17.8118 12.3841 17.4187 13.0442C17.0718 13.6355 16.6054 14.1476 16.0495 14.5477C15.5273 14.9191 14.9069 15.201 14.2054 15.3814C13.5257 15.5589 12.7507 15.6483 11.9007 15.6483H11.353C10.9614 15.6483 10.581 15.7897 10.2824 16.043C9.98423 16.2991 9.78643 16.6528 9.72422 17.0414L9.68296 17.2661L8.98974 21.6678L8.95823 21.8294C8.94998 21.8805 8.93572 21.9061 8.91472 21.9234C8.89437 21.9401 8.86898 21.9493 8.84269 21.9497H5.46138Z" fill="#253B80"/>
<path d="M17.3174 5.76587C17.2963 5.90091 17.2722 6.03897 17.2452 6.1808C16.315 10.9721 13.1327 12.6273 9.0684 12.6273H6.99902C6.50198 12.6273 6.08314 12.9895 6.00569 13.4813L4.94618 20.2229L4.64615 22.1338C4.6342 22.2096 4.63876 22.2871 4.65953 22.361C4.68029 22.4348 4.71676 22.5033 4.76643 22.5617C4.8161 22.62 4.87778 22.6669 4.94724 22.6991C5.01669 22.7312 5.09227 22.7479 5.16876 22.7479H8.83906C9.27369 22.7479 9.6429 22.4311 9.71133 22.001L9.74742 21.8139L10.4385 17.4142L10.4828 17.1727C10.5505 16.7412 10.9205 16.4243 11.3551 16.4243H11.904C15.46 16.4243 18.2438 14.9759 19.0574 10.7843C19.3973 9.03327 19.2213 7.5712 18.322 6.54292C18.0369 6.22483 17.6965 5.96151 17.3174 5.76587Z" fill="#179BD7"/>
<path d="M16.3226 5.38194C16.0261 5.29522 15.7244 5.22753 15.4194 5.17929C14.8167 5.08566 14.2076 5.04074 13.5979 5.04495H8.0778C7.86772 5.04478 7.66452 5.1206 7.50492 5.25868C7.34532 5.39677 7.23985 5.58802 7.20759 5.79786L6.0333 13.3164L5.99951 13.5357C6.03609 13.2964 6.15621 13.0782 6.33814 12.9206C6.52006 12.763 6.75177 12.6764 6.99135 12.6765H9.05762C13.1158 12.6765 16.2933 11.0106 17.2221 6.19101C17.2499 6.04833 17.2732 5.90943 17.2942 5.77357C17.0491 5.64366 16.7937 5.53474 16.5306 5.44797C16.4616 5.42483 16.3923 5.40282 16.3226 5.38194Z" fill="#222D65"/>
<path d="M7.20818 5.81552C7.24013 5.60662 7.34539 5.4162 7.50484 5.27884C7.6643 5.14148 7.86737 5.0663 8.07716 5.06696H13.5894C14.2425 5.06696 14.852 5.11001 15.4084 5.20065C15.7848 5.26026 16.1561 5.34941 16.5188 5.4673C16.7924 5.5587 17.0466 5.66671 17.2813 5.79135C17.5572 4.01852 17.279 2.81145 16.3276 1.71844C15.2787 0.515156 13.3855 0 10.963 0H3.93021C3.43536 0 3.01324 0.362573 2.93677 0.855823L0.00742996 19.5623C-0.00621439 19.6492 -0.00102318 19.738 0.0226465 19.8226C0.0463162 19.9072 0.0879026 19.9857 0.144545 20.0526C0.201188 20.1195 0.271542 20.1732 0.350769 20.2101C0.429995 20.247 0.516214 20.2662 0.603494 20.2663H4.94539L6.03555 13.2981L7.20818 5.81552Z" fill="#253B80"/>
</svg>
