<svg width="16" height="15" viewBox="0 0 16 15" fill="none" xmlns="http://www.w3.org/2000/svg">
<path d="M14.1247 6.39651C13.9081 6.27064 13.7136 6.11031 13.5487 5.92184C13.5653 5.65945 13.6278 5.40201 13.7333 5.16118C13.9273 4.61385 14.1467 3.99384 13.7947 3.51184C13.4427 3.02984 12.778 3.04518 12.1947 3.05851C11.9369 3.08503 11.6765 3.06745 11.4247 3.00651C11.2905 2.78818 11.1947 2.5485 11.1413 2.29785C10.976 1.73451 10.7873 1.09785 10.208 0.907178C9.64933 0.727178 9.132 1.12318 8.67466 1.47118C8.47733 1.65139 8.24867 1.79396 8 1.89185C7.74873 1.79476 7.51752 1.65215 7.318 1.47118C6.862 1.12518 6.34666 0.725179 5.78533 0.907845C5.20733 1.09585 5.01866 1.73451 4.852 2.29785C4.79875 2.54769 4.70387 2.7868 4.57133 3.00518C4.31901 3.06595 4.05828 3.08398 3.8 3.05851C3.21466 3.04251 2.55533 3.02518 2.2 3.51184C1.84466 3.99851 2.06666 4.61384 2.26133 5.16051C2.36829 5.40099 2.43172 5.65854 2.44866 5.92118C2.28405 6.1099 2.08971 6.27045 1.87333 6.39651C1.38533 6.72984 0.831329 7.10918 0.831329 7.72518C0.831329 8.34118 1.38533 8.71918 1.87333 9.05384C2.08966 9.1797 2.284 9.34003 2.44866 9.52851C2.4335 9.79106 2.37188 10.0488 2.26666 10.2898C2.07333 10.8365 1.85466 11.4565 2.206 11.9385C2.55733 12.4205 3.22 12.4052 3.806 12.3918C4.06397 12.3653 4.32459 12.3829 4.57666 12.4438C4.71025 12.6624 4.80583 12.902 4.85933 13.1525C5.02466 13.7158 5.21333 14.3525 5.79266 14.5432C5.88554 14.573 5.98246 14.5883 6.08 14.5885C6.5488 14.5212 6.98452 14.308 7.32533 13.9792C7.52267 13.799 7.75133 13.6564 8 13.5585C8.25127 13.6556 8.48247 13.7982 8.682 13.9792C9.13866 14.3278 9.656 14.7258 10.2153 14.5425C10.7933 14.3545 10.982 13.7158 11.1487 13.1532C11.2021 12.9029 11.2977 12.6635 11.4313 12.4452C11.6827 12.384 11.9426 12.366 12.2 12.3918C12.7853 12.4058 13.4447 12.4252 13.8 11.9385C14.1553 11.4518 13.9333 10.8365 13.7387 10.2892C13.6324 10.0489 13.569 9.79194 13.5513 9.52984C13.716 9.34096 13.9106 9.18038 14.1273 9.05451C14.6153 8.72118 15.1693 8.34118 15.1693 7.72518C15.1693 7.10918 14.6133 6.73051 14.1247 6.39651Z" fill="#49ADF4"/>
<path d="M7.33333 9.5586C7.26766 9.55872 7.20262 9.54582 7.14197 9.52065C7.08132 9.49547 7.02627 9.45852 6.97999 9.41193L5.64666 8.0786C5.55834 7.98381 5.51026 7.85845 5.51254 7.72891C5.51483 7.59938 5.5673 7.47579 5.65891 7.38418C5.75052 7.29257 5.87411 7.2401 6.00365 7.23781C6.13318 7.23553 6.25854 7.28361 6.35333 7.37193L7.37999 8.3986L9.7 6.6586C9.80608 6.57903 9.93943 6.54487 10.0707 6.56362C10.202 6.58237 10.3204 6.65251 10.4 6.7586C10.4796 6.86468 10.5137 6.99803 10.495 7.12931C10.4762 7.26058 10.4061 7.37903 10.3 7.4586L7.63333 9.4586C7.54676 9.52346 7.44151 9.55855 7.33333 9.5586Z" fill="white"/>
</svg>
