<svg width="14" height="14" viewBox="0 0 14 14" fill="none" xmlns="http://www.w3.org/2000/svg">
<path d="M1.16699 9.33341C1.16699 7.47736 2.47283 6.41675 4.08366 6.41675C5.69449 6.41675 7.00033 7.47736 7.00033 9.33341H1.16699Z" stroke="white" stroke-linejoin="round"/>
<path d="M2.91699 4.66675H5.25033" stroke="white" stroke-linecap="round" stroke-linejoin="round"/>
<path d="M5.83301 9.33325C5.83301 10.2998 5.0495 11.0833 4.08301 11.0833C3.11651 11.0833 2.33301 10.2998 2.33301 9.33325" stroke="white"/>
<path d="M11.6667 11.0833C12.311 11.0833 12.8333 10.561 12.8333 9.91667C12.8333 9.27233 12.311 8.75 11.6667 8.75C11.0223 8.75 10.5 9.27233 10.5 9.91667C10.5 10.561 11.0223 11.0833 11.6667 11.0833Z" stroke="white"/>
<path d="M9.33333 4.66675C10.1111 5.03873 11.6667 6.51819 11.6667 8.75008M9.32744 2.91675H9.64635C10.2208 2.91675 10.7477 3.25466 11.0139 3.79373C11.1979 4.16662 11.0139 4.66675 10.4912 4.66675H9.32744M9.32744 2.91675V4.66675M9.32744 2.91675H7.5509M9.32744 4.66675C9.32744 5.78269 9.2036 9.33341 7 9.33341H10.3055" stroke="white" stroke-linecap="round" stroke-linejoin="round"/>
</svg>
