<svg width="15" height="14" viewBox="0 0 15 14" fill="none" xmlns="http://www.w3.org/2000/svg">
<path d="M6.18854 1.03462C6.72499 -0.0955229 8.27499 -0.095525 8.81145 1.03462L9.73859 2.9878C9.95162 3.43658 10.3634 3.74764 10.8397 3.8196L12.9129 4.13281C14.1124 4.31403 14.5914 5.84671 13.7234 6.7264L12.2233 8.24674C11.8786 8.59607 11.7213 9.09937 11.8027 9.59263L12.1568 11.7394C12.3617 12.9815 11.1077 13.9288 10.0348 13.3423L8.18055 12.3287C7.75449 12.0959 7.2455 12.0959 6.81944 12.3287L4.96517 13.3423C3.89226 13.9288 2.63828 12.9815 2.84319 11.7394L3.19732 9.59263C3.27869 9.09937 3.1214 8.59607 2.77672 8.24674L1.27658 6.7264C0.408572 5.84671 0.887547 4.31403 2.0871 4.13281L4.16024 3.8196C4.63659 3.74764 5.04837 3.43658 5.2614 2.9878L6.18854 1.03462Z" fill="#F9C200"/>
</svg>
