<svg width="21" height="20" viewBox="0 0 21 20" fill="none" xmlns="http://www.w3.org/2000/svg">
<path fill-rule="evenodd" clip-rule="evenodd" d="M7.4905 2.5H13.5097C15.1391 2.5 16.5298 3.67804 16.7976 5.28534L18.1865 13.6187C18.5252 15.6504 16.9583 17.5 14.8985 17.5H6.10161C4.04182 17.5 2.47501 15.6504 2.81363 13.6187L4.20252 5.28534C4.47041 3.67804 5.86104 2.5 7.4905 2.5ZM10.5001 8.95833C12.226 8.95833 13.6251 7.55922 13.6251 5.83333V5C13.6251 4.65482 13.3453 4.375 13.0001 4.375C12.6549 4.375 12.3751 4.65482 12.3751 5V5.83333C12.3751 6.86887 11.5356 7.70833 10.5001 7.70833C9.46455 7.70833 8.62508 6.86887 8.62508 5.83333V5C8.62508 4.65482 8.34526 4.375 8.00008 4.375C7.6549 4.375 7.37508 4.65482 7.37508 5V5.83333C7.37508 7.55922 8.77419 8.95833 10.5001 8.95833Z" fill="#E94222"/>
</svg>
