<svg width="14" height="15" viewBox="0 0 14 15" fill="none" xmlns="http://www.w3.org/2000/svg">
<path d="M3.5 6.91667C2.21134 6.91667 1.16667 5.872 1.16667 4.58333C1.16667 3.29467 2.21134 2.25 3.5 2.25L10.5 2.25C11.7887 2.25 12.8333 3.29467 12.8333 4.58333C12.8333 5.872 11.7887 6.91667 10.5 6.91667M10.5 4.58333L10.5 10.75C10.5 11.8546 9.60457 12.75 8.5 12.75H5.5C4.39543 12.75 3.5 11.8546 3.5 10.75V4.58333L10.5 4.58333Z" stroke="#0C1321" stroke-linejoin="round"/>
<path d="M8.16667 9.24976L7.41248 10.004C7.18467 10.2318 6.81533 10.2318 6.58752 10.004L5.83333 9.24976M7 6.91643V9.8331" stroke="#0C1321" stroke-linecap="round"/>
</svg>
